<?xml version="1.0" standalone="no"?>
<!DOCTYPE svg PUBLIC "-//W3C//DTD SVG 1.1//EN" "http://www.w3.org/Graphics/SVG/1.1/DTD/svg11.dtd" >
<svg>
<metadata>
Created by FontForge 20090914 at Sat Nov 27 09:42:42 2021
 By www-data
Copyright (c) BPG InfoTech, 2005. All rights reserved.
</metadata>
<defs>
<font id="BPGGlaho" horiz-adv-x="1139" >
  <font-face 
    font-family="BPG Glaho"
    font-weight="400"
    font-stretch="normal"
    units-per-em="2048"
    panose-1="2 11 6 4 2 2 2 2 2 4"
    ascent="1638"
    descent="-410"
    x-height="1062"
    cap-height="1466"
    bbox="-94 -721.002 2180.32 1695"
    underline-thickness="150"
    underline-position="-142"
    unicode-range="U+0020-U+E04A"
  />
<missing-glyph horiz-adv-x="1536" 
d="M256 0v1280h1024v-1280h-1024zM288 32h960v1216h-960v-1216z" />
    <glyph glyph-name=".notdef" horiz-adv-x="1536" 
d="M256 0v1280h1024v-1280h-1024zM288 32h960v1216h-960v-1216z" />
    <glyph glyph-name="space" unicode=" " horiz-adv-x="700" 
 />
    <glyph glyph-name="space" unicode="&#xa0;" horiz-adv-x="700" 
 />
    <glyph glyph-name="exclam" unicode="!" horiz-adv-x="569" 
d="M231 364l-55 777v325h223v-325l-52 -777h-116zM184 0v205h207v-205h-207z" />
    <glyph glyph-name="quotedbl" unicode="&#x22;" horiz-adv-x="727" 
d="M144 947l-50 279v240h205v-240l-45 -279h-110zM475 947l-49 279v240h205v-240l-48 -279h-108z" />
    <glyph glyph-name="numbersign" unicode="#" 
d="M103 -25l87 426h-169v149h199l74 363h-273v149h303l87 429h150l-87 -429h315l87 429h151l-87 -429h173v-149h-203l-75 -363h278v-149h-308l-87 -426h-150l86 426h-314l-87 -426h-150zM370 550h314l75 363h-315z" />
    <glyph glyph-name="dollar" unicode="$" 
d="M510 -211l0.000976562 180.001c-90 11.333 -163.167 31.5 -219.5 60.5s-105 75.833 -146 140.5s-64.833 143.667 -71.5 237l181 34c14 -96.667 38.667 -167.667 74 -213c50.667 -64 111.334 -99.667 182.001 -107v573c-74 14 -149.667 42.667 -227 86
c-57.333 32 -101.5 76.333 -132.5 133s-46.5 121 -46.5 193c0 128 45.333 231.667 136 311c60.667 53.333 150.667 86 270 98v86h106v-86c104.667 -10 187.667 -40.667 249 -92c78.667 -65.333 126 -155 142 -269l-186 -28c-10.667 70.667 -32.834 124.834 -66.501 162.501
s-79.834 62.5 -138.501 74.5v-519c90.667 -22.667 150.667 -40.334 180 -53.001c56 -24.667 101.667 -54.667 137 -90s62.5 -77.333 81.5 -126s28.5 -101.334 28.5 -158.001c0 -124.667 -39.667 -228.667 -119 -312s-182 -128 -308 -134v-182h-106zM510.001 1365
c-70 -10.667 -125.167 -38.668 -165.5 -84.001s-60.5 -99 -60.5 -161c0 -61.333 17.167 -112.666 51.5 -153.999s92.5 -74.333 174.5 -99v498zM616.001 121c70 8.66699 127.833 39 173.5 91s68.5 116.333 68.5 193c0 65.333 -16.167 117.833 -48.5 157.5
s-96.833 75.167 -193.5 106.5v-548z" />
    <glyph glyph-name="percent" unicode="%" horiz-adv-x="1821" 
d="M119 1114c0 104.667 26.333 193.667 79 267s129 110 229 110c92 0 168.167 -32.833 228.5 -98.5s90.5 -162.167 90.5 -289.5c0 -124 -30.5 -219.5 -91.5 -286.5s-136.167 -100.5 -225.5 -100.5c-88.667 0 -162.5 33 -221.5 99s-88.5 165.667 -88.5 299zM432 1367
c-44.667 0 -81.833 -19.334 -111.5 -58.001s-44.5 -109.667 -44.5 -213c0 -94 15 -160.167 45 -198.5s67 -57.5 111 -57.5c45.333 0 82.833 19.333 112.5 58s44.5 109.334 44.5 212.001c0 94.667 -15 161.167 -45 199.5s-67.333 57.5 -112 57.5zM433.001 -54.001l802 1545
h146l-799 -1545h-149zM1067 343.999c0 105.333 26.332 194.5 78.999 267.5s129.334 109.5 230.001 109.5c92 0 168.167 -32.833 228.5 -98.5s90.5 -162.167 90.5 -289.5c0 -124 -30.5 -219.5 -91.5 -286.5s-136.5 -100.5 -226.5 -100.5c-88.667 0 -162.5 33.167 -221.5 99.5
s-88.5 165.833 -88.5 298.5zM1381 596.999c-45.333 0 -82.833 -19.334 -112.5 -58.001s-44.5 -109.667 -44.5 -213c0 -93.333 15 -159.333 45 -198s67 -58 111 -58c46 0 83.833 19.333 113.5 58s44.5 109.334 44.5 212.001c0 94.667 -15 161.167 -45 199.5
s-67.333 57.5 -112 57.5z" />
    <glyph glyph-name="ampersand" unicode="&#x26;" horiz-adv-x="1366" 
d="M973 173c-59.333 -66 -123.999 -115.5 -193.999 -148.5s-145.667 -49.5 -227 -49.5c-150 0 -269 50.667 -357 152c-71.333 82.667 -107 175 -107 277c0 90.667 29.167 172.5 87.5 245.5s145.5 137.167 261.5 192.5c-66 76 -110 137.667 -132 185s-33 93 -33 137
c0 88 34.5 164.5 103.5 229.5s155.833 97.5 260.5 97.5c100 0 181.833 -30.667 245.5 -92s95.5 -135 95.5 -221c0 -139.333 -92.333 -258.333 -277 -357l263 -335c30 58.667 53.333 126.667 70 204l187 -40c-32 -128 -75.333 -233.333 -130 -316
c67.333 -89.333 143.666 -164.333 228.999 -225l-121 -143c-72.667 46.667 -147.667 115.667 -225 207zM607.001 937c78 46 128.5 86.332 151.5 120.999s34.5 73 34.5 115c0 50 -15.833 90.833 -47.5 122.5s-71.167 47.5 -118.5 47.5c-48.667 0 -89.167 -15.667 -121.5 -47
s-48.5 -69.666 -48.5 -114.999c0 -22.667 5.83301 -46.5 17.5 -71.5s29.167 -51.5 52.5 -79.5zM860.001 314.999l-330.001 409.001c-97.333 -58 -163 -111.833 -197 -161.5s-51 -98.834 -51 -147.501c0 -59.333 23.667 -121 71 -185s114.333 -96 201 -96
c54 0 109.833 16.833 167.5 50.5s103.834 77.167 138.501 130.5z" />
    <glyph glyph-name="quotesingle" unicode="'" horiz-adv-x="391" 
d="M136 947l-46 274v245h205v-245l-48 -274h-111z" />
    <glyph glyph-name="parenleft" unicode="(" horiz-adv-x="682" 
d="M479 -431c-99.333 125.333 -183.333 272 -252 440s-103 342 -103 522c0 158.667 25.667 310.667 77 456c60 168.667 152.667 336.667 278 504h129c-80.667 -138.667 -134 -237.667 -160 -297c-40.667 -92 -72.667 -188 -96 -288c-28.667 -124.667 -43 -250 -43 -376
c0 -320.667 99.667 -641 299 -961h-129z" />
    <glyph glyph-name="parenright" unicode=")" horiz-adv-x="682" 
d="M204 -431l-128.999 0.000976562c199.333 320 299 640.333 299 961c0 125.333 -14.333 249.666 -43 372.999c-22.667 100 -54.334 196 -95.001 288c-26 60 -79.667 160 -161 300h129c125.333 -167.333 218 -335.333 278 -504c51.333 -145.333 77 -297.333 77 -456
c0 -180 -34.5 -354 -103.5 -522s-152.833 -314.667 -251.5 -440z" />
    <glyph glyph-name="asterisk" unicode="*" horiz-adv-x="797" 
d="M64 1197l46.001 141.997c106 -37.333 183 -69.666 231 -96.999c-12.667 120.667 -19.334 203.667 -20.001 249h145c-2 -66 -9.66699 -148.667 -23 -248c68.667 34.667 147.334 66.667 236.001 96l46 -142c-84.667 -28 -167.667 -46.667 -249 -56
c40.667 -35.333 98 -98.333 172 -189l-120 -85c-38.667 52.667 -84.334 124.334 -137.001 215.001c-49.333 -94 -92.666 -165.667 -129.999 -215l-118 85c77.333 95.333 132.666 158.333 165.999 189c-86 16.667 -167.667 35.334 -245 56.001z" />
    <glyph glyph-name="plus" unicode="+" horiz-adv-x="1196" 
d="M513 237v402h-399v168h399v399h170v-399h399v-168h-399v-402h-170z" />
    <glyph glyph-name="comma" unicode="," horiz-adv-x="569" 
d="M182 0v204.998h205v-205c0 -75.333 -13.333 -136.166 -40 -182.499s-69 -82.166 -127 -107.499l-50 77c38 16.667 66 41.167 84 73.5s28 78.833 30 139.5h-102z" />
    <glyph glyph-name="hyphen" unicode="-" horiz-adv-x="682" 
d="M65 440v181h553v-181h-553z" />
    <glyph glyph-name="hyphen" unicode="&#xad;" horiz-adv-x="682" 
d="M65 440v181h553v-181h-553z" />
    <glyph glyph-name="period" unicode="." horiz-adv-x="569" 
d="M186 0v205h205v-205h-205z" />
    <glyph glyph-name="slash" unicode="/" horiz-adv-x="569" 
d="M0 -25l425 1516h144l-424 -1516h-145z" />
    <glyph glyph-name="zero" unicode="0" 
d="M85 723c0 173.333 17.8311 312.836 53.498 418.503s88.667 187.167 159 244.5s158.833 86 265.5 86c78.667 0 147.667 -15.833 207 -47.5s108.333 -77.334 147 -137.001s69 -132.334 91 -218.001s33 -201.167 33 -346.5c0 -172 -17.667 -310.833 -53 -416.5
s-88.166 -187.334 -158.499 -245.001s-159.166 -86.5 -266.499 -86.5c-141.333 0 -252.333 50.667 -333 152c-96.667 122 -145 320.667 -145 596zM269.998 723.003c0 -240.667 28.167 -400.832 84.5 -480.499s125.833 -119.5 208.5 -119.5s152.167 40 208.5 120
s84.5 240 84.5 480c0 241.333 -28.167 401.666 -84.5 480.999s-126.5 119 -210.5 119c-82.667 0 -148.667 -35 -198 -105c-62 -89.333 -93 -254.333 -93 -495z" />
    <glyph glyph-name="one" unicode="1" 
d="M763 0l-180 0.000976562v1147c-43.333 -41.333 -100.166 -82.666 -170.499 -123.999s-133.5 -72.333 -189.5 -93v174c100.667 47.333 188.667 104.666 264 171.999s128.666 132.666 159.999 195.999h116v-1472z" />
    <glyph glyph-name="two" unicode="2" 
d="M1031 173l-0.000976562 -172.998h-969c-1.33301 43.333 5.66699 85 21 125c24.667 66 64.167 131 118.5 195s132.833 138 235.5 222c159.333 130.667 267 234.167 323 310.5s84 148.5 84 216.5c0 71.333 -25.5 131.5 -76.5 180.5s-117.5 73.5 -199.5 73.5
c-86.667 0 -156 -26 -208 -78s-78.333 -124 -79 -216l-185 19c12.667 138 60.334 243.167 143.001 315.5s193.667 108.5 333 108.5c140.667 0 252 -39 334 -117s123 -174.667 123 -290c0 -58.667 -12 -116.334 -36 -173.001s-63.833 -116.334 -119.5 -179.001
s-148.167 -148.667 -277.5 -258c-108 -90.667 -177.333 -152.167 -208 -184.5s-56 -64.833 -76 -97.5h719z" />
    <glyph glyph-name="three" unicode="3" 
d="M86 387l180 23.9971c20.667 -102 55.834 -175.5 105.501 -220.5s110.167 -67.5 181.5 -67.5c84.667 0 156.167 29.333 214.5 88s87.5 131.334 87.5 218.001c0 82.667 -27 150.834 -81 204.501s-122.667 80.5 -206 80.5c-34 0 -76.333 -6.66699 -127 -20l20 158
c12 -1.33301 21.667 -2 29 -2c76.667 0 145.667 20 207 60s92 101.667 92 185c0 66 -22.333 120.667 -67 164s-102.334 65 -173.001 65c-70 0 -128.333 -22 -175 -66s-76.667 -110 -90 -198l-180 32c22 120.667 72 214.167 150 280.5s175 99.5 291 99.5
c80 0 153.667 -17.167 221 -51.5s118.833 -81.166 154.5 -140.499s53.5 -122.333 53.5 -189c0 -63.333 -17 -121 -51 -173s-84.333 -93.333 -151 -124c86.667 -20 154 -61.5 202 -124.5s72 -141.833 72 -236.5c0 -128 -46.667 -236.5 -140 -325.5
s-211.333 -133.5 -354 -133.5c-128.667 0 -235.5 38.333 -320.5 115s-133.5 176 -145.5 298z" />
    <glyph glyph-name="four" unicode="4" 
d="M662 0v351h-636v165l669 950h147v-950h198v-165h-198v-351h-180zM662 516v661l-459 -661h459z" />
    <glyph glyph-name="five" unicode="5" 
d="M85 384l189 16.001c14 -92 46.5 -161.167 97.5 -207.5s112.5 -69.5 184.5 -69.5c86.667 0 160 32.667 220 98s90 152 90 260c0 102.667 -28.833 183.667 -86.5 243s-133.167 89 -226.5 89c-58 0 -110.333 -13.167 -157 -39.5s-83.334 -60.5 -110.001 -102.5l-169 22
l142 753h729v-172h-585l-79 -394c88 61.333 180.333 92 277 92c128 0 236 -44.333 324 -133s132 -202.667 132 -342c0 -132.667 -38.667 -247.334 -116 -344.001c-94 -118.667 -222.333 -178 -385 -178c-133.333 0 -242.166 37.333 -326.499 112s-132.5 173.667 -144.5 297z
" />
    <glyph glyph-name="six" unicode="6" 
d="M1019 1107l-179.002 -14c-16 70.667 -38.667 122 -68 154c-48.667 51.333 -108.667 77 -180 77c-57.333 0 -107.666 -16 -150.999 -48c-56.667 -41.333 -101.334 -101.666 -134.001 -180.999s-49.667 -192.333 -51 -339c43.333 66 96.333 115 159 147
s128.334 48 197.001 48c120 0 222.167 -44.167 306.5 -132.5s126.5 -202.5 126.5 -342.5c0 -92 -19.833 -177.5 -59.5 -256.5s-94.167 -139.5 -163.5 -181.5s-148 -63 -236 -63c-150 0 -272.333 55.167 -367 165.5s-142 292.166 -142 545.499
c0 283.333 52.333 489.333 157 618c91.333 112 214.333 168 369 168c115.333 0 209.833 -32.333 283.5 -97s117.834 -154 132.501 -268zM283.998 475c0 -62 13.168 -121.33 39.501 -177.997s63.166 -99.834 110.499 -129.501s97 -44.5 149 -44.5c76 0 141.333 30.667 196 92
s82 144.666 82 249.999c0 101.333 -27 181.166 -81 239.499s-122 87.5 -204 87.5c-81.333 0 -150.333 -29.167 -207 -87.5s-85 -134.833 -85 -229.5z" />
    <glyph glyph-name="seven" unicode="7" 
d="M97 1274v173.001h949v-140c-93.333 -99.333 -185.833 -231.333 -277.5 -396s-162.5 -334 -212.5 -508c-36 -122.667 -59 -257 -69 -403h-185c2 115.333 24.667 254.666 68 417.999s105.5 320.833 186.5 472.5s167.167 279.5 258.5 383.5h-718z" />
    <glyph glyph-name="eight" unicode="8" 
d="M362 795c-74.667 27.333 -129.996 66.3301 -165.996 116.997s-54 111.334 -54 182.001c0 106.667 38.333 196.334 115 269.001s178.667 109 306 109c128 0 231 -37.167 309 -111.5s117 -164.833 117 -271.5c0 -68 -17.833 -127.167 -53.5 -177.5
s-89.834 -89.166 -162.501 -116.499c90 -29.333 158.5 -76.666 205.5 -141.999s70.5 -143.333 70.5 -234c0 -125.333 -44.333 -230.666 -133 -315.999s-205.334 -128 -350.001 -128s-261.334 42.833 -350.001 128.5s-133 192.5 -133 320.5
c0 95.333 24.167 175.166 72.5 239.499s117.166 108.166 206.499 131.499zM326.004 1100c0 -69.333 22.334 -126 67.001 -170s102.667 -66 174 -66c69.333 0 126.166 21.833 170.499 65.5s66.5 97.167 66.5 160.5c0 66 -22.833 121.5 -68.5 166.5s-102.5 67.5 -170.5 67.5
c-68.667 0 -125.667 -22 -171 -66s-68 -96.667 -68 -158zM268.005 422.997c0 -51.333 12.1689 -101 36.502 -149s60.5 -85.167 108.5 -111.5s99.667 -39.5 155 -39.5c86 0 157 27.667 213 83s84 125.666 84 210.999c0 86.667 -28.833 158.334 -86.5 215.001
s-129.834 85 -216.501 85c-84.667 0 -154.834 -28 -210.501 -84s-83.5 -126 -83.5 -210z" />
    <glyph glyph-name="nine" unicode="9" 
d="M112 339l173.001 16c14.667 -81.333 42.667 -140.333 84 -177s94.333 -55 159 -55c55.333 0 103.833 12.667 145.5 38s75.834 59.166 102.501 101.499s49 99.5 67 171.5s27 145.333 27 220c0 8 -0.333008 20 -1 36c-36 -57.333 -85.167 -103.833 -147.5 -139.5
s-129.833 -53.5 -202.5 -53.5c-121.333 0 -224 44 -308 132s-126 204 -126 348c0 148.667 43.833 268.334 131.5 359.001s197.5 136 329.5 136c95.333 0 182.5 -25.667 261.5 -77s139 -124.5 180 -219.5s61.5 -232.5 61.5 -412.5c0 -187.333 -20.333 -336.5 -61 -447.5
s-101.167 -195.5 -181.5 -253.5s-174.5 -87 -282.5 -87c-114.667 0 -208.334 31.833 -281.001 95.5s-116.334 153.167 -131.001 268.5zM849.001 986c0 103.333 -27.5 185.333 -82.5 246s-121.167 91 -198.5 91c-80 0 -149.667 -32.667 -209 -98s-89 -150 -89 -254
c0 -93.333 28.167 -169.166 84.5 -227.499s125.833 -87.5 208.5 -87.5c83.333 0 151.833 29.167 205.5 87.5s80.5 139.166 80.5 242.499z" />
    <glyph glyph-name="colon" unicode=":" horiz-adv-x="569" 
d="M185 683v205h205v-205h-205zM185 0v205h205v-205h-205z" />
    <glyph glyph-name="semicolon" unicode=";" horiz-adv-x="569" 
d="M182 682v205h205v-205h-205zM182 0v204.998h205v-205c0 -75.333 -13.333 -136.166 -40 -182.499s-69 -82.166 -127 -107.499l-50 77c38 16.667 66 41.167 84 73.5s28 78.833 30 139.5h-102z" />
    <glyph glyph-name="less" unicode="&#x3c;" horiz-adv-x="1196" 
d="M112 641v168l971 410v-179l-770 -316l770 -319v-179z" />
    <glyph glyph-name="equal" unicode="=" horiz-adv-x="1196" 
d="M1082 862h-968v168h968v-168zM1082 417h-968v168h968v-168z" />
    <glyph glyph-name="greater" unicode="&#x3e;" horiz-adv-x="1196" 
d="M1083 641l-971 -415v179l769 319l-769 316v179l971 -410v-168z" />
    <glyph glyph-name="question" unicode="?" 
d="M472 361c-0.666992 24 -0.999023 41.998 -0.999023 53.998c0 70.667 10 131.667 30 183c14.667 38.667 38.334 77.667 71.001 117c24 28.667 67.167 70.5 129.5 125.5s102.833 98.833 121.5 131.5s28 68.334 28 107.001c0 70 -27.333 131.5 -82 184.5
s-121.667 79.5 -201 79.5c-76.667 0 -140.667 -24 -192 -72s-85 -123 -101 -225l-185 22c16.667 136.667 66.167 241.334 148.5 314.001s191.166 109 326.499 109c143.333 0 257.666 -39 342.999 -117s128 -172.333 128 -283c0 -64 -15 -123 -45 -177
s-88.667 -119.667 -176 -197c-58.667 -52 -97 -90.333 -115 -115s-31.333 -53 -40 -85s-13.667 -84 -15 -156h-173zM461.001 -0.00195312v205h205v-205h-205z" />
    <glyph glyph-name="at" unicode="@" horiz-adv-x="2079" 
d="M1161 163c-43.333 -50 -91.832 -90.167 -145.499 -120.5s-107.5 -45.5 -161.5 -45.5c-59.333 0 -117 17.333 -173 52s-101.5 88 -136.5 160s-52.5 151 -52.5 237c0 106 27.167 212.167 81.5 318.5s121.833 186.166 202.5 239.499s159 80 235 80
c58 0 113.333 -15.167 166 -45.5s98 -76.5 136 -138.5l34 155h179l-144 -671c-20 -93.333 -30 -145 -30 -155c0 -18 6.83301 -33.5 20.5 -46.5s30.167 -19.5 49.5 -19.5c35.333 0 81.666 20.333 138.999 61c76 53.333 136.167 124.833 180.5 214.5s66.5 182.167 66.5 277.5
c0 111.333 -28.5 215.333 -85.5 312s-142 174 -255 232s-237.833 87 -374.5 87c-156 0 -298.5 -36.5 -427.5 -109.5s-229 -177.667 -300 -314s-106.5 -282.5 -106.5 -438.5c0 -163.333 35.5 -304 106.5 -422s173.667 -205.167 308 -261.5s283.166 -84.5 446.499 -84.5
c174.667 0 321 29.333 439 88s206.333 130 265 214h181c-34 -70 -92.333 -141.333 -175 -214s-181 -130.167 -295 -172.5s-251.333 -63.5 -412 -63.5c-148 0 -284.5 19 -409.5 57s-231.5 95.167 -319.5 171.5s-154.333 164.166 -199 263.499c-56 126 -84 262 -84 408
c0 162.667 33.333 317.667 100 465c81.333 180.667 196.833 319 346.5 415s331.167 144 544.5 144c165.333 0 313.833 -33.833 445.5 -101.5s235.5 -168.5 311.5 -302.5c64.667 -115.333 97 -240.666 97 -375.999c0 -193.333 -68 -365 -204 -515
c-121.333 -134.667 -254 -202 -398 -202c-46 0 -83.167 7 -111.5 21s-49.166 34 -62.499 60c-8.66699 16.667 -15 45.334 -19 86.001zM677.001 434c0 -91.333 21.668 -162.333 65.001 -213s93 -76 149 -76c37.333 0 76.666 11.167 117.999 33.5s80.833 55.5 118.5 99.5
s68.5 99.833 92.5 167.5s36 135.5 36 203.5c0 90.667 -22.5 161 -67.5 211s-99.833 75 -164.5 75c-42.667 0 -82.834 -10.833 -120.501 -32.5s-74.167 -56.5 -109.5 -104.5s-63.666 -106.333 -84.999 -175s-32 -131.667 -32 -189z" />
    <glyph glyph-name="A" unicode="A" horiz-adv-x="1366" 
d="M-3 0l563 1466h209l600 -1466h-221l-171 444h-613l-161 -444h-206zM420 602l497.001 0.000976562l-153 406c-46.667 123.333 -81.334 224.666 -104.001 303.999c-18.667 -94 -45 -187.333 -79 -280z" />
    <glyph glyph-name="B" unicode="B" horiz-adv-x="1366" 
d="M150 0l-0.00195312 1466h550c112 0 201.833 -14.833 269.5 -44.5s120.667 -75.334 159 -137.001s57.5 -126.167 57.5 -193.5c0 -62.667 -17 -121.667 -51 -177s-85.333 -100 -154 -134c88.667 -26 156.834 -70.333 204.501 -133s71.5 -136.667 71.5 -222
c0 -68.667 -14.5 -132.5 -43.5 -191.5s-64.833 -104.5 -107.5 -136.5s-96.167 -56.167 -160.5 -72.5s-143.166 -24.5 -236.499 -24.5h-559zM343.998 850.001h316.998c86 0 147.667 5.66699 185 17c49.333 14.667 86.5 39 111.5 73s37.5 76.667 37.5 128
c0 48.667 -11.667 91.5 -35 128.5s-56.666 62.333 -99.999 76s-117.666 20.5 -222.999 20.5h-293v-443zM343.996 173.001l365 -0.000976562c62.667 0 106.667 2.33301 132 7c44.667 8 82 21.333 112 40s54.667 45.834 74 81.501s29 76.834 29 123.501
c0 54.667 -14 102.167 -42 142.5s-66.833 68.666 -116.5 84.999s-121.167 24.5 -214.5 24.5h-339v-504z" />
    <glyph glyph-name="C" unicode="C" horiz-adv-x="1479" 
d="M1204 514l194.004 -49.002c-40.667 -159.333 -113.834 -280.833 -219.501 -364.5s-234.834 -125.5 -387.501 -125.5c-158 0 -286.5 32.167 -385.5 96.5s-174.333 157.5 -226 279.5s-77.5 253 -77.5 393c0 152.667 29.167 285.834 87.5 399.501s141.333 200 249 259
s226.167 88.5 355.5 88.5c146.667 0 270 -37.333 370 -112s169.667 -179.667 209 -315l-191 -45c-34 106.667 -83.333 184.334 -148 233.001s-146 73 -244 73c-112.667 0 -206.834 -27 -282.501 -81s-128.834 -126.5 -159.501 -217.5s-46 -184.833 -46 -281.5
c0 -124.667 18.167 -233.5 54.5 -326.5s92.833 -162.5 169.5 -208.5s159.667 -69 249 -69c108.667 0 200.667 31.333 276 94s126.333 155.667 153 279z" />
    <glyph glyph-name="D" unicode="D" horiz-adv-x="1479" 
d="M158 0v1466h505c114 0 201 -7 261 -21c84 -19.333 155.667 -54.333 215 -105c77.333 -65.333 135.166 -148.833 173.499 -250.5s57.5 -217.834 57.5 -348.501c0 -111.333 -13 -210 -39 -296s-59.333 -157.167 -100 -213.5s-85.167 -100.666 -133.5 -132.999
s-106.666 -56.833 -174.999 -73.5s-146.833 -25 -235.5 -25h-529zM352 173h313c96.667 0 172.5 9 227.5 27s98.833 43.333 131.5 76c46 46 81.833 107.833 107.5 185.5s38.5 171.834 38.5 282.501c0 153.333 -25.167 271.166 -75.5 353.499s-111.5 137.5 -183.5 165.5
c-52 20 -135.667 30 -251 30h-308v-1120z" />
    <glyph glyph-name="E" unicode="E" horiz-adv-x="1366" 
d="M162 0v1466h1060v-173h-866v-449h811v-172h-811v-499h900v-173h-1094z" />
    <glyph glyph-name="F" unicode="F" horiz-adv-x="1251" 
d="M168 0v1466h989v-173h-795v-454h688v-173h-688v-666h-194z" />
    <glyph glyph-name="G" unicode="G" horiz-adv-x="1593" 
d="M844 575l0.000976562 171.995l621 1v-544c-95.333 -76 -193.666 -133.167 -294.999 -171.5s-205.333 -57.5 -312 -57.5c-144 0 -274.833 30.833 -392.5 92.5s-206.5 150.834 -266.5 267.501s-90 247 -90 391c0 142.667 29.833 275.834 89.5 399.501
s145.5 215.5 257.5 275.5s241 90 387 90c106 0 201.833 -17.167 287.5 -51.5s152.834 -82.166 201.501 -143.499s85.667 -141.333 111 -240l-175 -48c-22 74.667 -49.333 133.334 -82 176.001s-79.334 76.834 -140.001 102.501s-128 38.5 -202 38.5
c-88.667 0 -165.334 -13.5 -230.001 -40.5s-116.834 -62.5 -156.501 -106.5s-70.5 -92.333 -92.5 -145c-37.333 -90.667 -56 -189 -56 -295c0 -130.667 22.5 -240 67.5 -328s110.5 -153.333 196.5 -196s177.333 -64 274 -64c84 0 166 16.167 246 48.5
s140.667 66.833 182 103.5v273h-431z" />
    <glyph glyph-name="H" unicode="H" horiz-adv-x="1479" 
d="M161 0v1466h194v-602h762v602h194v-1466h-194v691h-762v-691h-194z" />
    <glyph glyph-name="I" unicode="I" horiz-adv-x="569" 
d="M191 0v1466h194v-1466h-194z" />
    <glyph glyph-name="J" unicode="J" horiz-adv-x="1024" 
d="M59 416l175 24c4.66699 -112 25.667 -188.667 63 -230s89 -62 155 -62c48.667 0 90.667 11.167 126 33.5s59.666 52.666 72.999 90.999s20 99.5 20 183.5v1010h194v-999c0 -122.667 -14.833 -217.667 -44.5 -285s-76.667 -118.666 -141 -153.999s-139.833 -53 -226.5 -53
c-128.667 0 -227.167 37 -295.5 111s-101.166 184 -98.499 330z" />
    <glyph glyph-name="K" unicode="K" horiz-adv-x="1366" 
d="M150 0v1466h194v-727l728 727h263l-615 -594l642 -872h-256l-522 742l-240 -234v-508h-194z" />
    <glyph glyph-name="L" unicode="L" 
d="M150 0v1466h194v-1293h722v-173h-916z" />
    <glyph glyph-name="M" unicode="M" horiz-adv-x="1706" 
d="M152 0v1466h292l347 -1038c32 -96.667 55.333 -169 70 -217c16.667 53.333 42.667 131.666 78 234.999l351 1020h261v-1466h-187v1227l-426 -1227h-175l-424 1248v-1248h-187z" />
    <glyph glyph-name="N" unicode="N" horiz-adv-x="1479" 
d="M156 0v1466h199l770 -1151v1151h186v-1466h-199l-770 1152v-1152h-186z" />
    <glyph glyph-name="O" unicode="O" horiz-adv-x="1593" 
d="M99 714c0 243.333 65.332 433.834 195.999 571.501s299.334 206.5 506.001 206.5c135.333 0 257.333 -32.333 366 -97s191.5 -154.834 248.5 -270.501s85.5 -246.834 85.5 -393.501c0 -148.667 -30 -281.667 -90 -399s-145 -206.166 -255 -266.499
s-228.667 -90.5 -356 -90.5c-138 0 -261.333 33.333 -370 100s-191 157.667 -247 273s-84 237.333 -84 366zM298.999 711.001c0 -176.667 47.501 -315.834 142.501 -417.501s214.167 -152.5 357.5 -152.5c146 0 266.167 51.333 360.5 154s141.5 248.334 141.5 437.001
c0 119.333 -20.167 223.5 -60.5 312.5s-99.333 158 -177 207s-164.834 73.5 -261.501 73.5c-137.333 0 -255.5 -47.167 -354.5 -141.5s-148.5 -251.833 -148.5 -472.5z" />
    <glyph glyph-name="P" unicode="P" horiz-adv-x="1366" 
d="M158 0l-0.000976562 1466h553c97.333 0 171.666 -4.66699 222.999 -14c72 -12 132.333 -34.833 181 -68.5s87.834 -80.834 117.501 -141.501s44.5 -127.334 44.5 -200.001c0 -124.667 -39.667 -230.167 -119 -316.5s-222.666 -129.5 -429.999 -129.5h-376v-596h-194z
M351.999 769.002l379 -0.000976562c125.333 0 214.333 23.333 267 70s79 112.334 79 197.001c0 61.333 -15.5 113.833 -46.5 157.5s-71.833 72.5 -122.5 86.5c-32.667 8.66699 -93 13 -181 13h-375v-524z" />
    <glyph glyph-name="Q" unicode="Q" horiz-adv-x="1593" 
d="M1269 157c90 -62 173 -107.335 249 -136.002l-57 -135c-105.333 38 -210.333 98 -315 180c-108.667 -60.667 -228.667 -91 -360 -91c-132.667 0 -253 32 -361 96s-191.167 154 -249.5 270s-87.5 246.667 -87.5 392c0 144.667 29.333 276.334 88 395.001
s142.167 209 250.5 271s229.5 93 363.5 93c135.333 0 257.333 -32.167 366 -96.5s191.5 -154.333 248.5 -270s85.5 -246.167 85.5 -391.5c0 -120.667 -18.333 -229.167 -55 -325.5s-92 -180.166 -166 -251.499zM842 404.998c112 -31.333 204.335 -78.001 277.002 -140.001
c114 104 171 260.333 171 469c0 118.667 -20.167 222.334 -60.5 311.001s-99.333 157.5 -177 206.5s-164.834 73.5 -261.501 73.5c-144.667 0 -264.667 -49.5 -360 -148.5s-143 -246.833 -143 -443.5c0 -190.667 47.167 -337 141.5 -439s214.833 -153 361.5 -153
c69.333 0 134.666 13 195.999 39c-60.667 39.333 -124.667 67.333 -192 84z" />
    <glyph glyph-name="R" unicode="R" horiz-adv-x="1479" 
d="M161 0v1466h650c130.667 0 230 -13.167 298 -39.5s122.333 -72.833 163 -139.5s61 -140.334 61 -221.001c0 -104 -33.667 -191.667 -101 -263s-171.333 -116.666 -312 -135.999c51.333 -24.667 90.333 -49 117 -73c56.667 -52 110.334 -117 161.001 -195l255 -399h-244
l-194 305c-56.667 88 -103.334 155.333 -140.001 202s-69.5 79.334 -98.5 98.001s-58.5 31.667 -88.5 39c-22 4.66699 -58 7 -108 7h-225v-651h-194zM355 818.999l417 0.00195312c88.667 0 158 9.16699 208 27.5s88 47.666 114 87.999s39 84.166 39 131.499
c0 69.333 -25.167 126.333 -75.5 171s-129.833 67 -238.5 67h-464v-485z" />
    <glyph glyph-name="S" unicode="S" horiz-adv-x="1366" 
d="M92 471l182.999 16.0039c8.66699 -73.333 28.834 -133.5 60.501 -180.5s80.834 -85 147.501 -114s141.667 -43.5 225 -43.5c74 0 139.333 11 196 33s98.834 52.167 126.501 90.5s41.5 80.166 41.5 125.499c0 46 -13.333 86.167 -40 120.5s-70.667 63.166 -132 86.499
c-39.333 15.333 -126.333 39.166 -261 71.499s-229 62.833 -283 91.5c-70 36.667 -122.167 82.167 -156.5 136.5s-51.5 115.166 -51.5 182.499c0 74 21 143.167 63 207.5s103.333 113.166 184 146.499s170.334 50 269.001 50c108.667 0 204.5 -17.5 287.5 -52.5
s146.833 -86.5 191.5 -154.5s68.667 -145 72 -231l-186 -14c-10 92.667 -43.833 162.667 -101.5 210s-142.834 71 -255.501 71c-117.333 0 -202.833 -21.5 -256.5 -64.5s-80.5 -94.833 -80.5 -155.5c0 -52.667 19 -96 57 -130c37.333 -34 134.833 -68.833 292.5 -104.5
s265.834 -66.834 324.501 -93.501c85.333 -39.333 148.333 -89.166 189 -149.499s61 -129.833 61 -208.5c0 -78 -22.333 -151.5 -67 -220.5s-108.834 -122.667 -192.501 -161s-177.834 -57.5 -282.501 -57.5c-132.667 0 -243.834 19.333 -333.501 58
s-160 96.834 -211 174.501s-77.833 165.5 -80.5 263.5z" />
    <glyph glyph-name="T" unicode="T" horiz-adv-x="1251" 
d="M531 0v1293h-483v173h1162v-173h-485v-1293h-194z" />
    <glyph glyph-name="U" unicode="U" horiz-adv-x="1479" 
d="M1120 1466l193.996 -0.000976562v-847c0 -147.333 -16.667 -264.333 -50 -351s-93.5 -157.167 -180.5 -211.5s-201.167 -81.5 -342.5 -81.5c-137.333 0 -249.666 23.667 -336.999 71s-149.666 115.833 -186.999 205.5s-56 212.167 -56 367.5v847h194v-846
c0 -127.333 11.833 -221.166 35.5 -281.499s64.334 -106.833 122.001 -139.5s128.167 -49 211.5 -49c142.667 0 244.334 32.333 305.001 97s91 189 91 373v846z" />
    <glyph glyph-name="V" unicode="V" horiz-adv-x="1366" 
d="M577 0l-568.001 1466h210l381 -1065c30.667 -85.333 56.334 -165.333 77.001 -240c22.667 80 49 160 79 240l396 1065h198l-574 -1466h-199z" />
    <glyph glyph-name="W" unicode="W" horiz-adv-x="1933" 
d="M414 0l-389.001 1466h199l223 -961c24 -100.667 44.667 -200.667 62 -300c37.333 156.667 59.333 247 66 271l279 990h234l210 -742c52.667 -184 90.667 -357 114 -519c18.667 92.667 43 199 73 319l230 942h195l-402 -1466h-187l-309 1117
c-26 93.333 -41.333 150.666 -46 171.999c-15.333 -67.333 -29.666 -124.666 -42.999 -171.999l-311 -1117h-198z" />
    <glyph glyph-name="X" unicode="X" horiz-adv-x="1366" 
d="M9 0l567 764l-500 702h231l266 -376c55.333 -78 94.666 -138 117.999 -180c32.667 53.333 71.334 109 116.001 167l295 389h211l-515 -691l555 -775h-240l-369 523c-20.667 30 -42 62.667 -64 98c-32.667 -53.333 -56 -90 -70 -110l-368 -511h-233z" />
    <glyph glyph-name="Y" unicode="Y" horiz-adv-x="1366" 
d="M571 0v621.001l-565 845h236l289 -442c53.333 -82.667 103 -165.334 149 -248.001c44 76.667 97.333 163 160 259l284 431h226l-585 -845v-621h-194z" />
    <glyph glyph-name="Z" unicode="Z" horiz-adv-x="1251" 
d="M41 0v180l751 939c53.333 66.667 104 124.667 152 174h-818v173h1050v-173l-823 -1017l-89 -103h936v-173h-1159z" />
    <glyph glyph-name="bracketleft" unicode="[" horiz-adv-x="569" 
d="M139 -407v1873h397v-149h-217v-1575h217v-149h-397z" />
    <glyph glyph-name="backslash" unicode="\" horiz-adv-x="569" 
d="M425 -25l-425 1516h145l424 -1516h-144z" />
    <glyph glyph-name="bracketright" unicode="]" horiz-adv-x="569" 
d="M436 -407h-397v149h217v1575h-217v149h397v-1873z" />
    <glyph glyph-name="asciicircum" unicode="^" horiz-adv-x="961" 
d="M239 690h-185l353 801h145l355 -801h-181l-247 597z" />
    <glyph glyph-name="underscore" unicode="_" 
d="M-31 -407v130h1193v-130h-1193z" />
    <glyph glyph-name="grave" unicode="`" horiz-adv-x="682" 
d="M465 1194h-145l-231 280h241z" />
    <glyph glyph-name="a" unicode="a" 
d="M828 131c-66.667 -56.667 -130.834 -96.6699 -192.501 -120.003s-127.834 -35 -198.501 -35c-116.667 0 -206.334 28.5 -269.001 85.5s-94 129.833 -94 218.5c0 52 11.833 99.5 35.5 142.5s54.667 77.5 93 103.5s81.5 45.667 129.5 59
c35.333 9.33301 88.666 18.333 159.999 27c145.333 17.333 252.333 38 321 62c0.666992 24.667 1 40.334 1 47.001c0 73.333 -17 125 -51 155c-46 40.667 -114.333 61 -205 61c-84.667 0 -147.167 -14.833 -187.5 -44.5s-70.166 -82.167 -89.499 -157.5l-176 24
c16 75.333 42.333 136.166 79 182.499s89.667 82 159 107s149.666 37.5 240.999 37.5c90.667 0 164.334 -10.667 221.001 -32s98.334 -48.166 125.001 -80.499s45.334 -73.166 56.001 -122.499c6 -30.667 9 -86 9 -166v-240c0 -167.333 3.83301 -273.166 11.5 -317.499
s22.834 -86.833 45.501 -127.5h-188c-18.667 37.333 -30.667 81 -36 131zM813 532.997c-65.333 -26.667 -163.332 -49.333 -293.999 -68c-74 -10.667 -126.333 -22.667 -157 -36s-54.334 -32.833 -71.001 -58.5s-25 -54.167 -25 -85.5c0 -48 18.167 -88 54.5 -120
s89.5 -48 159.5 -48c69.333 0 131 15.167 185 45.5s93.667 71.833 119 124.5c19.333 40.667 29 100.667 29 180v66z" />
    <glyph glyph-name="b" unicode="b" 
d="M301 0h-167v1466h180v-523c76 95.333 173 143 291 143c65.333 0 127.166 -13.167 185.499 -39.5s106.333 -63.333 144 -111s67.167 -105.167 88.5 -172.5s32 -139.333 32 -216c0 -182 -45 -322.667 -135 -422s-198 -149 -324 -149
c-125.333 0 -223.666 52.333 -294.999 157v-133zM299 539c0 -127.333 17.332 -219.333 51.999 -276c56.667 -92.667 133.334 -139 230.001 -139c78.667 0 146.667 34.167 204 102.5s86 170.166 86 305.499c0 138.667 -27.5 241 -82.5 307s-121.5 99 -199.5 99
c-78.667 0 -146.667 -34.167 -204 -102.5s-86 -167.166 -86 -296.499z" />
    <glyph glyph-name="c" unicode="c" horiz-adv-x="1024" 
d="M828 389l177.001 -23c-19.333 -122 -68.833 -217.5 -148.5 -286.5s-177.5 -103.5 -293.5 -103.5c-145.333 0 -262.166 47.5 -350.499 142.5s-132.5 231.167 -132.5 408.5c0 114.667 19 215 57 301s95.833 150.5 173.5 193.5s162.167 64.5 253.5 64.5
c115.333 0 209.666 -29.167 282.999 -87.5s120.333 -141.166 141 -248.499l-175 -27c-16.667 71.333 -46.167 125 -88.5 161s-93.5 54 -153.5 54c-90.667 0 -164.334 -32.5 -221.001 -97.5s-85 -167.833 -85 -308.5c0 -142.667 27.333 -246.334 82 -311.001s126 -97 214 -97
c70.667 0 129.667 21.667 177 65s77.333 110 90 200z" />
    <glyph glyph-name="d" unicode="d" 
d="M824 0v133.998c-67.333 -105.333 -166.333 -158 -297 -158c-84.667 0 -162.5 23.333 -233.5 70s-126 111.834 -165 195.501s-58.5 179.834 -58.5 288.501c0 106 17.667 202.167 53 288.5s88.333 152.5 159 198.5s149.667 69 237 69c64 0 121 -13.5 171 -40.5
s90.667 -62.167 122 -105.5v526h179v-1466h-167zM255 529.998c0 -136 28.667 -237.667 86 -305s125 -101 203 -101c78.667 0 145.5 32.167 200.5 96.5s82.5 162.5 82.5 294.5c0 145.333 -28 252 -84 320s-125 102 -207 102c-80 0 -146.833 -32.667 -200.5 -98
s-80.5 -168.333 -80.5 -309z" />
    <glyph glyph-name="e" unicode="e" 
d="M862 342l185.998 -23.002c-29.333 -108.667 -83.666 -193 -162.999 -253s-180.666 -90 -303.999 -90c-155.333 0 -278.5 47.833 -369.5 143.5s-136.5 229.834 -136.5 402.501c0 178.667 46 317.334 138 416.001s211.333 148 358 148c142 0 258 -48.333 348 -145
s135 -232.667 135 -408c0 -10.667 -0.333008 -26.667 -1 -48h-792c6.66699 -116.667 39.667 -206 99 -268s133.333 -93 222 -93c66 0 122.333 17.333 169 52s83.667 90 111 166zM270.998 632.998h592.999c-8 89.333 -30.667 156.333 -68 201
c-57.333 69.333 -131.666 104 -222.999 104c-82.667 0 -152.167 -27.667 -208.5 -83s-87.5 -129.333 -93.5 -222z" />
    <glyph glyph-name="f" unicode="f" horiz-adv-x="569" 
d="M178 0l-0.000976562 922h-159v140h159v113c0 71.333 6.33301 124.333 19 159c17.333 46.667 47.833 84.5 91.5 113.5s104.834 43.5 183.501 43.5c50.667 0 106.667 -6 168 -18l-27 -157c-37.333 6.66699 -72.666 10 -105.999 10c-54.667 0 -93.334 -11.667 -116.001 -35
s-34 -67 -34 -131v-98h207v-140h-207v-922h-179z" />
    <glyph glyph-name="g" unicode="g" 
d="M102 -88l175.003 -26c7.33301 -54 27.666 -93.333 60.999 -118c44.667 -33.333 105.667 -50 183 -50c83.333 0 147.666 16.667 192.999 50s76 80 92 140c9.33301 36.667 13.666 113.667 12.999 231c-78.667 -92.667 -176.667 -139 -294 -139c-146 0 -259 52.667 -339 158
s-120 231.666 -120 378.999c0 101.333 18.333 194.833 55 280.5s89.834 151.834 159.501 198.501s151.5 70 245.5 70c125.333 0 228.666 -50.667 309.999 -152v128h166v-918c0 -165.333 -16.833 -282.5 -50.5 -351.5s-87 -123.5 -160 -163.5s-162.833 -60 -269.5 -60
c-126.667 0 -229 28.5 -307 85.5s-115.667 142.833 -113 257.5zM251.003 550c0 -139.333 27.668 -241 83.001 -305s124.666 -96 207.999 -96c82.667 0 152 31.833 208 95.5s84 163.5 84 299.5c0 130 -28.833 228 -86.5 294s-127.167 99 -208.5 99
c-80 0 -148 -32.5 -204 -97.5s-84 -161.5 -84 -289.5z" />
    <glyph glyph-name="h" unicode="h" 
d="M135 0v1466h180v-526c84 97.333 190 146 318 146c78.667 0 147 -15.5 205 -46.5s99.5 -73.833 124.5 -128.5s37.5 -134 37.5 -238v-673h-180v673c0 90 -19.5 155.5 -58.5 196.5s-94.167 61.5 -165.5 61.5c-53.333 0 -103.5 -13.833 -150.5 -41.5
s-80.5 -65.167 -100.5 -112.5s-30 -112.666 -30 -195.999v-581h-180z" />
    <glyph glyph-name="i" unicode="i" horiz-adv-x="455" 
d="M136 1259v207h180v-207h-180zM136 0v1062h180v-1062h-180z" />
    <glyph glyph-name="j" unicode="j" horiz-adv-x="455" 
d="M134 1257v209h180v-209h-180zM-94 -412l34 153.001c36 -9.33301 64.333 -14 85 -14c36.667 0 64 12.167 82 36.5s27 85.166 27 182.499v1116h180v-1120c0 -130.667 -17 -221.667 -51 -273c-43.333 -66.667 -115.333 -100 -216 -100c-48.667 0 -95.667 6.33301 -141 19z
" />
    <glyph glyph-name="k" unicode="k" horiz-adv-x="1024" 
d="M136 0v1466h180v-836l426 432h233l-406 -394l447 -668h-222l-351 543l-127 -122v-421h-180z" />
    <glyph glyph-name="l" unicode="l" horiz-adv-x="455" 
d="M131 0v1466h180v-1466h-180z" />
    <glyph glyph-name="m" unicode="m" horiz-adv-x="1706" 
d="M135 0l0.00195312 1062h161v-149c33.333 52 77.666 93.833 132.999 125.5s118.333 47.5 189 47.5c78.667 0 143.167 -16.333 193.5 -49s85.833 -78.334 106.5 -137.001c84 124 193.333 186 328 186c105.333 0 186.333 -29.167 243 -87.5s85 -148.166 85 -269.499v-729
h-179v669c0 72 -5.83301 123.833 -17.5 155.5s-32.834 57.167 -63.501 76.5s-66.667 29 -108 29c-74.667 0 -136.667 -24.833 -186 -74.5s-74 -129.167 -74 -238.5v-617h-180v690c0 80 -14.667 140 -44 180s-77.333 60 -144 60c-50.667 0 -97.5 -13.333 -140.5 -40
s-74.167 -65.667 -93.5 -117s-29 -125.333 -29 -222v-551h-180z" />
    <glyph glyph-name="n" unicode="n" 
d="M135 0l-0.000976562 1062h162v-151c78 116.667 190.667 175 338 175c64 0 122.833 -11.5 176.5 -34.5s93.834 -53.167 120.501 -90.5s45.334 -81.666 56.001 -132.999c6.66699 -33.333 10 -91.666 10 -174.999v-653h-180v646c0 73.333 -7 128.166 -21 164.499
s-38.833 65.333 -74.5 87s-77.5 32.5 -125.5 32.5c-76.667 0 -142.834 -24.333 -198.501 -73s-83.5 -141 -83.5 -277v-580h-180z" />
    <glyph glyph-name="o" unicode="o" 
d="M68 531c0 196.667 54.6689 342.334 164.002 437.001c91.333 78.667 202.666 118 333.999 118c146 0 265.333 -47.833 358 -143.5s139 -227.834 139 -396.501c0 -136.667 -20.5 -244.167 -61.5 -322.5s-100.667 -139.166 -179 -182.499s-163.833 -65 -256.5 -65
c-148.667 0 -268.834 47.667 -360.501 143s-137.5 232.666 -137.5 411.999zM253.002 531c0 -136 29.6689 -237.833 89.002 -305.5s134 -101.5 224 -101.5c89.333 0 163.666 34 222.999 102s89 171.667 89 311c0 131.333 -29.833 230.833 -89.5 298.5
s-133.834 101.5 -222.501 101.5c-90 0 -164.667 -33.667 -224 -101s-89 -169 -89 -305z" />
    <glyph glyph-name="p" unicode="p" 
d="M135 -407l0.000976562 1469h164v-138c38.667 54 82.334 94.5 131.001 121.5s107.667 40.5 177 40.5c90.667 0 170.667 -23.333 240 -70s121.666 -112.5 156.999 -197.5s53 -178.167 53 -279.5c0 -108.667 -19.5 -206.5 -58.5 -293.5s-95.667 -153.667 -170 -200
s-152.5 -69.5 -234.5 -69.5c-60 0 -113.833 12.667 -161.5 38s-86.834 57.333 -117.501 96v-517h-180zM298.001 525c0 -136.667 27.667 -237.665 83 -302.998s122.333 -98 201 -98c80 0 148.5 33.833 205.5 101.5s85.5 172.5 85.5 314.5
c0 135.333 -27.833 236.666 -83.5 303.999s-122.167 101 -199.5 101c-76.667 0 -144.5 -35.833 -203.5 -107.5s-88.5 -175.834 -88.5 -312.501z" />
    <glyph glyph-name="q" unicode="q" 
d="M812 -407l0.000976562 519.998c-28 -39.333 -67.167 -72 -117.5 -98s-103.833 -39 -160.5 -39c-126 0 -234.5 50.333 -325.5 151s-136.5 238.667 -136.5 414c0 106.667 18.5 202.334 55.5 287.001s90.667 148.834 161 192.501s147.5 65.5 231.5 65.5
c131.333 0 234.666 -55.333 309.999 -166v142h162v-1469h-180zM257.001 533.998c0 -136.667 28.667 -239.166 86 -307.499s126 -102.5 206 -102.5c76.667 0 142.667 32.5 198 97.5s83 163.833 83 296.5c0 141.333 -29.167 247.666 -87.5 318.999s-126.833 107 -205.5 107
c-78 0 -144.167 -33.167 -198.5 -99.5s-81.5 -169.833 -81.5 -310.5z" />
    <glyph glyph-name="r" unicode="r" horiz-adv-x="682" 
d="M133 0l-0.00292969 1062h162v-161c41.333 75.333 79.5 125 114.5 149s73.5 36 115.5 36c60.667 0 122.334 -19.333 185.001 -58l-62 -167c-44 26 -88 39 -132 39c-39.333 0 -74.666 -11.833 -105.999 -35.5s-53.666 -56.5 -66.999 -98.5c-20 -64 -30 -134 -30 -210v-556
h-180z" />
    <glyph glyph-name="s" unicode="s" horiz-adv-x="1024" 
d="M63 317l178.002 28c10 -71.333 37.833 -126 83.5 -164s109.5 -57 191.5 -57c82.667 0 144 16.833 184 50.5s60 73.167 60 118.5c0 40.667 -17.667 72.667 -53 96c-24.667 16 -86 36.333 -184 61c-132 33.333 -223.5 62.166 -274.5 86.499s-89.667 58 -116 101
s-39.5 90.5 -39.5 142.5c0 47.333 10.833 91.166 32.5 131.499s51.167 73.833 88.5 100.5c28 20.667 66.167 38.167 114.5 52.5s100.166 21.5 155.499 21.5c83.333 0 156.5 -12 219.5 -36s109.5 -56.5 139.5 -97.5s50.667 -95.833 62 -164.5l-176 -24
c-8 54.667 -31.167 97.334 -69.5 128.001s-92.5 46 -162.5 46c-82.667 0 -141.667 -13.667 -177 -41s-53 -59.333 -53 -96c0 -23.333 7.33301 -44.333 22 -63c14.667 -19.333 37.667 -35.333 69 -48c18 -6.66699 71 -22 159 -46c127.333 -34 216.166 -61.833 266.499 -83.5
s89.833 -53.167 118.5 -94.5s43 -92.666 43 -153.999c0 -60 -17.5 -116.5 -52.5 -169.5s-85.5 -94 -151.5 -123s-140.667 -43.5 -224 -43.5c-138 0 -243.167 28.667 -315.5 86s-118.5 142.333 -138.5 255z" />
    <glyph glyph-name="t" unicode="t" horiz-adv-x="569" 
d="M528 161l26.001 -159c-50.667 -10.667 -96 -16 -136 -16c-65.333 0 -116 10.333 -152 31s-61.333 47.834 -76 81.501s-22 104.5 -22 212.5v611h-132v140h132v263l179 108v-371h181v-140h-181v-621c0 -51.333 3.16699 -84.333 9.5 -99s16.666 -26.334 30.999 -35.001
s34.833 -13 61.5 -13c20 0 46.333 2.33301 79 7z" />
    <glyph glyph-name="u" unicode="u" 
d="M831 0l-0.000976562 155.998c-82.667 -120 -195 -180 -337 -180c-62.667 0 -121.167 12 -175.5 36s-94.666 54.167 -120.999 90.5s-44.833 80.833 -55.5 133.5c-7.33301 35.333 -11 91.333 -11 168v658h180v-589c0 -94 3.66699 -157.333 11 -190
c11.333 -47.333 35.333 -84.5 72 -111.5s82 -40.5 136 -40.5s104.667 13.833 152 41.5s80.833 65.334 100.5 113.001s29.5 116.834 29.5 207.501v569h180v-1062h-161z" />
    <glyph glyph-name="v" unicode="v" horiz-adv-x="1024" 
d="M430 0l-404.001 1062h190l228 -636c24.667 -68.667 47.334 -140 68.001 -214c16 56 38.333 123.333 67 202l236 648h185l-402 -1062h-168z" />
    <glyph glyph-name="w" unicode="w" horiz-adv-x="1479" 
d="M331 0l-325 1062h186l169 -613l63 -228c2.66699 11.333 21 84.333 55 219l169 622h185l159 -616l53 -203l61 205l182 614h175l-332 -1062h-187l-169 636l-41 181l-215 -817h-188z" />
    <glyph glyph-name="x" unicode="x" horiz-adv-x="1024" 
d="M15 0l387.999 552l-359 510h225l163 -249c30.667 -47.333 55.334 -87 74.001 -119l81 117l179 251h215l-367 -500l395 -562h-221l-218 330l-58 89l-279 -419h-218z" />
    <glyph glyph-name="y" unicode="y" horiz-adv-x="1024" 
d="M127 -409l-19.999 168.999c39.333 -10.667 73.666 -16 102.999 -16c40 0 72 6.66699 96 20s43.667 32 59 56c11.333 18 29.666 62.667 54.999 134c3.33301 10 8.66602 24.667 15.999 44l-403 1064h194l221 -615c28.667 -78 54.334 -160 77.001 -246
c20.667 82.667 45.334 163.334 74.001 242.001l227 619h180l-404 -1080c-43.333 -116.667 -77 -197 -101 -241c-32 -59.333 -68.667 -102.833 -110 -130.5s-90.666 -41.5 -147.999 -41.5c-34.667 0 -73.334 7.33301 -116.001 22z" />
    <glyph glyph-name="z" unicode="z" horiz-adv-x="1024" 
d="M40 0v146l676 776c-76.667 -4 -144.334 -6 -203.001 -6h-433v146h868v-119l-575 -674l-111 -123c80.667 6 156.334 9 227.001 9h491v-155h-940z" />
    <glyph glyph-name="braceleft" unicode="{" horiz-adv-x="684" 
d="M57 612c51.333 1.33301 93.166 15.1689 125.499 41.502s53.833 62.5 64.5 108.5s16.334 124.667 17.001 236s2.66699 184.666 6 219.999c6 56 17.167 101 33.5 135s36.5 61.167 60.5 81.5s54.667 35.833 92 46.5c25.333 6.66699 66.666 10 123.999 10h56v-157h-31
c-69.333 0 -115.333 -12.5 -138 -37.5s-34 -80.833 -34 -167.5c0 -174.667 -3.66699 -285 -11 -331c-12 -71.333 -32.5 -126.333 -61.5 -165s-74.5 -73 -136.5 -103c73.333 -30.667 126.5 -77.5 159.5 -140.5s49.5 -166.167 49.5 -309.5c0 -130 1.33301 -207.333 4 -232
c5.33301 -45.333 18.833 -77 40.5 -95s64.167 -27 127.5 -27h31v-157h-56c-65.333 0 -112.666 5.33301 -141.999 16c-42.667 15.333 -78 40.166 -106 74.499s-46.167 77.833 -54.5 130.5s-12.833 139 -13.5 259s-6.33398 203 -17.001 249s-32.167 82.333 -64.5 109
s-74.166 40.667 -125.499 42v163z" />
    <glyph glyph-name="bar" unicode="|" horiz-adv-x="532" 
d="M188 -431v1922h157v-1922h-157z" />
    <glyph glyph-name="braceright" unicode="}" horiz-adv-x="684" 
d="M626 612l0.000976562 -162.997c-51.333 -1.33301 -93.166 -15.333 -125.499 -42s-53.833 -62.834 -64.5 -108.501s-16.334 -124.167 -17.001 -235.5s-2.66699 -184.666 -6 -219.999c-6 -56.667 -17.167 -101.834 -33.5 -135.501s-36.5 -60.667 -60.5 -81
s-54.667 -35.833 -92 -46.5c-25.333 -7.33301 -66.666 -11 -123.999 -11h-56v157h31c69.333 0 115.333 12.5 138 37.5s34 81.167 34 168.5c0 166.667 3 272.334 9 317.001c10.667 74 32 133.167 64 177.5s77.333 78.833 136 103.5
c-76.667 36.667 -130.667 85.167 -162 145.5s-47 162.166 -47 305.499c0 130 -1.66699 207.667 -5 233c-4.66699 44.667 -17.834 75.834 -39.501 93.501s-64.167 26.5 -127.5 26.5h-31v157h56c65.333 0 112.666 -5.33301 141.999 -16c42.667 -14.667 78 -39.334 106 -74.001
s46.167 -78.334 54.5 -131.001s12.833 -139 13.5 -259s6.33398 -202.833 17.001 -248.5s32.167 -81.834 64.5 -108.501s74.166 -40.667 125.499 -42z" />
    <glyph glyph-name="asciitilde" unicode="~" horiz-adv-x="1196" 
d="M87 557l0.00292969 205.002c70.667 80 163.334 120 278.001 120c40 0 82 -5.83301 126 -17.5s106.667 -34.834 188 -69.501c46 -19.333 80.5 -32 103.5 -38s46.167 -9 69.5 -9c43.333 0 88.166 13 134.499 39s87.5 58.667 123.5 98v-212
c-42.667 -40 -85.834 -69 -129.501 -87s-92.834 -27 -147.501 -27c-40 0 -78.167 4.66699 -114.5 14s-94 31.666 -173 66.999s-144.833 53 -197.5 53c-42.667 0 -82.834 -9.16699 -120.501 -27.5s-84.5 -54.5 -140.5 -108.5z" />
    <glyph glyph-name="currency" unicode="&#xa4;" 
d="M213 961l-139 136l115 119l139 -139c70.667 48 149.667 72 237 72c88 0 167 -24 237 -72l139 139l116 -119l-139 -136c47.333 -73.333 71 -151.666 71 -234.999c0 -84 -23.667 -162.667 -71 -236l139 -136l-116 -119l-139 140c-70 -48.667 -149 -73 -237 -73
c-87.333 0 -166.333 24.333 -237 73l-139 -140l-115 119l139 136c-47.333 73.333 -71 152 -71 236c0 83.333 23.667 161.666 71 234.999zM305 726c0 -72 25.333 -133.333 76 -184s111.667 -76 183 -76s132.333 25.333 183 76s76 112 76 184
c0 71.333 -25.167 132.333 -75.5 183s-111.5 76 -183.5 76c-71.333 0 -132.333 -25.333 -183 -76s-76 -111.667 -76 -183z" />
    <glyph glyph-name="brokenbar" unicode="&#xa6;" horiz-adv-x="532" 
d="M345 1491v-790h-157v790h157zM345 360v-791h-157v791h157z" />
    <glyph glyph-name="section" unicode="&#xa7;" 
d="M143 -70l181 25.999c18.667 -86.667 48.334 -147.5 89.001 -182.5s96 -52.5 166 -52.5c68 0 121.167 17.333 159.5 52s57.5 75.334 57.5 122.001c0 34 -12 65.333 -36 94c-41.333 50 -154.666 131.667 -339.999 245c-98.667 60.667 -167.5 108.167 -206.5 142.5
s-70.833 74.833 -95.5 121.5s-37 95.334 -37 146.001c0 64 20 122 60 174s95 88.333 165 109c-47.333 45.333 -80.666 87.166 -99.999 125.499s-29 79.166 -29 122.499c0 85.333 33.333 159.333 100 222s155 94 265 94c124.667 0 222 -29.667 292 -89s112 -145.333 126 -258
l-187 -19c-14 81.333 -38.5 138 -73.5 170s-82.167 48 -141.5 48c-61.333 0 -110.833 -16.5 -148.5 -49.5s-56.5 -69.5 -56.5 -109.5c0 -34.667 12 -66.667 36 -96c37.333 -45.333 139.333 -118.666 306 -219.999c104.667 -64 175.334 -111 212.001 -141
c47.333 -40 82.166 -81.333 104.499 -124s33.5 -89 33.5 -139c0 -75.333 -24.333 -139.666 -73 -192.999c-28 -30.667 -79.333 -61.667 -154 -93c53.333 -40.667 93.166 -84.334 119.499 -131.001s39.5 -96.667 39.5 -150c0 -58.667 -16.667 -114.167 -50 -166.5
s-81.333 -92.333 -144 -120s-130.334 -41.5 -203.001 -41.5c-127.333 0 -228.333 31.833 -303 95.5s-119.334 152.167 -134.001 265.5zM728 243.999c49.333 25.333 86.167 54.834 110.5 88.501s36.5 66.5 36.5 98.5c0 38 -17.333 78 -52 120
c-35.333 42 -110.333 98.333 -225 169c-91.333 56 -159.333 102 -204 138c-54 -30.667 -92.5 -61.334 -115.5 -92.001s-34.5 -64.667 -34.5 -102c0 -42 15.333 -82 46 -120s99.667 -88.667 207 -152c89.333 -52.667 166.333 -102 231 -148z" />
    <glyph glyph-name="copyright" unicode="&#xa9;" horiz-adv-x="1509" 
d="M758 1491c126.667 0 250.334 -32.5 371.001 -97.5s214.667 -158 282 -279s101 -247.167 101 -378.5c0 -130 -33.167 -255 -99.5 -375s-159.333 -213.167 -279 -279.5s-244.834 -99.5 -375.501 -99.5s-255.834 33.167 -375.501 99.5s-212.834 159.5 -279.501 279.5
s-100 245 -100 375c0 131.333 33.833 257.5 101.5 378.5s161.834 214 282.501 279s244.334 97.5 371.001 97.5zM758 1366c-106 0 -209.167 -27.167 -309.5 -81.5s-178.833 -132 -235.5 -233s-85 -206.167 -85 -315.5c0 -108.667 27.833 -212.834 83.5 -312.501
s133.5 -177.334 233.5 -233.001s204.333 -83.5 313 -83.5s213 27.833 313 83.5s177.667 133.334 233 233.001s83 203.834 83 312.501c0 109.333 -28.167 214.5 -84.5 315.5s-134.833 178.667 -235.5 233s-203.667 81.5 -309 81.5zM1000 614l122.999 -35.999
c-20 -83.333 -62.5 -149.833 -127.5 -199.5s-143.833 -74.5 -236.5 -74.5c-117.333 0 -212.666 38 -285.999 114s-110 181.333 -110 316c0 88 16.667 164.5 50 229.5s80.833 114 142.5 147s132.167 49.5 211.5 49.5c88.667 0 162.334 -21.167 221.001 -63.5
s98.667 -99.833 120 -172.5l-119 -29c-20 49.333 -49.5 87.166 -88.5 113.499s-84.833 39.5 -137.5 39.5c-76.667 0 -139.834 -27.333 -189.501 -82s-74.5 -133 -74.5 -235s23.5 -179.167 70.5 -231.5s107.833 -78.5 182.5 -78.5c60 0 112.667 17.333 158 52
s75.333 81.667 90 141z" />
    <glyph glyph-name="guillemotleft" unicode="&#xab;" 
d="M340 528l259 -456h-146l-319 456l319 456h148zM727 528l264 -456h-152l-313 456l313 456h152z" />
    <glyph glyph-name="logicalnot" unicode="&#xac;" horiz-adv-x="1196" 
d="M1082 424h-170v438h-798v168h968v-606z" />
    <glyph glyph-name="registered" unicode="&#xae;" horiz-adv-x="1509" 
d="M758 1491c126.667 0 250.334 -32.5 371.001 -97.5s214.667 -158 282 -279s101 -247.167 101 -378.5c0 -130 -33.167 -255 -99.5 -375s-159.333 -213.167 -279 -279.5s-244.834 -99.5 -375.501 -99.5s-255.834 33.167 -375.501 99.5s-212.834 159.5 -279.501 279.5
s-100 245 -100 375c0 131.333 33.833 257.5 101.5 378.5s161.834 214 282.501 279s244.334 97.5 371.001 97.5zM758 1366c-106 0 -209.167 -27.167 -309.5 -81.5s-178.833 -132 -235.5 -233s-85 -206.167 -85 -315.5c0 -108.667 27.833 -212.834 83.5 -312.501
s133.5 -177.334 233.5 -233.001s204.333 -83.5 313 -83.5s213 27.833 313 83.5s177.667 133.334 233 233.001s83 203.834 83 312.501c0 109.333 -28.167 214.5 -84.5 315.5s-134.833 178.667 -235.5 233s-203.667 81.5 -309 81.5zM427 319l0.000976562 812h279
c95.333 0 164.333 -7.5 207 -22.5s76.667 -41.167 102 -78.5s38 -77 38 -119c0 -59.333 -21.167 -111 -63.5 -155s-98.5 -68.667 -168.5 -74c28.667 -12 51.667 -26.333 69 -43c32.667 -32 72.667 -85.667 120 -161l99 -159h-160l-72 128
c-56.667 100.667 -102.334 163.667 -137.001 189c-24 18.667 -59 28 -105 28h-77v-345h-131zM558.001 776h159c76 0 127.833 11.333 155.5 34s41.5 52.667 41.5 90c0 24 -6.66699 45.5 -20 64.5s-31.833 33.167 -55.5 42.5s-67.5 14 -131.5 14h-149v-245z" />
    <glyph glyph-name="macron" unicode="&#xaf;" horiz-adv-x="1131" 
d="M-31 1566v129h1193v-129h-1193z" />
    <glyph glyph-name="degree" unicode="&#xb0;" horiz-adv-x="819" 
d="M128 1214c0 76.667 27.167 142 81.5 196s119.5 81 195.5 81c77.333 0 143 -27 197 -81s81 -119.333 81 -196s-27.167 -142.167 -81.5 -196.5s-119.833 -81.5 -196.5 -81.5c-76 0 -141.167 27 -195.5 81s-81.5 119.667 -81.5 197zM237 1214
c0 -46.667 16.5 -86.5 49.5 -119.5s72.833 -49.5 119.5 -49.5c46 0 85.5 16.5 118.5 49.5s49.5 72.833 49.5 119.5s-16.5 86.5 -49.5 119.5s-72.5 49.5 -118.5 49.5c-46.667 0 -86.5 -16.5 -119.5 -49.5s-49.5 -72.833 -49.5 -119.5z" />
    <glyph glyph-name="plusminus" unicode="&#xb1;" horiz-adv-x="1124" 
d="M477 260v403h-399v167h399v399h170v-399h399v-167h-399v-403h-170zM1046 0h-968v168h968v-168z" />
    <glyph glyph-name="acute" unicode="&#xb4;" horiz-adv-x="682" 
d="M222 1194l133 280h236l-220 -280h-149z" />
    <glyph glyph-name="paragraph" unicode="&#xb6;" horiz-adv-x="1100" 
d="M405 -407v1045c-124.667 6.66699 -223.167 47.167 -295.5 121.5s-108.5 169.166 -108.5 284.499c0 128.667 40.167 231.167 120.5 307.5s197.833 114.5 352.5 114.5h633v-173h-144v-1700h-170v1700h-223v-1700h-165z" />
    <glyph glyph-name="periodcentered" unicode="&#xb7;" horiz-adv-x="682" 
d="M497 637v205h205v-205h-205z" />
    <glyph glyph-name="ordmasculine" unicode="&#xba;" horiz-adv-x="748" 
d="M373 1491c96.667 0 175.499 -33.332 236.499 -99.999s91.5 -158.667 91.5 -276c0 -116.667 -30.667 -208.334 -92 -275.001s-139.666 -100 -234.999 -100c-96.667 0 -175.667 32.667 -237 98s-92 156.333 -92 273c0 120 30.5 213.333 91.5 280s139.833 100 236.5 100z
M372.999 1358c-54 0 -97.499 -19 -130.499 -57s-49.5 -100 -49.5 -186c0 -84 16.833 -145.5 50.5 -184.5s76.834 -58.5 129.501 -58.5c53.333 0 96.666 19.5 129.999 58.5s50 102.167 50 189.5c0 81.333 -16.833 141.333 -50.5 180s-76.834 58 -129.501 58z" />
    <glyph glyph-name="guillemotright" unicode="&#xbb;" 
d="M791 528l-261 456h148l319 -456l-319 -456h-147zM404 528l-264 456h151l314 -456l-314 -456h-151z" />
    <glyph glyph-name="tilde" unicode="&#x2dc;" horiz-adv-x="682" 
d="M7 1219c-0.666992 69.333 18.3369 124.666 57.0039 165.999c38 41.333 86.667 62 146 62c41.333 0 97.666 -18 168.999 -54c39.333 -20 70.666 -30 93.999 -30c21.333 0 37.666 5.83301 48.999 17.5s19.333 34.834 24 69.501h130c-2 -76 -21.167 -133 -57.5 -171
s-82.5 -57 -138.5 -57c-42 0 -97.333 18.667 -166 56c-44.667 24 -77.334 36 -98.001 36c-22.667 0 -41 -8 -55 -24c-14.667 -16 -21.667 -39.667 -21 -71h-133z" />
    <glyph glyph-name="uni10A0" unicode="&#x10a0;" horiz-adv-x="997" 
d="M912 600c0 -400 -137.333 -600.001 -412 -600.001c-276.667 0 -415 185 -415 555v129h186v-125c0 -260.667 76.333 -391 229 -391c151.333 0 227 144 227 432c0 171.333 -65.167 320.833 -195.5 448.5s-196.5 290.167 -198.5 487.5h178
c8 -171.333 76.833 -323.666 206.5 -456.999s194.5 -293 194.5 -479z" />
    <glyph glyph-name="uni10A1" unicode="&#x10a1;" horiz-adv-x="999" 
d="M726 512c0 178.667 -73.667 270.334 -221 275.001c-154 -4.66699 -231 -96.334 -231 -275.001c0 -229.333 76 -344 228 -344c149.333 0 224 114.667 224 344zM914 512c0 -341.333 -137.666 -512.001 -412.999 -512.001c-277.333 0 -415 170.667 -413 512
c0 230 109 376 327 438c77.333 74 123 166 137 276c-14 92 -107.667 138 -281 138v-252h-159v422h151c283.333 1.33301 437.666 -84.667 462.999 -258c2 -143.333 -43 -252.666 -135 -327.999c215.333 -60.667 323 -206 323 -436z" />
    <glyph glyph-name="uni10A2" unicode="&#x10a2;" horiz-adv-x="1156" 
d="M886 455c0 196.667 -99.999 294.999 -299.999 294.999c-210.667 -3.33301 -315.334 -99.666 -314.001 -288.999c-1.33301 -195.333 102.667 -293 312 -293c201.333 0 302 95.667 302 287zM1071 460.999c0 -307.333 -162.999 -461.665 -488.999 -462.998
c-331.333 1.33301 -495.333 155.666 -492 462.999c-3.33301 264 127 415.333 391 454c2 41.333 46.5 84.666 133.5 129.999s130.5 94.333 130.5 147c-4.66699 115.333 -58.334 172 -161.001 170c-110.667 2 -166 -34.333 -166 -109v-112h-185v112
c1.33301 187.333 118.333 281 351 281c226.667 1.33301 340 -112.667 340 -342c-0.666992 -68.667 -38.5 -127.167 -113.5 -175.5s-112.5 -84.833 -112.5 -109.5c248.667 -33.333 373 -182 373 -446z" />
    <glyph glyph-name="uni10A3" unicode="&#x10a3;" horiz-adv-x="1638" 
d="M1367 976c0 259.333 -76 389 -228 389s-228 -129.667 -228 -389c0 -241.333 76 -362 228 -362s228 120.667 228 362zM1293 0h-186.002c-681.333 0 -1022 338.667 -1022 1016c26.667 346.667 164.334 520 413.001 520c152 0 259.333 -57 322 -171
c60.667 114 167 171 319 171c274.667 0 412 -186.667 412 -560v-4c1.33301 -353.333 -136 -530 -412 -530c-275.333 0 -411.666 176 -408.999 528c-2.66699 263.333 -80 395 -232 395s-228 -116.333 -228 -349c0 -565.333 279.667 -848 839 -848h184v-168z" />
    <glyph glyph-name="uni10A4" unicode="&#x10a4;" horiz-adv-x="996" 
d="M911 430c0 -286.667 -138.668 -430.667 -416.001 -432c-272 1.33301 -408.667 145.333 -410 432v81h185v-81c-0.666992 -174.667 75.333 -262 228 -262c152 0 228 87.333 228 262v683c0 168.667 -77 253 -231 253c-150 -0.666992 -225.333 -72.667 -226 -216
c0.666992 -78.667 42.334 -126 125.001 -142v-181c-204.667 20 -307 130 -307 330c-1.33301 252.667 135.667 379 411 379s413 -141 413 -423v-683z" />
    <glyph glyph-name="uni10A5" unicode="&#x10a5;" horiz-adv-x="996" 
d="M911 430c0 -286.667 -137.666 -430 -412.999 -430s-413 143.333 -413 430v211h185v-211c-0.666992 -174.667 75.333 -262 228 -262c152 0 228 87.333 228 262v82c0 135.333 -67.333 205 -202 209h-153v168h153c134.667 19.333 202 104 202 254
c0 148 -76.667 221 -230 219c-151.333 2 -227 -81 -227 -249v-99h-183v99c-0.666992 282 136.666 423 411.999 423s413 -130 413 -390c0 -136.667 -58.667 -247 -176 -331c117.333 -50 176 -151 176 -303v-82z" />
    <glyph glyph-name="uni10A6" unicode="&#x10a6;" horiz-adv-x="1209" 
d="M1124 512c0 -341.333 -151.335 -512 -454.002 -512c-291.333 0 -439.666 167.667 -444.999 503c6.66699 153.333 38 245.666 94 276.999c-173.333 28 -264.666 149 -273.999 363c8 238 129.667 369 365 393c249.333 -24 379.333 -151.667 390 -383
c0 -74 -19.667 -138.667 -59 -194c66 8.66699 146.333 -23.666 241 -96.999s142 -190 142 -350zM925.998 512c0 185.333 -82.667 282.333 -248 291c-178.667 -0.666992 -268 -97.667 -268 -291c0 -229.333 86.667 -344 260 -344c170.667 0 256 114.667 256 344z
M619.998 1150c-4.66699 130 -74.668 201.666 -210.001 214.999c-113.333 -15.333 -176 -87 -188 -215c8.66699 -136 71.334 -212.667 188.001 -230c133.333 8.66699 203.333 85.334 210 230.001z" />
    <glyph glyph-name="uni10A7" unicode="&#x10a7;" horiz-adv-x="1638" 
d="M726 512v549c0 202.667 -76 304 -228 304s-228 -101.333 -228 -304v-549c0 -229.333 76 -344 228 -344s228 114.667 228 344zM1553 1061l-0.000976562 -549c0 -348 -148 -518.667 -444 -512v168c172 0 258 114.667 258 344v549c0 202.667 -86 304 -258 304
c-132 0 -198 -101.333 -198 -304v-549c0 -341.333 -140 -512 -420 -512c-270.667 0 -406 170.667 -406 512v549c0 316.667 137.667 475 413 475c180.667 0 286.334 -74 317.001 -222c29.333 148 127.333 222 294 222c296 0 444 -158.333 444 -475z" />
    <glyph glyph-name="uni10A8" unicode="&#x10a8;" horiz-adv-x="996" 
d="M911 1061v-549c0 -303.333 -110 -474 -330 -512v168c96.667 21.333 145 136 145 344v549c0 202.667 -76 304 -228 304s-228 -101.333 -228 -304v-549c0 -208 50.333 -322.667 151 -344v-168c-224 39.333 -336 210 -336 512v549c0 316.667 137.667 475 413 475
s413 -158.333 413 -475z" />
    <glyph glyph-name="uni10A9" unicode="&#x10a9;" horiz-adv-x="996" 
d="M911 430c0 -286.667 -137.667 -430 -413 -430s-413 143.333 -413 430v81h185v-81c-0.666992 -174.667 75.333 -262 228 -262c152 0 228 87.333 228 262v82c0 135.333 -67.333 205 -202 209h-153v168h153c134.667 19.333 202 104 202 254
c0 134.667 -103.333 207.667 -310 219v174c315.333 -24 480.333 -154 495 -390c0 -136.667 -58.667 -247 -176 -331c117.333 -50 176 -151 176 -303v-82z" />
    <glyph glyph-name="uni10AA" unicode="&#x10aa;" horiz-adv-x="2277" 
d="M2180 1000c-13.333 -325.333 -157.334 -495.333 -432.001 -510v168c164 8 250.333 122 259 342c0 243.333 -76 365 -228 365c-150.667 0 -226.667 -121.667 -228 -365v-174h-184v174c0 243.333 -76 365 -228 365s-227.667 -121.667 -227 -365v-174h-184v174
c-1.33301 243.333 -78 365 -230 365s-228 -129.333 -228 -388c41.333 -499.333 364.333 -769 969 -809h414v-168h-414c-726 66.667 -1110 392 -1152 976c-1.33301 373.333 135.667 560 411 560c152 0 260.333 -67 325 -201c58.667 134 164 201 316 201s258.667 -67 320 -201
c62.667 134 169.334 201 320.001 201c275.333 0 409 -178.667 401 -536z" />
    <glyph glyph-name="uni10AB" unicode="&#x10ab;" horiz-adv-x="996" 
d="M726 512c0 179.333 -77.333 271.667 -232 277c-149.333 0 -224 -92.333 -224 -277c0 -229.333 76 -344 228 -344s228 114.667 228 344zM911 512.001c0 -341.333 -137.665 -512.001 -412.998 -512.001s-413 170.667 -413 512c0 294.667 136.333 449.334 409 464.001
c95.333 -7.33301 172.666 -38.666 231.999 -93.999v231c0 168 -77.333 252.333 -232 253c-149.333 -0.666992 -225 -73.334 -227 -218.001h-181c-0.666992 258.667 136.666 388 411.999 388s413 -141 413 -423v-601z" />
    <glyph glyph-name="uni10AC" unicode="&#x10ac;" horiz-adv-x="996" 
d="M726 512c0 182.667 -76.333 274.999 -229 276.999c-151.333 -5.33301 -227 -97.666 -227 -276.999c0 -229.333 75.667 -344 227 -344c152.667 0 229 114.667 229 344zM911 511.999c0 -341.333 -138.001 -511.999 -414.001 -511.999
c-274.667 -0 -411.667 169.333 -411 508v605c-0.666992 282 136.333 423 411 423h414v-171h-412c-152.667 0 -229 -84 -229 -252v-256c76.667 75.333 152.334 115 227.001 119c276 -2.66699 414 -157.334 414 -464.001z" />
    <glyph glyph-name="uni10AD" unicode="&#x10ad;" horiz-adv-x="1638" 
d="M1552 1061l-0.000976562 -561c0.666992 -297.333 -146.666 -464 -441.999 -500v168c171.333 0 257 114.667 257 344v549c0 202.667 -86 304 -258 304c-132 0 -198 -86.333 -198 -259v-502h-185v509c0 168 -76 252 -228 252s-228 -101.333 -228 -304v-549
c0 -202 76 -316.667 228 -344v-168c-275.333 36 -413 206.667 -413 512v549c0 316.667 137.667 475 413 475c152 0 258.667 -57 320 -171c62 114 159 171 291 171c295.333 0 443 -158.333 443 -475z" />
    <glyph glyph-name="uni10AE" unicode="&#x10ae;" horiz-adv-x="995" 
d="M910 430c0 -286.667 -137.667 -429.999 -413 -429.999c-274.667 0 -412 143.333 -412 430v131h183v-131c0 -174.667 75.667 -262 227 -262c154.667 0 232 87.333 232 262c0 191.333 -77.333 286.333 -232 285h-152v175h154c152 0 229 73.333 231 220v3
c-2 168.667 -156 253 -462 253h-180v169h180c429.333 0.666992 644 -140 644 -422c0 -148.667 -69 -251.334 -207 -308.001c138 -60 207 -185 207 -375z" />
    <glyph glyph-name="uni10AF" unicode="&#x10af;" horiz-adv-x="1132" 
d="M1047 430c0 -286.667 -138 -430.667 -414 -432c-273.333 1.33301 -410 137.333 -410 408v50h183v-50c0 -158.667 76 -238 228 -238c153.333 0 230 87.333 230 262v935h-261c66.667 -110 100 -211.333 100 -304c0 -266 -110.667 -399 -332 -399
c-217.333 0 -326 128.667 -326 386v137h183v-137c0.666992 -147.333 47.667 -222 141 -224c100.667 0.666992 151 78.667 151 234c-1.33301 79.333 -45 186 -131 320v158h657z" />
    <glyph glyph-name="uni10B0" unicode="&#x10b0;" horiz-adv-x="1638" 
d="M1553 508c0 -338.667 -137.999 -507.999 -413.999 -507.999v168c150.667 0 226 114.667 226 344c0 182.667 -75.333 275 -226 277c-152.667 0 -229 -103 -229 -309v-174h-182v174c-1.33301 204 -78.333 307 -231 309c-151.333 0 -227 -92.333 -227 -277
c0 -229.333 75.667 -344 227 -344v-168c-274.667 0 -411.334 169.333 -410.001 508c-1.33301 194.667 60.667 324.667 186 390c-125.333 68 -187.333 167 -186 297c-1.33301 227.333 134.667 340.666 408 339.999h870v-169h-870c-150 -0.666992 -225 -56 -225 -166
c0 -115.333 75.667 -190 227 -224c152.667 -2.66699 259.667 -53.667 321 -153c62 102 164.333 153 307 153c285.333 0 428 -156 428 -468z" />
    <glyph glyph-name="uni10B1" unicode="&#x10b1;" horiz-adv-x="994" 
d="M909 454c0 -302.667 -138.668 -454.001 -416.001 -454.001c-272 0 -408 151.333 -408 454v1081h182v-1081c0.666992 -190.667 77 -286 229 -286s229.667 95.333 233 286c-3.33301 107.333 -33.5 189.333 -90.5 246s-85.833 147.334 -86.5 272.001h174
c-1.33301 -109.333 28.834 -196.5 90.501 -261.5s92.5 -150.5 92.5 -256.5z" />
    <glyph glyph-name="uni10B2" unicode="&#x10b2;" horiz-adv-x="1452" 
d="M627 1188c0 -126.667 55.332 -189.667 165.999 -189c114.667 0.666992 171.334 63.667 170.001 189c-0.666992 118 -57 177 -169 177c-110 0 -165.667 -59 -167 -177zM1367 512c0 -341.333 -198.002 -511.333 -594.002 -510c-458.667 -1.33301 -688 169.667 -688 513v726
h185v-726c-0.666992 -230 167.333 -345.667 504 -347c274 0 411 114.667 411 344c0 198 -109 304.333 -327 319h-111c-77.333 -2.66699 -117.333 -54.334 -120 -155.001c11.333 -70 75.333 -105 192 -105v-154c-237.333 -11.333 -360.666 75 -369.999 259
c2.66699 120.667 55 203.334 157 248.001c-93.333 42.667 -145.666 130.667 -156.999 264c-0.666992 232 114.333 348 345 348c230 0 345 -116 345 -348c0 -133.333 -54.667 -219.333 -164 -258c261.333 -6 392 -145.333 392 -418z" />
    <glyph glyph-name="uni10B3" unicode="&#x10b3;" horiz-adv-x="1137" 
d="M1052 406c-20.667 -270.667 -173.001 -406.667 -457.001 -408c-305.333 1.33301 -458 137.333 -458 408v253h184v-253c0 -158.667 91.333 -237.667 274 -237c170.667 -0.666992 256 78.333 256 237v707c0.666992 168 -47.666 252 -144.999 252
c-106 0 -159 -79.333 -159 -238v-226h-185v226c0 158.667 -43 238 -129 238h-188v171h186c87.333 0 164.333 -48.333 231 -145c56.667 96.667 138 144 244 142c230.667 2 346 -138.333 346 -421v-706z" />
    <glyph glyph-name="uni10B4" unicode="&#x10b4;" horiz-adv-x="1638" 
d="M728 1021c0 229.333 -76.667 344 -230 344c-152 0 -228 -114.667 -228 -344c0 -236 74.333 -354.667 223 -356c156.667 0 235 118.667 235 356zM1551 430c0 -286.667 -156 -430.668 -468 -432.001c-285.333 1.33301 -437 114 -455 338h178
c6.66699 -111.333 99 -167 277 -167c189.333 -0.666992 284 86.333 284 261c0 128.667 -47.333 194.334 -142 197.001h-120v168h120c94.667 3.33301 142 109.333 142 318c0 168 -86 252 -258 252c-132 0 -198 -114.667 -198 -344c0 -352 -139.333 -528 -418 -528
c-272 4 -408 180 -408 528c0 343.333 137.667 515 413 515c152 0 257.667 -57 317 -171c64 114 162 171 294 171c294.667 0 442 -141 442 -423c1.33301 -208.667 -53.667 -340 -165 -394c110 -60.667 165 -157 165 -289z" />
    <glyph glyph-name="uni10B5" unicode="&#x10b5;" horiz-adv-x="994" 
d="M909 430c0 -286.667 -138.667 -429.334 -416 -428.001c-272 -1.33301 -408 141.334 -408 428.001v158h182v-158c0.666992 -174.667 77 -262 229 -262s228 87.333 228 262v408c0 108 -80 172.667 -240 194c-87.333 -3.33301 -132.333 -70.333 -135 -201h-182
c0 246 103.667 370.333 311 373c76.667 -2.66699 158.667 -33 246 -91v423h185v-1106z" />
    <glyph glyph-name="uni10B6" unicode="&#x10b6;" horiz-adv-x="1638" 
d="M1367 0h-227.999c-702.667 0 -1053.67 353.667 -1053 1061c-0.666992 316.667 136.666 475 411.999 475c152 0 259 -59 321 -177c61.333 118 168 177 320 177c276 0 414 -158.333 414 -475c0 -366 -148 -549 -444 -549v172c172 0 258 125.667 258 377
c0 202.667 -76 304 -228 304s-228 -101.333 -228 -304v-308h-184v308c-0.666992 202.667 -77 304 -229 304s-228 -101.333 -228 -304c0 -595.333 289.667 -893 869 -893h228v-168z" />
    <glyph glyph-name="uni10B7" unicode="&#x10b7;" horiz-adv-x="996" 
d="M911 430c0 -286.667 -138 -430.667 -414 -432c-274.667 1.33301 -412 145.333 -412 432v26h184l1 -26c0 -174.667 75.667 -262 227 -262c152.667 0 229 87.333 229 262v310c-46 -93.333 -121.667 -141 -227 -143c-276 2 -414 156.667 -414 464
c0 220 39.667 378.333 119 475h171c-70 -96.667 -105 -255 -105 -475c0 -197.333 75.667 -296 227 -296c152.667 50 229 148.667 229 296v475h185v-1106z" />
    <glyph glyph-name="uni10B8" unicode="&#x10b8;" horiz-adv-x="1027" 
d="M757 480c0 204 -75.666 307 -226.999 309c-152.667 -2 -229.334 -105 -230.001 -309c0.666992 -208 77 -312 229 -312s228 104 228 312zM942.001 480c0 -320 -137.668 -479.998 -413.001 -479.998c-274 0 -411 160 -411 480c-1.33301 319.333 136 479.666 412 480.999
c81.333 -2.66699 157 -25.334 227 -68.001v220c-13.333 168.667 -59.333 253 -138 253c-102 0 -155.333 -60.667 -160 -182v-76h-174v76c-4.66699 121.333 -84.667 182 -240 182v168c176 1.33301 286 -48 330 -148c54 100 135.333 149.333 244 148
c208.667 1.33301 316.334 -139 323.001 -421v-633z" />
    <glyph glyph-name="uni10B9" unicode="&#x10b9;" horiz-adv-x="996" 
d="M596 1200c-0.666992 110 -52.666 165.334 -155.999 166.001c-114 -0.666992 -171 -116.334 -171 -347.001v-235c43.333 56 119.666 87.667 228.999 95c58 100 90.667 207 98 321zM659.001 857.001c150.667 -54 234.667 -196.333 252 -427c0 -198.667 -40 -352 -120 -460
l-178 30c75.333 88 113 231.333 113 430c-11.333 180 -87.333 275 -228 285c-152.667 0 -229 -101 -229 -303v-412h-183v1019c-0.666992 344.667 117.333 517 354 517c222.667 0 334.667 -112 336 -336c-1.33301 -114 -40.333 -228.333 -117 -343z" />
    <glyph glyph-name="uni10BA" unicode="&#x10ba;" horiz-adv-x="1180" 
d="M1094 1137c0.666992 -164.667 -82.666 -276 -249.999 -334c167.333 -57.333 251 -154.333 251 -291c0 -341.333 -165.333 -512 -496 -512c-342.667 0 -514 170.667 -514 512v549c0 220 46.667 378 140 474h189c-96 -96 -144 -254 -144 -474v-549
c0 -229.333 109.667 -344 329 -344c210 0 313.667 114.667 311 344c-16.667 136.667 -94.667 205 -234 205h-100v174h94c150.667 0.666992 230.667 83 240 247c0 151.333 -76 227 -228 227v171c275.333 0 412.666 -133 411.999 -399z" />
    <glyph glyph-name="uni10BB" unicode="&#x10bb;" horiz-adv-x="996" 
d="M726 512c0 182.667 -77.333 274.667 -232 276c-149.333 0.666992 -224 -91.333 -224 -276c0 -229.333 76 -344 228 -344s228 114.667 228 344zM911 512c0 -341.333 -137 -512 -411 -512c-276.667 0 -415 170.667 -415 512c0 303.333 137.667 455 413 455
c116.667 -14 192.667 -50.667 228 -110v679h185v-1024z" />
    <glyph glyph-name="uni10BC" unicode="&#x10bc;" horiz-adv-x="1015" 
d="M87 1124v4c-1.33301 272 113 408 343 408c95.333 0 171.666 -50 228.999 -150c64 100 167.667 150 311 150v-171c-143.333 0 -217 -60.333 -221 -181v-36h-174v36c0.666992 120.667 -47.666 181.334 -144.999 182.001c-106.667 -0.666992 -160 -81 -160 -241v-246
c60 64 135.667 96.333 227 97c276 -0.666992 414 -155.334 414 -464.001c0 -341.333 -137.667 -512 -413 -512c-274 0 -411.667 170.667 -413 512zM270 512c0 -229.333 76 -344 228 -344s228 114.667 228 344c0 184.667 -77.333 277 -232 277
c-149.333 0 -224 -92.333 -224 -277z" />
    <glyph glyph-name="uni10BD" unicode="&#x10bd;" horiz-adv-x="996" 
d="M270 1059c0 -106.667 50 -160 150 -160c101.333 0.666992 154 54 158 160c-2 100.667 -52 151 -150 151c-105.333 0 -158 -50.333 -158 -151zM911 419c0 -279.333 -138.999 -419.667 -416.999 -421c-272 1.33301 -408 145.333 -408 432l-1 25h185v-25
c0 -174.667 76 -262 228 -262s228 87.333 228 262c0 125.333 -66 239 -198 341l-133 -24c-206.667 14 -309 117.333 -307 310c-2 190 100.333 292.667 307 308c37.333 0 64.666 -2.33301 81.999 -7v175h168v-264c37.333 -30.667 64.333 -74 81 -130h184v-158h-184
c-16.667 -54 -38 -95.333 -64 -124c166 -115.333 249 -261.333 249 -438z" />
    <glyph glyph-name="uni10BE" unicode="&#x10be;" horiz-adv-x="994" 
d="M724 512c0 182.667 -75.667 275 -227 277c-152.667 0 -229 -92.333 -229 -277c0 -229.333 76 -344 228 -344s228 114.667 228 344zM909 512c0 -341.333 -137.332 -511.999 -411.999 -511.999s-412 170.667 -412 512v1024h183v-657c53.333 62 129.666 94.333 228.999 97
c274.667 -2.66699 412 -157.334 412 -464.001z" />
    <glyph glyph-name="uni10BF" unicode="&#x10bf;" horiz-adv-x="995" 
d="M910 357c-26 -238 -164.999 -357.668 -416.999 -359.001c-272 1.33301 -408 145.333 -408 432v142h184v-142c0 -174.667 76 -262 228 -262c124.667 0 201 63 229 189c-0.666992 99.333 -54.334 210.833 -161.001 334.5s-160 239.834 -160 348.501v159l-320 128v168
l322 -127v168h174v-222l325 -126v-167l-325 124v-104c2 -76 57.333 -179 166 -309s163 -255 163 -375z" />
    <glyph glyph-name="uni10C0" unicode="&#x10c0;" horiz-adv-x="995" 
d="M910 356c0 -237.333 -137.667 -355.999 -413 -355.999c-274.667 0 -412 137.333 -412 412v43h184v-44c0 -162 76 -243 228 -243c152.667 0 229 62.667 229 188c0 103.333 -35.333 155.333 -106 156h-209v168h209c70.667 2.66699 106.667 41 108 115
c-1.33301 63.333 -37.333 96.666 -108 99.999h-209v170h217c64.667 -2.66699 97 42.333 97 135c0 110 -110.333 165 -331 165h-269v171h269c344 0 516 -112 516 -336c0 -92.667 -35.333 -167 -106 -223c70.667 -51.333 106 -110.333 106 -177
c0 -85.333 -35.333 -153.333 -106 -204c70.667 -56 106 -136 106 -240z" />
    <glyph glyph-name="uni10C1" unicode="&#x10c1;" horiz-adv-x="1052" 
d="M520 0c-290 0 -435 143.336 -435 430.003v961h185v-961c0 -174.667 84.333 -262 253 -262c172.667 0 259 71.667 259 215c0 126 -31.667 189.333 -95 190h-154v177h152c64.667 0 98 35.333 100 106c-2 65.333 -36 98.666 -102 99.999h-150v181h150
c66 2 100 35.333 102 100c-2 85.333 -86 127.666 -252 126.999v172c289.333 0 433.333 -99.667 432 -299c1.33301 -66 -33.334 -128 -104.001 -186c70.667 -64.667 105.334 -129.667 104.001 -195c1.33301 -70.667 -36.667 -136.334 -114 -197.001
c77.333 -58.667 116 -150.667 116 -276c0 -255.333 -149 -383 -447 -383z" />
    <glyph glyph-name="uni10C2" unicode="&#x10c2;" horiz-adv-x="996" 
d="M270 512c0 -229.333 76 -344 228 -344c152.667 0 229 114.667 229 344v540c-0.666992 208.667 -77.667 312.667 -231 312c-150.667 0.666992 -226 -103.333 -226 -312v-540zM86 -16c122.667 11.333 201.999 29.666 237.999 54.999c-158.667 86 -238 243.667 -238 473v540
c-0.666992 322.667 136 483.334 410 482.001c276.667 1.33301 415 -159.334 415 -482.001v-540c0 -229.333 -81 -387.666 -243 -474.999c38.667 -24.667 118.334 -44.667 239.001 -60v-182c-120.667 16.667 -257 85 -409 205c-152 -120 -289.333 -188.333 -412 -205v189z
" />
    <glyph glyph-name="uni10C3" unicode="&#x10c3;" horiz-adv-x="996" 
d="M911 430c0 -286.667 -139 -430.665 -417 -431.998c-272 1.33301 -408 137.333 -408 408v106h184v-112c0 -154.667 76 -232 228 -232c152.667 0 229 87.333 229 262c0 239.333 -77.667 360.666 -233 363.999h-152v178h152c112.667 0 190 131 232 393h-456v-189h-185v360
h826c0 -322.667 -76.333 -537.334 -229 -644.001c152.667 -23.333 229 -177.333 229 -462z" />
    <glyph glyph-name="uni10C4" unicode="&#x10c4;" horiz-adv-x="996" 
d="M911 430c0 -286.667 -138.333 -430.667 -415 -432c-274 1.33301 -411 145.333 -411 432v25h185v-25c0 -174.667 75.333 -262 226 -262c153.333 0 230 87.333 230 262c0 169.333 -69.333 266.333 -208 291h-174v178h152c153.333 40 231 150.667 233 332
c-101.333 -24.667 -179 -37 -233 -37c-274 4 -411 118 -411 342h185c0 -113.333 75.333 -170 226 -170c168 -0.666992 306.333 56 415 170v-308c0 -210 -86 -348.333 -258 -415c172 -64 258 -191.667 258 -383z" />
    <glyph glyph-name="uni10C5" unicode="&#x10c5;" horiz-adv-x="1116" 
d="M911 452v-95.999c0 -237.333 -137.333 -356.666 -412 -357.999c-276 1.33301 -414 120.666 -414 357.999c0 202 71.667 334 215 396c-143.333 61.333 -215 210.666 -215 447.999c0 224 137.667 336 413 336s413 -112 413 -336v-124h120v-178h-120v-274l120 4v-176h-120z
M270 1200c0 -237.333 74.333 -356 223 -356h233v356c0 110 -76 165 -228 165s-228 -55 -228 -165zM726 662.001h-233c-148.667 -2 -223 -104 -223 -306c0 -125.333 76 -188 228 -188s228 62.667 228 188v306z" />
    <glyph glyph-name="uni10C6" unicode="&#x10c6;" horiz-adv-x="1640" 
d="M1369 1042c0 215.333 -76 323 -228 323s-228 -107.667 -228 -323c0 -201.333 76 -302 228 -302s228 100.667 228 302zM1555 1040c0 -323.333 -140.332 -485 -420.999 -485c-75.333 0 -149 28.333 -221 85v-284c0 -237.333 -137.667 -356 -413 -356v168
c152 0 228 62.667 228 188v686c0 215.333 -76 323 -228 323s-228 -106.333 -228 -319c0 -204 81.667 -308.333 245 -313v-178c-286.667 0 -430.667 163.667 -432 491c1.33301 326.667 139.666 490 414.999 490c152 0 256 -49 312 -147c67.333 98 177 147 329 147
c276 0 414 -165.333 414 -496z" />
    <glyph glyph-name="uni10D0" unicode="&#x10d0;" horiz-adv-x="950" 
d="M885 429c-18 -266.667 -154.333 -409.667 -409 -429c-252.667 16 -389.667 141.667 -411 377l32 155l173 -40l-20 -115c13.333 -126 89.333 -195.667 228 -209c138 12.667 214 99.667 228 261c-14 76.667 -63.667 140 -149 190c-158 48.667 -252.333 157.667 -283 327
h178c14.667 -86.667 53.667 -143 117 -169c186.667 -69.333 292 -185.333 316 -348z" />
    <glyph glyph-name="uni10D1" unicode="&#x10d1;" horiz-adv-x="952" 
d="M887 430c-14.667 -266 -149.333 -409.333 -404 -430c-268 18.667 -407.333 162 -418 430c18 240.667 133.333 383 346 427v205c-15.333 115.333 -76.166 186.166 -182.499 212.499s-159.5 114.5 -159.5 264.5h177c0 -97.333 53.667 -159.166 161 -185.499
s168.666 -121.833 183.999 -286.5v-210c175.333 -44 274 -186.333 296 -427zM708.001 430c-8 169.333 -81.667 258.666 -221 267.999c-148.667 -9.33301 -229 -98.666 -241 -267.999c13.333 -162 92.333 -249.333 237 -262c138.667 12.667 213.667 100 225 262z" />
    <glyph glyph-name="uni10D2" unicode="&#x10d2;" horiz-adv-x="1081" 
d="M1031 -226c-21.333 -312 -184.333 -476.332 -489 -492.999c-314.667 15.333 -478.667 179.666 -492 492.999c19.333 284 174 447.333 464 490c104.667 54.667 162 154.667 172 300c3.33301 78 -50.667 120 -162 126c-108 -4.66699 -165.333 -43 -172 -115v-112h-178v112
c10 180 126.667 275.667 350 287c226.667 -12 340 -111.333 340 -298c-5.33301 -149.333 -60.333 -257.333 -165 -324c194 -40 304.667 -195.333 332 -466zM853 -225.999c-6 204 -108.335 310.333 -307.002 319c-197.333 -8.66699 -301.666 -115 -312.999 -319
c13.333 -208 115.333 -317 306 -327c188.667 12 293.334 121 314.001 327z" />
    <glyph glyph-name="uni10D3" unicode="&#x10d3;" horiz-adv-x="1593" 
d="M1027 -674c0 204.667 -126.999 318.668 -380.999 342.001c-387.333 117.333 -581 346.666 -581 687.999c20.667 308 156.667 474.667 408 500c155.333 0 263.666 -57.333 324.999 -172c62 114.667 166.667 172 314 172c267.333 -20.667 406 -165.334 416 -434.001
c-17.333 -256 -156 -396.667 -416 -422c-270.667 44.667 -406 188 -406 430c5.33301 158.667 -70.667 243.334 -228 254.001c-132 -18 -208 -127.333 -228 -328c0 -237.333 132 -408 396 -512c364 -50 546.333 -222.667 547 -518h-166zM1347 430.001
c0 153.333 -78.332 238.001 -234.999 254.001c-147.333 -10.667 -221 -95.334 -221 -254.001c0 -153.333 73.667 -240.666 221 -261.999c145.333 15.333 223.666 102.666 234.999 261.999z" />
    <glyph glyph-name="uni10D4" unicode="&#x10d4;" horiz-adv-x="970" 
d="M890 -302c-16.667 -258.667 -153.999 -397.332 -411.999 -415.999c-259.333 18.667 -397 154 -413 406l30 231h184l-30 -231c10.667 -150.667 87 -231 229 -241c137.333 13.333 213.666 93.666 228.999 240.999v739c-8.66699 165.333 -76.334 251 -203.001 257
c-142 -8 -213.333 -75.333 -214 -202c4 -84 38.333 -135 103 -153v-180c-178.667 34 -272.667 144.333 -282 331c4.66699 231.333 135.667 357 393 377c240.667 -18 369.334 -161.333 386.001 -430v-729z" />
    <glyph glyph-name="uni10D5" unicode="&#x10d5;" horiz-adv-x="961" 
d="M885 -311c-18 -255.333 -154.667 -391.335 -410 -408.002c-250 13.333 -386.667 149.333 -410 408l30 230h181l-30 -230c18 -146.667 94.333 -228 229 -244c138.667 13.333 215.667 94.333 231 243v82c-20 130.667 -84 207.334 -192 230.001h-103v168h103
c92.667 12 156.667 99.333 192 262c-14.667 168.667 -85 253.334 -211 254.001c-120.667 -0.666992 -190.334 -75.334 -209.001 -224.001l30 -153h-181l-30 152c13.333 252.667 143.333 385 390 397c246.667 -19.333 378.667 -161.333 396 -426
c-20 -160 -88.667 -272 -206 -336c128.667 -39.333 195.334 -147.666 200.001 -324.999v-80z" />
    <glyph glyph-name="uni10D6" unicode="&#x10d6;" horiz-adv-x="1018" 
d="M953 430c-17.333 -272.667 -155 -416 -413 -430c-260.667 14 -399 157.333 -415 430c16 228.667 119.667 363 311 403c-252 -8.66699 -389 105.666 -411 342.999c16.667 226 134 346 352 360c226.667 -10.667 347.667 -128.667 363 -354
c-9.33301 -160.667 -70.666 -269 -183.999 -325c247.333 -21.333 379.666 -163.666 396.999 -426.999zM568 1180c-11.333 123.333 -75.001 188.667 -191.001 196c-111.333 -7.33301 -172.666 -72.666 -183.999 -195.999c11.333 -122.667 76 -189.334 194 -200.001
c118 11.333 178.333 78 181 200zM767.999 430.001c-11.333 160 -88.333 244.667 -231 254c-140 -11.333 -217 -96 -231 -254c14 -160 92 -247.333 234 -262c138 14.667 214 102 228 262z" />
    <glyph glyph-name="uni10D7" unicode="&#x10d7;" horiz-adv-x="1598" 
d="M1533 430c-28 -265.333 -176 -408.669 -444 -430.002v168c146.667 20.667 232.667 108 258 262c-15.333 150.667 -94.333 235.334 -237 254.001c-146 -19.333 -219 -104 -219 -254c-26.667 -261.333 -166 -404.666 -418 -429.999c-254.667 26.667 -390.667 170 -408 430
c22.667 258.667 160 400.667 412 426c160 -11.333 266.333 -68.666 319 -171.999c53.333 107.333 158 164.666 314 171.999c260.667 -37.333 401.667 -179.333 423 -426zM708 429.997c-1.33301 142.667 -78.334 227.335 -231.001 254.002
c-140.667 -10.667 -217.667 -95.334 -231 -254.001c12.667 -168 88.334 -255.333 227.001 -262c144 9.33301 222.333 96.666 235 261.999z" />
    <glyph glyph-name="uni10D8" unicode="&#x10d8;" horiz-adv-x="956" 
d="M891 430c-17.333 -248.667 -114.668 -398.666 -292.001 -449.999l-40 158c89.333 48 138.333 145.333 147 292c-12 160 -88 244.667 -228 254c-141.333 -11.333 -217.333 -96 -228 -254c8.66699 -148.667 58.334 -246 149.001 -292l-40 -158
c-184 51.333 -282 201.333 -294 450c13.333 257.333 151 399.666 413 426.999c259.333 -26.667 397 -169 413 -427z" />
    <glyph glyph-name="uni10D9" unicode="&#x10d9;" horiz-adv-x="946" 
d="M875 -311c-22 -257.333 -160.331 -393.333 -414.998 -408c-256.667 6.66699 -393.334 142.667 -410.001 408l30 154h184l-30 -154c11.333 -156 86.666 -236 225.999 -240c145.333 5.33301 222.666 85.333 231.999 240v80c-24 154 -101.333 231 -232 231h-103v168h103
c140.667 14.667 219.667 110.334 237 287.001c-27.333 154.667 -122.666 231 -285.999 229v172c275.333 0.666992 430.333 -133 465 -401c-13.333 -176.667 -88.333 -296.334 -225 -359.001c125.333 -44 200 -153 224 -327v-80z" />
    <glyph glyph-name="uni10DA" unicode="&#x10da;" horiz-adv-x="2217" 
d="M2152 430c-22.667 -264 -160.664 -407.334 -413.997 -430.001v168c144 14.667 220.333 102 229 262c0 156.667 -76.667 241.334 -230 254.001c-149.333 -12.667 -224.333 -97.334 -225 -254.001v-174h-185v174c0 158 -73.667 242.667 -221 254
c-143.333 -11.333 -215.333 -96 -216 -254v-174h-183v174c-0.666992 159.333 -77.334 244 -230.001 254c-139.333 -17.333 -215 -126.666 -227 -327.999c0 -313.333 213.667 -480.666 641 -501.999c578.667 -23.333 868 -199.333 868 -528h-174
c8 207.333 -223.333 324.666 -694 351.999c-550.667 49.333 -826 275.333 -826 678c16 318 153.333 484.667 412 500c152.667 -5.33301 262 -62.333 328 -171c57.333 102 157.666 159 300.999 171c147.333 -6.66699 254.333 -63.667 321 -171
c57.333 107.333 160.666 164.333 309.999 171c260.667 -13.333 399 -155.333 415 -426z" />
    <glyph glyph-name="uni10DB" unicode="&#x10db;" horiz-adv-x="971" 
d="M891 430c-17.333 -268 -155.668 -411.331 -415.001 -429.998c-254.667 18.667 -391.667 162 -411 430c10.667 273.333 148.334 415.666 413.001 426.999c98 0 174 -28.667 228 -86v342c0 168 -76 252 -228 252c-138.667 0 -208 -50.667 -208 -152
c4 -59.333 29.667 -104.333 77 -135l-97 -121c-99.333 43.333 -154.333 128.666 -165 255.999c18 201.333 149 309 393 323c258 -15.333 395.667 -156.333 413 -423v-683zM705.998 430.002c-6 163.333 -81.999 248 -227.999 254
c-142 -9.33301 -219.333 -93.666 -232 -252.999c19.333 -162 96.666 -249.667 231.999 -263c138.667 11.333 214.667 98.666 228 261.999z" />
    <glyph glyph-name="uni10DC" unicode="&#x10dc;" horiz-adv-x="971" 
d="M906 430c-18 -266.667 -156.333 -410 -415 -430c-259.333 14.667 -396.333 158 -411 430v694c13.333 264 150.333 401.333 411 412h408v-170h-408c-145.333 -6 -221 -87.333 -227 -244v-372c58 70.667 133.667 106 227 106c262 -10 400.333 -152 415 -426zM723 430
c-11.333 159.333 -90.667 244.001 -238 254.001c-136.667 -12.667 -210.334 -97.334 -221.001 -254.001c12.667 -161.333 88.334 -248.666 227.001 -261.999c140 13.333 217.333 100.666 232 261.999z" />
    <glyph glyph-name="uni10DD" unicode="&#x10dd;" horiz-adv-x="1598" 
d="M1533 430c-20.667 -264 -168.999 -407.334 -444.999 -430.001v168c159.333 14.667 245.666 102 258.999 262c-10 160 -86 244.667 -228 254c-152 -17.333 -228 -102 -228 -254v-125h-184v125c-0.666992 150 -77 234.667 -229 254
c-143.333 -9.33301 -219.333 -94 -228 -254c18.667 -152.667 104.667 -240 258 -262v-168c-276 28 -423.667 171.333 -443 430c19.333 267.333 157 409.333 413 426c152 0 259 -57.333 321 -172c61.333 114.667 168 172.334 320 173.001
c258.667 -14 396.667 -156.333 414 -427z" />
    <glyph glyph-name="uni10DE" unicode="&#x10de;" horiz-adv-x="956" 
d="M891 430c-17.333 -268.667 -155.333 -412.002 -414 -430.002c-255.333 20 -392.666 156.667 -411.999 410v103h185v-101c12 -152.667 87.667 -234 227 -244c141.333 10.667 217.666 98 228.999 262c-13.333 126 -90.333 194.333 -231 205h-101v174h119
c142 13.333 213.667 87 215 221c-1.33301 111.333 -108.833 186.333 -322.5 225s-320.5 132.334 -320.5 281.001h179c4 -74 112.833 -132.5 326.5 -175.5s320.5 -154.167 320.5 -333.5c0 -127.333 -69 -228 -207 -302c125.333 -37.333 194.333 -135.666 207 -294.999z" />
    <glyph glyph-name="uni10DF" unicode="&#x10df;" horiz-adv-x="1161" 
d="M1081 -313c-12.667 -250.667 -155.334 -386 -428.001 -406c-253.333 13.333 -389.666 149.333 -408.999 408l30 229h178l-30 -229c12.667 -156 88.334 -237.333 227.001 -244c150 10 233.333 91.333 250 244v995h-246c42 -68 64 -158.667 66 -272
c-8.66699 -211.333 -118 -326 -328 -344c-200.667 10 -309.334 121 -326.001 333v170l181 -40v-130c2.66699 -106 50.334 -163.333 143.001 -172c100 0.666992 150.333 61.667 151 183c7.33301 123.333 -36.334 235.333 -131.001 336v108h672v-1169z" />
    <glyph glyph-name="uni10E0" unicode="&#x10e0;" horiz-adv-x="1603" 
d="M1538 430c-13.333 -266 -161.338 -409.332 -444.005 -429.999v168c172 14.667 258 102 258 262c-10 156 -86 240.667 -228 254c-151.333 -16 -227.666 -100.667 -228.999 -254v-126h-183v126c-1.33301 153.333 -77.666 238 -228.999 254c-140 -10 -216 -94.667 -228 -254
c0 -158 86 -245.333 258 -262v-168c-283.333 20 -431 163.333 -443 430c0.666992 170 55.334 327.167 164.001 471.5s263.334 265.666 464.001 363.999s346.334 201.833 437.001 310.5l132 -112c-110.667 -136 -270.167 -252 -478.5 -348s-347.833 -193.333 -418.5 -292
l116 33c150 -1.33301 255.333 -59 316 -173c62.667 114 170 171.667 322 173c256 -18.667 394 -161 414 -427z" />
    <glyph glyph-name="uni10E1" unicode="&#x10e1;" horiz-adv-x="968" 
d="M903 430c-19.333 -270.667 -155.331 -413.998 -407.998 -429.998c-262 13.333 -400.333 156.666 -415 429.999v1106h182v-1106c17.333 -164.667 95 -252 233 -262c137.333 12 211.666 99.333 222.999 262c0 88.667 -33.333 168.667 -100 240s-53.334 165.333 39.999 282
l160 -60c-80 -68.667 -85.833 -141.334 -17.5 -218.001s102.5 -158 102.5 -244z" />
    <glyph glyph-name="uni10E2" unicode="&#x10e2;" horiz-adv-x="1306" 
d="M236 57c2.66699 -354 142.667 -558.001 420 -612.001c280 54 420 258 420 612c0 316 -110.667 512 -332 588v-480h-174v484c-220 -91.333 -331.333 -288.666 -334 -591.999zM50 56.999c18.667 455.333 191.999 706.667 519.999 754v355h174v-357
c328.667 -46 499.334 -298 512.001 -756c0 -477.333 -198.667 -735.333 -596 -774c-400 38.667 -603.333 298 -610 778z" />
    <glyph glyph-name="uni10E3" unicode="&#x10e3;" horiz-adv-x="1033" 
d="M953 -311c-21.333 -248.667 -157.001 -384.668 -407.001 -408.001c-253.333 14.667 -389.333 150.667 -408 408l30 227h174l-30 -227c8.66699 -151.333 86.334 -232 233.001 -242c144 14.667 221.333 95.334 232 242.001v762c-3.33301 142 -53 219.667 -149 233
c-99.333 0 -154 -77.667 -164 -233v-152h-170v152c2.66699 155.333 -70.333 233 -219 233h-50v172h47c166 0 267.333 -57.333 304 -172c54 114.667 138 172 252 172c210.667 -20 319 -155 325 -405v-762z" />
    <glyph glyph-name="uni10E4" unicode="&#x10e4;" horiz-adv-x="1603" 
d="M1533 -311c-20 -250.667 -158 -386.333 -414 -407c-258 18 -395.333 153.667 -412 407l30 158h183l-30 -158c12.667 -151.333 89 -232 229 -242c142 10 218 90.667 228 242v80c-17.333 138 -74 215 -170 231h-92v168h92c100 16.667 156.667 104 170 262
c0 140 -76 224.667 -228 254c-152 -16 -228 -100.667 -228 -254c-12.667 -266.667 -150.334 -410 -413.001 -430c-254 20 -391.667 163.333 -413 430c23.333 264 161 406 413 426c152 0 258 -57.333 318 -172c63.333 114.667 171 172 323 172
c259.333 -15.333 397.333 -157.333 414 -426c-13.333 -161.333 -85.666 -276 -216.999 -344c118 -47.333 190.333 -152 217 -314v-83zM706 430.001c0 154.667 -76 239.333 -228 254c-136.667 -18 -212.667 -102.667 -228 -254c16.667 -158 92.667 -245.333 228 -262
c143.333 16.667 219.333 104 228 262z" />
    <glyph glyph-name="uni10E5" unicode="&#x10e5;" horiz-adv-x="971" 
d="M891 -312c-24 -252 -162.333 -387.335 -415 -406.002c-256 18.667 -393 154 -411 406l30 228h185l-30 -228c10 -150.667 85.333 -231 226 -241c142 10 219 90.333 231 241v671c-15.333 207.333 -91.666 315.666 -228.999 324.999c-116.667 -8 -179.667 -74.667 -189 -200
c6 -85.333 41.333 -141.666 106 -168.999v-169c-182 26.667 -278.333 139.334 -289 338.001c14 228.667 138 353 372 373c99.333 -7.33301 175.666 -39.666 228.999 -96.999v776h184v-1848z" />
    <glyph glyph-name="uni10E6" unicode="&#x10e6;" horiz-adv-x="1598" 
d="M1020 -673c-0.666992 214 -105.331 330.999 -313.998 350.999c-427.333 101.333 -641 328.666 -641 681.999c21.333 310.667 157.333 476 408 496c155.333 0 264.666 -57.333 327.999 -172c60 114.667 163 172 309 172c266 -13.333 407 -155.333 423 -426
c-12 -250.667 -150 -394 -414 -430v168c142 0 218 87.333 228 262c0 148.667 -78.333 233.334 -235 254.001c-147.333 -20.667 -221 -105.334 -221 -254.001v-127h-185v127c0 144.667 -77.667 229.334 -233 254.001c-148.667 -29.333 -224.334 -137.333 -227.001 -324
c2.66699 -234.667 156 -406.667 460 -516c326 -29.333 489.667 -201.666 491 -516.999h-177z" />
    <glyph glyph-name="uni10E7" unicode="&#x10e7;" horiz-adv-x="971" 
d="M891 -313c-19.333 -254 -157.998 -389.333 -415.998 -406c-253.333 16.667 -390 152.667 -410 408l30 155h183l-30 -155c0 -136 75.667 -217.333 227 -244c154 18 231.333 99.333 232 244v440c-38.667 -74.667 -115.334 -117.667 -230.001 -129h-2
c-240 20 -376.667 163.333 -410 430c2.66699 200 66 352.667 190 458l160 -70c-112.667 -68.667 -169 -198 -169 -388c16 -162.667 92.333 -250 229 -262c129.333 18.667 206.666 106 231.999 262v426h184v-1169z" />
    <glyph glyph-name="uni10E8" unicode="&#x10e8;" horiz-adv-x="982" 
d="M726 430c-6 153.333 -84.668 238 -236.001 254c-137.333 -16 -214.333 -100.667 -231 -254c18.667 -158 95.667 -245.333 231 -262c142.667 8 221.334 95.333 236.001 262zM901.999 430c-19.333 -266.667 -156.668 -409.999 -412.001 -429.999
c-252.667 27.333 -390 170.666 -412 429.999c20 262 157.333 404 412 426c124.667 -8.66699 200.334 -44.667 227.001 -108v376c0 144 -49.667 224.667 -149 242c-90.667 -10 -136.667 -74 -138 -192v-116h-174v116c0.666992 113.333 -58 177.333 -176 192h-55v170h66
c125.333 0 213 -56.667 263 -170c34.667 113.333 112 170 232 170c210.667 -26.667 316 -164 316 -412v-694z" />
    <glyph glyph-name="uni10E9" unicode="&#x10e9;" horiz-adv-x="969" 
d="M904 430c-2 -254.667 -112.999 -408.67 -332.999 -462.003v188c105.333 34.667 154.666 126 147.999 274c0 124 -73.667 190.333 -221 199c-156.667 -17.333 -235 -89.666 -235 -216.999v-412h-183v1124c10.667 268 131.667 405.333 363 412
c211.333 -13.333 323.333 -114.666 336 -303.999c-24 -223.333 -196 -341.666 -516 -354.999v-182c16.667 48.667 95 82.667 235 102c256.667 -12 392 -134.333 406 -367zM599.001 1232c-0.666992 78.667 -52.667 123.332 -156 133.999c-120 -6 -180 -67.667 -180 -185v-146
c214 0.666992 326 66.334 336 197.001z" />
    <glyph glyph-name="uni10EA" unicode="&#x10ea;" horiz-adv-x="1058" 
d="M993 420c-8.66699 -168 -88.666 -279.332 -239.999 -333.999c151.333 -57.333 231.333 -163 240 -317c-36 -315.333 -201 -478 -495 -488c-262.667 21.333 -407 205 -433 551v315c0 17.333 3.33301 105.833 10 265.5s26.667 308.167 60 445.5h188
c-36 -116 -60.667 -332.333 -74 -649v-377c18 -242 100.333 -371 247 -387c192 1.33301 299 108.666 321 321.999c11.333 121.333 -55.667 199 -201 233h-111v174h104c143.333 26 213.333 106.667 210 242c-1.33301 74.667 -43.833 135.667 -127.5 183
s-120.834 133 -111.501 257h180c-6 -94 30.167 -163.667 108.5 -209s119.833 -121 124.5 -227z" />
    <glyph glyph-name="uni10EB" unicode="&#x10eb;" horiz-adv-x="972" 
d="M892 430c-26.667 -264 -165 -407.333 -415 -430c-255.333 16 -392.666 157.333 -411.999 424c19.333 262.667 156 406.667 410 432c109.333 0.666992 186.666 -31.333 231.999 -96v777h185v-1107zM707 430c0 155.333 -78.667 240 -236 254
c-134 -18 -209 -104.667 -225 -260c13.333 -154 90.333 -239.333 231 -256c136 16.667 212.667 104 230 262z" />
    <glyph glyph-name="uni10EC" unicode="&#x10ec;" horiz-adv-x="982" 
d="M256 430c14.667 -166.667 93.333 -254 236 -262c135.333 16.667 212.333 104 231 262c-16.667 153.333 -93.667 238 -231 254c-151.333 -16 -230 -100.667 -236 -254zM79.999 1124c0 248 105.331 385.332 315.998 411.999c120 0 197.333 -56.667 232 -170
c50 113.333 137.667 170 263 170h66v-170h-55c-118 -14.667 -176.667 -78.667 -176 -192v-116h-174v116c-1.33301 118 -47.333 182 -138 192c-99.333 -17.333 -149 -98 -149 -242v-376c26.667 63.333 102.334 99.333 227.001 108c254.667 -22 392 -164 412 -426
c-22 -259.333 -159.333 -402.666 -412 -429.999c-255.333 20 -392.666 163.333 -411.999 430v694z" />
    <glyph glyph-name="uni10ED" unicode="&#x10ed;" horiz-adv-x="955" 
d="M887 -311c-16.667 -248.667 -153.001 -384.331 -409.001 -406.998c-254 14 -391.667 149.667 -413 407l30 155h184l-30 -157c18 -150 94.333 -230 229 -240c138.667 10 215.334 90.667 230.001 242c-1.33301 111.333 -40 205.666 -116 282.999s-121 182 -135 314l-86 -18
c-184.667 17.333 -286 119.666 -304 306.999c18 180.667 123.333 283.667 316 309l74 -8v660h167v-745c52.667 -31.333 80.667 -76 84 -134h182v-158h-186c-0.666992 -56.667 -28 -103 -82 -139v-76c16.667 -112.667 65.5 -210.5 146.5 -293.5s120.5 -183.5 118.5 -301.5z
M236.999 577.003c8.66699 -106.667 62.667 -160 162 -160c104.667 4 161.334 57.333 170.001 160c-8.66699 93.333 -62.667 143.666 -162 150.999c-104.667 -9.33301 -161.334 -59.666 -170.001 -150.999z" />
    <glyph glyph-name="uni10EE" unicode="&#x10ee;" horiz-adv-x="972" 
d="M907 430c-17.333 -270.667 -156.332 -414 -416.999 -430c-258.667 13.333 -395.334 156.666 -410.001 429.999v1106h182v-798c69.333 78.667 145.333 118.334 228 119.001c260.667 -16 399.667 -158.333 417 -427zM718.001 430
c-13.333 151.333 -89.333 236.001 -228 254.001c-152 -22.667 -228 -107.334 -228 -254.001c10.667 -162.667 86.667 -250 228 -262c140.667 12 216.667 99.333 228 262z" />
    <glyph glyph-name="uni10EF" unicode="&#x10ef;" horiz-adv-x="956" 
d="M891 -311c-30.667 -260 -170 -395.999 -418 -407.999c-255.333 16.667 -391.333 152.667 -408 408l30 155h183l-30 -155c14.667 -151.333 89.667 -232.666 225 -243.999c142 16 219.667 97 233 243c0 160 -48.167 284.667 -144.5 374s-154.5 221.666 -174.5 396.999v128
l-322 118v179l322 -128v369h174v-443l316 -146v-176l-316 153v-56c0 -112 50 -221.833 150 -329.5s160 -253.834 180 -438.501z" />
    <glyph glyph-name="uni10F0" unicode="&#x10f0;" horiz-adv-x="961" 
d="M891 356c-21.333 -221.333 -157.999 -340.002 -409.999 -356.002c-260.667 18 -399.334 155.333 -416.001 412v100h181v-100c11.333 -152.667 88.333 -234 231 -244c139.333 16.667 216.333 76.667 231 180c-1.33301 86 -37.333 140.667 -108 164h-158v168h158
c70.667 12.667 106 49.334 106 110.001c0 61.333 -35.333 96.333 -106 105h-158v170h166c65.333 8.66699 98 48.667 98 120c0 56 -76.667 95.333 -230 118s-230 100.334 -230 233.001h185c0 -62.667 76.667 -102.5 230 -119.5s230 -94.833 230 -233.5
c0 -92.667 -33.667 -158 -101 -196c67.333 -42 101 -108 101 -198c0 -84 -35.667 -148.333 -107 -193c71.333 -70 107 -150 107 -240z" />
    <glyph glyph-name="uni10F1" unicode="&#x10f1;" horiz-adv-x="1062" 
d="M979 -352c-20 -228 -181.329 -350.336 -483.996 -367.003c-244.667 21.333 -386.334 157 -425.001 407c2 320 19.667 594.833 53 824.5s16.666 429.834 -50.001 600.501h185c62 -170.667 77.5 -370.834 46.5 -600.501s-46.5 -504.5 -46.5 -824.5
c48 -171.333 127 -251.666 237 -240.999c169.333 0 271 67 305 201c-1.33301 144.667 -36 221 -104 229h-124v178h124c61.333 13.333 95.333 62.333 102 147c-4.66699 81.333 -37.334 128 -98.001 140h-128v176h126c60 8 93.333 60.333 100 157
c-4.66699 76.667 -38.667 120 -102 130h-124v180h124c68 5.33301 102 62.333 102 171c-6.66699 75.333 -57.834 129 -153.501 161s-144.167 105 -145.5 219h174c0.666992 -51.333 50.5 -95.666 149.5 -132.999s151.167 -119.666 156.5 -246.999
c-5.33301 -142 -50.333 -227.667 -135 -257c66 -28 105 -57.167 117 -87.5s18 -75.833 18 -136.5c-5.33301 -136.667 -53.666 -219 -144.999 -247c91.333 -30.667 139.666 -106 144.999 -226c-3.33301 -118.667 -49 -193 -137 -223c100 -54 145.667 -164.333 137 -331z" />
    <glyph glyph-name="uni10F2" unicode="&#x10f2;" horiz-adv-x="956" 
d="M65 -100c123.333 1.33301 202.667 34.333 238 99c-158.667 112.667 -238 264.667 -238 456c16.667 252 154.334 386 413.001 402c265.333 -14 403 -148 413 -402c0 -191.333 -81.333 -344 -244 -458c39.333 -64.667 120.666 -97 243.999 -97v-205
c-175.333 32.667 -313 113 -413 241c-102 -128 -239.667 -208.333 -413 -241v205zM250.001 455c0 -191.333 76 -313.666 228 -366.999c152 53.333 228 175.666 228 366.999c0 152.667 -76 229 -228 229s-228 -76.333 -228 -229z" />
    <glyph glyph-name="uni10F3" unicode="&#x10f3;" horiz-adv-x="961" 
d="M891 -311c-10.667 -252.667 -149.999 -388.666 -417.999 -407.999c-272 32.667 -408 168.667 -408 408l30 230h183l-30 -230c1.33301 -161.333 78 -242 230 -242s228 80.667 228 242v155c-26.667 174 -117.667 268.333 -273 283h-112v178h112
c175.333 63.333 255.666 189.666 240.999 378.999h-390v-173h-179v347h786c-6.66699 -314.667 -96.667 -525.667 -270 -633c153.333 -80 243.333 -207 270 -381v-155z" />
    <glyph glyph-name="uni10F4" unicode="&#x10f4;" horiz-adv-x="961" 
d="M891 -311c0 -253.333 -137.668 -389 -413.001 -407c-275.333 18 -413 153.667 -413 407l30 227h183l-30 -227c1.33301 -161.333 78 -242 230 -242s228 80.667 228 242v155c0 126.667 -77.667 221 -233 283h-152v178h152c155.333 70 232.333 193.667 231 371
c-72.667 -28.667 -147 -38.334 -223 -29.001c-277.333 24.667 -416 158.667 -416 402c14.667 210.667 153.334 346.334 416.001 407.001v-176c-154 -38.667 -233 -115.667 -237 -231c4 -128 82 -208 234 -240c129.333 -2 267 53.333 413 166v-260
c0 -226 -86.667 -391.333 -260 -496c173.333 -94 260 -219 260 -375v-155z" />
    <glyph glyph-name="uni10F5" unicode="&#x10f5;" horiz-adv-x="1074" 
d="M891 512v-178c0.666992 -222.667 -137.333 -334.667 -414 -336c-274.667 1.33301 -412 113.333 -412 336c0 233.333 135.333 351.333 406 354h236v160h-236c-270.667 6 -406 126 -406 360c0 218.667 137.667 328 413 328s413.333 -109.333 414 -328v-184h117v-176h-117
v-160h117v-176h-118zM250 1205c0 -120.667 73.667 -181 221 -181h236v184c-0.666992 104.667 -77 157 -229 157s-228 -53.333 -228 -160zM706 512h-235c-147.333 0 -221 -58 -221 -174c0 -113.333 76 -170 228 -170c152.667 0 228.667 60 228 180v164z" />
    <glyph glyph-name="uni10F6" unicode="&#x10f6;" horiz-adv-x="1598" 
d="M1533 430c-14.667 -269.333 -152.666 -412.666 -413.999 -429.999c-102.667 13.333 -178.667 53 -228 119v-430c0 -271.333 -137.667 -407 -413 -407v165c152 0 228 80 228 240v743c0 169.333 -76 254 -228 254c-138.667 -18 -214.667 -102.667 -228 -254
c13.333 -161.333 95.666 -245.333 246.999 -252v-178c-274.667 13.333 -418.667 156.666 -432 429.999c13.333 270.667 151 413 413 427c152 0 257.333 -57.667 316 -173c64.667 115.333 173 173 325 173c261.333 -12.667 399.333 -155 414 -427zM1347 430
c-13.333 156 -91.001 242 -233.001 258c-135.333 -20.667 -209.666 -106.667 -222.999 -258c5.33301 -137.333 81.333 -224.666 228 -261.999c138.667 13.333 214.667 100.666 228 261.999z" />
    <glyph glyph-name="uni10F7" unicode="&#x10f7;" horiz-adv-x="1083" 
d="M1033 -240c-22 -284.667 -185.668 -444.332 -491.001 -478.999c-304 26 -468 185.667 -492 479c1.33301 230 109.833 382.833 325.5 458.5s323.5 184.5 323.5 326.5c-9.33301 112.667 -61 169 -155 169c-98 0 -158.667 -43 -182 -129l10 -43l-166 -30l-10 63
c26 207.333 142 311 348 311c202 -22 314 -135.667 336 -341c-6 -203.333 -114 -341.666 -324 -414.999s-318.667 -194.333 -326 -363c18.667 -192 123.334 -298.667 314.001 -320c202 25.333 309 129.666 321 312.999c6 67.333 -13.667 123.666 -59 168.999l151 89
c48.667 -70.667 74 -156.667 76 -258z" />
    <glyph glyph-name="uni10F8" unicode="&#x10f8;" horiz-adv-x="963" 
d="M70 856l180 0.000976562v-500c14 -110.667 92.667 -173.334 236 -188.001c146 12 223 99.333 231 262c-14.667 162 -51.667 297.333 -111 406l170 60c64 -142.667 104.667 -298 122 -466c-16 -268.667 -153.333 -412 -412 -430h-2c-98.667 0 -176.667 28.667 -234 86
v-397c25.333 -151.333 104 -232.666 236 -243.999c143.333 13.333 220.333 94.666 231 243.999l-30 155h181l30 -155c-29.333 -246 -166.666 -382 -411.999 -408c-260.667 18.667 -399.334 154 -416.001 406v1169z" />
    <glyph glyph-name="uni10F9" unicode="&#x10f9;" horiz-adv-x="1083" 
d="M228 427c18 -235.333 123.333 -366.333 316 -393c190.667 34 293 165 307 393c-22.667 200 -125 305.667 -307 317c-188 -11.333 -293.333 -117 -316 -317zM50 427c34 304 198.666 467.33 493.999 489.997c296.667 -27.333 459.667 -190.666 489 -489.999
c-18 -284.667 -129.333 -467 -334 -547s-307 -172.333 -307 -277c12.667 -92 65.334 -142 158.001 -150c98.667 -4 162.667 32.333 192 109v73h177v-73c-18.667 -175.333 -141.667 -269 -369 -281c-214.667 28 -328 131.667 -340 311
c2.66699 152.667 82 259.334 238 320.001c-264 58.667 -396.667 230.334 -398 515.001z" />
    <glyph glyph-name="uni10FA" unicode="&#x10fa;" horiz-adv-x="953" 
d="M645 -163c1.33301 1.33301 -16 20.001 -52 56.001s-88.667 59 -158 69c-99.333 -6.66699 -164.666 -45.667 -195.999 -117l-128 76l32.5 49c21.667 32.667 70.834 58 147.501 76c-148 93.333 -222 218.666 -222 375.999c0 110.667 36.5 210.834 109.5 300.501
s175.833 134.5 308.5 134.5c107.333 0 200.666 -32.833 279.999 -98.5s120.666 -169.834 123.999 -312.501c0 -66.667 -16.333 -113.667 -49 -141l-145 57c7.33301 20.667 11 49.667 11 87c0 75.333 -19 133.333 -57 174s-92.667 61 -164 61
c-65.333 0 -119.5 -22.167 -162.5 -66.5s-64.5 -108.5 -64.5 -192.5c7.33301 -155.333 72 -259 194 -311c136.667 -53.333 236.667 -115 300 -185z" />
    <glyph glyph-name="uni10FB" unicode="&#x10fb;" horiz-adv-x="824" 
d="M102 859h182v-172h-182v172zM102 172h182v-172h-182v172zM544 522h182v-172h-182v172z" />
    <glyph glyph-name="uni10FC" unicode="&#x10fc;" horiz-adv-x="586" 
d="M410 1030c-3.33301 114.667 -44 173.333 -122 176c-72 -10.667 -109.667 -72 -113 -184c0 -131.333 39.333 -197 118 -197c77.333 0 116.333 68.333 117 205zM298 1297c58.667 -6.66699 105.667 -33.667 141 -81s56.333 -109.333 63 -186
c-3.33301 -94 -22 -165.167 -56 -213.5s-85 -72.5 -153 -72.5c-139.333 0 -209 94.667 -209 284v330c0 119.333 60.333 179 181 179h235v-83l-258 2c-44.667 0 -67 -26.333 -67 -79v-167z" />
    <glyph glyph-name="uni2010" unicode="&#x2010;" horiz-adv-x="682" 
d="M65 440v181h553v-181h-553z" />
    <glyph glyph-name="uni2011" unicode="&#x2011;" horiz-adv-x="682" 
d="M65 440v181h553v-181h-553z" />
    <glyph glyph-name="figuredash" unicode="&#x2012;" 
d="M1151 457h-1163v147h1163v-147z" />
    <glyph glyph-name="endash" unicode="&#x2013;" 
d="M-4 458v145h1139v-145h-1139z" />
    <glyph glyph-name="emdash" unicode="&#x2014;" horiz-adv-x="2048" 
d="M0 458v145h2048v-145h-2048z" />
    <glyph glyph-name="afii00208" unicode="&#x2015;" horiz-adv-x="1155" 
d="M1102 457h-1049v147h1049v-147z" />
    <glyph glyph-name="quoteleft" unicode="&#x2018;" horiz-adv-x="455" 
d="M321 1220v-209h-193v165c0 89.333 10.667 154 32 194c28 53.333 72.333 93.666 133 120.999l44 -70c-36.667 -15.333 -63.667 -38.166 -81 -68.499s-27 -74.5 -29 -132.5h94z" />
    <glyph glyph-name="quoteright" unicode="&#x2019;" horiz-adv-x="455" 
d="M124 1272l0.000976562 208.998h193v-165c0 -89.333 -10.333 -153.666 -31 -192.999c-28.667 -54 -73.334 -94.667 -134.001 -122l-44 71c36 14.667 62.833 37.834 80.5 69.501s27.5 75.167 29.5 130.5h-94z" />
    <glyph glyph-name="quotesinglbase" unicode="&#x201a;" horiz-adv-x="455" 
d="M124 0l0.000976562 208.998h193v-165c0 -89.333 -10.333 -153.666 -31 -192.999c-28.667 -54 -73.334 -94.667 -134.001 -122l-44 71c36 14.667 62.833 37.834 80.5 69.501s27.5 75.167 29.5 130.5h-94z" />
    <glyph glyph-name="quotereversed" unicode="&#x201b;" horiz-adv-x="455" 
d="M340 1057l-44.998 -70c-50.667 22.667 -87.834 51.5 -111.501 86.5s-38.334 70 -44.001 105s-8.5 76.5 -8.5 124.5v163h193v-209h-95c1.33301 -104 38.333 -170.667 111 -200z" />
    <glyph glyph-name="quotedblleft" unicode="&#x201c;" horiz-adv-x="682" 
d="M276 1220v-209h-193v165c0 89.333 10.667 154 32 194c28 53.333 72.333 93.666 133 120.999l44 -70c-36.667 -15.333 -63.667 -38.166 -81 -68.499s-27 -74.5 -29 -132.5h94zM586 1220v-209h-193v165c0 89.333 10.667 154 32 194c28 53.333 72.333 93.666 133 120.999
l44 -70c-36.667 -15.333 -63.667 -38.166 -81 -68.499s-27 -74.5 -29 -132.5h94z" />
    <glyph glyph-name="quotedblright" unicode="&#x201d;" horiz-adv-x="682" 
d="M87 1272l0.000976562 208.998h193v-165c0 -89.333 -10.333 -153.666 -31 -192.999c-28.667 -54 -73.334 -94.667 -134.001 -122l-44 71c36 14.667 62.833 37.834 80.5 69.501s27.5 75.167 29.5 130.5h-94zM397.001 1272l0.000976562 208.998h193v-165
c0 -89.333 -10.333 -153.666 -31 -192.999c-28.667 -54 -73.334 -94.667 -134.001 -122l-44 71c36 14.667 62.833 37.834 80.5 69.501s27.5 75.167 29.5 130.5h-94z" />
    <glyph glyph-name="quotedblbase" unicode="&#x201e;" horiz-adv-x="682" 
d="M87 0l0.000976562 208.998h193v-165c0 -89.333 -10.333 -153.666 -31 -192.999c-28.667 -54 -73.334 -94.667 -134.001 -122l-44 71c36 14.667 62.833 37.834 80.5 69.501s27.5 75.167 29.5 130.5h-94zM397.001 -0.00195312l0.000976562 208.998h193v-165
c0 -89.333 -10.333 -153.666 -31 -192.999c-28.667 -54 -73.334 -94.667 -134.001 -122l-44 71c36 14.667 62.833 37.834 80.5 69.501s27.5 75.167 29.5 130.5h-94z" />
    <glyph glyph-name="uni201F" unicode="&#x201f;" horiz-adv-x="682" 
d="M610 1057l-45.001 -70c-50 22.667 -87 51.5 -111 86.5s-38.833 70 -44.5 105s-8.5 76.5 -8.5 124.5v163h193v-209h-94c0.666992 -104 37.334 -170.667 110.001 -200zM298.999 1057l-44.998 -70c-50.667 22.667 -87.834 51.5 -111.501 86.5s-38.334 70 -44.001 105
s-8.5 76.5 -8.5 124.5v163h193v-209h-95c1.33301 -104 38.333 -170.667 111 -200z" />
    <glyph glyph-name="bullet" unicode="&#x2022;" horiz-adv-x="717" 
d="M109 718c0 70 24.833 129.667 74.5 179s109.167 74 178.5 74c70 0 129.833 -24.667 179.5 -74s74.5 -109 74.5 -179s-24.833 -129.833 -74.5 -179.5s-109.5 -74.5 -179.5 -74.5c-69.333 0 -128.833 24.833 -178.5 74.5s-74.5 109.5 -74.5 179.5z" />
    <glyph glyph-name="ellipsis" unicode="&#x2026;" horiz-adv-x="2048" 
d="M239 0v205h205v-205h-205zM922 0v205h205v-205h-205zM1604 0v205h206v-205h-206z" />
    <glyph glyph-name="uni2027" unicode="&#x2027;" horiz-adv-x="569" 
d="M387 618h-205v205h205v-205z" />
    <glyph glyph-name="guilsinglleft" unicode="&#x2039;" horiz-adv-x="682" 
d="M291 527l265 -455h-149l-315 455l315 457h149z" />
    <glyph glyph-name="guilsinglright" unicode="&#x203a;" horiz-adv-x="682" 
d="M392 530l-265 454h149l304 -448l-304 -464h-149z" />
    <glyph glyph-name="Euro" unicode="&#x20ac;" 
d="M790 1325c-246 -6.66699 -403.001 -136.667 -471.001 -390h682l-27 -134h-671v-132h644l-28 -134h-595c28 -152.667 87.833 -256.5 179.5 -311.5s182.167 -82.5 271.5 -82.5c124.667 0 222 32.667 292 98v-206c-83.333 -38.667 -175.333 -58 -276 -58
c-357.333 3.33301 -579.333 190 -666 560h-153l28 134h105l-2 132h-131l28 134h116c81.333 364 307.333 549.333 678 556c124 0 228.333 -27 313 -81l-40 -186c-81.333 67.333 -173.666 101 -276.999 101z" />
    <glyph glyph-name="trademark" unicode="&#x2122;" horiz-adv-x="2048" 
d="M489 651v694h-264v121h666v-121h-266v-694h-136zM982 651v815h200l206 -651l199 651h196v-815h-124v684l-210 -684h-123l-219 694v-694h-125z" />
    <glyph glyph-name="uni2219" unicode="&#x2219;" horiz-adv-x="569" 
d="M185 619v205h205v-205h-205z" />
    <glyph glyph-name="uniE000" unicode="&#xe000;" horiz-adv-x="950" 
d="M885 429c-18 -266.667 -154.333 -409.667 -409 -429c-252.667 16 -389.667 141.667 -411 377l32 155l173 -40l-20 -115c13.333 -126 89.333 -195.667 228 -209c138 12.667 214 99.667 228 261c-14 76.667 -63.667 140 -149 190c-158 48.667 -252.333 157.667 -283 327
h178c14.667 -86.667 53.667 -143 117 -169c186.667 -69.333 292 -185.333 316 -348z" />
    <glyph glyph-name="uniE001" unicode="&#xe001;" horiz-adv-x="952" 
d="M887 430c-14.667 -266 -149.333 -409.333 -404 -430c-268 18.667 -407.333 162 -418 430c18 240.667 133.333 383 346 427v205c-15.333 115.333 -76.166 186.166 -182.499 212.499s-159.5 114.5 -159.5 264.5h177c0 -97.333 53.667 -159.166 161 -185.499
s168.666 -121.833 183.999 -286.5v-210c175.333 -44 274 -186.333 296 -427zM708.001 430c-8 169.333 -81.667 258.666 -221 267.999c-148.667 -9.33301 -229 -98.666 -241 -267.999c13.333 -162 92.333 -249.333 237 -262c138.667 12.667 213.667 100 225 262z" />
    <glyph glyph-name="uniE002" unicode="&#xe002;" horiz-adv-x="952" 
d="M887 430c-14.667 -266 -149.334 -409.335 -404.001 -430.002c-268 18.667 -407.333 162 -418 430c18 240.667 123 382 315 424c136 94 201.667 196.667 197 308c4.66699 102 -64.333 165.667 -207 191c-20 -108 -74.333 -206 -163 -294h-195
c122.667 110.667 195.334 269.334 218.001 476.001c340 -28 514.667 -150 524 -366c2.66699 -145.333 -47 -253.666 -149 -324.999c176.667 -42 270.667 -180 282 -414zM708 429.998c-8 169.333 -81.667 258.666 -221 267.999c-148.667 -9.33301 -229 -98.666 -241 -267.999
c13.333 -162 92.333 -249.333 237 -262c138.667 12.667 213.667 100 225 262z" />
    <glyph glyph-name="uniE003" unicode="&#xe003;" horiz-adv-x="1081" 
d="M1031 -226c-21.333 -312 -184.333 -476.332 -489 -492.999c-314.667 15.333 -478.667 179.666 -492 492.999c19.333 284 174 447.333 464 490c104.667 54.667 162 154.667 172 300c3.33301 78 -50.667 120 -162 126c-108 -4.66699 -165.333 -43 -172 -115v-112h-178v112
c10 180 126.667 275.667 350 287c226.667 -12 340 -111.333 340 -298c-5.33301 -149.333 -60.333 -257.333 -165 -324c194 -40 304.667 -195.333 332 -466zM853 -225.999c-6 204 -108.335 310.333 -307.002 319c-197.333 -8.66699 -301.666 -115 -312.999 -319
c13.333 -208 115.333 -317 306 -327c188.667 12 293.334 121 314.001 327z" />
    <glyph glyph-name="uniE004" unicode="&#xe004;" horiz-adv-x="1081" 
d="M1031 -226c-21.333 -312 -184.331 -476.332 -488.998 -492.999c-314.667 15.333 -478.667 179.666 -492 492.999c19.333 284 174 447.333 464 490c104.667 54.667 168.667 154.667 192 300c-10 78 -64 120 -162 126c-108 -4.66699 -165.333 -43 -172 -115v-112h-178v112
c10 180 126.667 275.667 350 287c213.333 -12 326.666 -111.333 339.999 -298c-18.667 -149.333 -80.334 -257.333 -185.001 -324c194 -40 304.667 -195.333 332 -466zM853.002 -225.999c-6 204 -108.335 310.333 -307.002 319
c-197.333 -8.66699 -301.666 -115 -312.999 -319c13.333 -208 115.333 -317 306 -327c188.667 12 293.334 121 314.001 327z" />
    <glyph glyph-name="uniE005" unicode="&#xe005;" horiz-adv-x="954" 
d="M889 -226c1.33301 -323.333 -138.328 -487.666 -418.995 -492.999c-258 5.33301 -393 169.666 -405 492.999c0 277.333 111.333 440.666 334 489.999c113.333 58 181.666 158 204.999 300c-10 78 -54 120 -132 126c-94.667 -4.66699 -145.334 -43 -152.001 -115v-82h-178
v82c10 180 120 275.667 330 287c193.333 -12 296.666 -111.333 309.999 -298c-8.66699 -131.333 -66.334 -231.333 -173.001 -300c179.333 -63.333 272.666 -226.666 279.999 -489.999zM711.006 -226c-4.66699 223.333 -79.667 335 -225 335
c-159.333 0 -240 -111.333 -242 -334c0 -218.667 74.333 -328 223 -328c162.667 0 244 109 244 327z" />
    <glyph glyph-name="uniE006" unicode="&#xe006;" horiz-adv-x="1593" 
d="M1027 -674c0 204.667 -126.999 318.668 -380.999 342.001c-387.333 117.333 -581 346.666 -581 687.999c20.667 308 156.667 474.667 408 500c155.333 0 263.666 -57.333 324.999 -172c62 114.667 166.667 172 314 172c267.333 -20.667 406 -165.334 416 -434.001
c-17.333 -256 -156 -396.667 -416 -422c-270.667 44.667 -406 188 -406 430c5.33301 158.667 -70.667 243.334 -228 254.001c-132 -18 -208 -127.333 -228 -328c0 -237.333 132 -408 396 -512c364 -50 546.333 -222.667 547 -518h-166zM1347 430.001
c0 153.333 -78.332 238.001 -234.999 254.001c-147.333 -10.667 -221 -95.334 -221 -254.001c0 -153.333 73.667 -240.666 221 -261.999c145.333 15.333 223.666 102.666 234.999 261.999z" />
    <glyph glyph-name="uniE007" unicode="&#xe007;" horiz-adv-x="956" 
d="M707 430c0 169.333 -76.333 254 -229 254c-152 0 -229.333 -87.667 -232 -263c2.66699 -168.667 80 -253 232 -253c152.667 0 229 87.333 229 262zM528 -714c2 152 -74.667 283 -230 393s-233 302.333 -233 577v165c0 290.667 137.667 436 413 436s413 -142.333 413 -427
c0 -286.667 -139.667 -430 -419 -430c-64.667 0 -138.667 21.667 -222 65c0 -100 76 -207.833 228 -323.5s228.333 -267.5 229 -455.5h-179z" />
    <glyph glyph-name="uniE008" unicode="&#xe008;" horiz-adv-x="1563" 
d="M223 -288c50.667 43.333 110.668 68.665 180.001 75.998l-1 16c-224.667 132.667 -337 316.667 -337 552c20.667 308 156.667 474.667 408 500c135.333 0 233.666 -57.333 294.999 -172c62 114.667 166.667 172 314 172c267.333 -20.667 406 -165.334 416 -434.001
c-17.333 -256 -156 -396.667 -416 -422c-270.667 44.667 -406 188 -406 430c5.33301 158.667 -60.667 243.334 -198 254.001c-132 -18 -208 -127.333 -228 -328c0 -237.333 132 -408 396 -512c364 -50 546.333 -222.667 547 -518h-166c0 204.667 -130 323.334 -390 356.001
c-141.333 8.66699 -251 -23.666 -329 -96.999zM1317 429.999c0 153.333 -78.332 238.001 -234.999 254.001c-147.333 -10.667 -221 -95.334 -221 -254.001c0 -153.333 73.667 -240.666 221 -261.999c145.333 15.333 223.666 102.666 234.999 261.999z" />
    <glyph glyph-name="uniE009" unicode="&#xe009;" horiz-adv-x="1592" 
d="M1343 331c-10 166 -87 253.667 -231 263c-139.333 -9.33301 -214.666 -97 -225.999 -263c13.333 -156.667 88.666 -241 225.999 -253c144 10 221 94.333 231 253zM916 -716c-3.33301 129.333 -146.003 265.501 -428.003 408.501s-423 355.833 -423 638.5
c18 272 153.667 417.333 407 436c156.667 -10 265.334 -62.667 326.001 -158c62 94 166.667 146.667 314 158c266 -13.333 404.333 -158.666 415 -435.999c-17.333 -271.333 -155.666 -411.666 -414.999 -420.999c-252.667 9.33301 -387 149.666 -403 420.999
c-18.667 151.333 -95.667 238.333 -231 261c-142 -8 -219.333 -95 -232 -261c2.66699 -244.667 143.834 -433.834 423.501 -567.501s418.5 -292.834 416.5 -477.501zM1232 1162c-17.333 -232 -154.998 -355.668 -412.998 -371.001c-257.333 17.333 -393 144.333 -407 381
h178c7.33301 -134.667 84.666 -205.667 231.999 -213c144 3.33301 221 71 231 203c-11.333 124.667 -61.333 194 -150 208c-166.667 19.333 -260.334 100.333 -281.001 243h177c2.66699 -44.667 41.667 -72.667 117 -84c188 -21.333 293.333 -143.666 316 -366.999z" />
    <glyph glyph-name="uniE00A" unicode="&#xe00a;" horiz-adv-x="970" 
d="M890 -302c-16.667 -258.667 -153.999 -397.332 -411.999 -415.999c-259.333 18.667 -397 154 -413 406l30 231h184l-30 -231c10.667 -150.667 87 -231 229 -241c137.333 13.333 213.666 93.666 228.999 240.999v739c-8.66699 165.333 -76.334 251 -203.001 257
c-142 -8 -213.333 -75.333 -214 -202c4 -84 38.333 -135 103 -153v-180c-178.667 34 -272.667 144.333 -282 331c4.66699 231.333 135.667 357 393 377c240.667 -18 369.334 -161.333 386.001 -430v-729z" />
    <glyph glyph-name="uniE00B" unicode="&#xe00b;" horiz-adv-x="961" 
d="M885 -311c-18 -255.333 -154.667 -391.335 -410 -408.002c-250 13.333 -386.667 149.333 -410 408l30 230h181l-30 -230c18 -146.667 94.333 -228 229 -244c138.667 13.333 215.667 94.333 231 243v82c-20 130.667 -84 207.334 -192 230.001h-103v168h103
c92.667 12 156.667 99.333 192 262c-14.667 168.667 -85 253.334 -211 254.001c-120.667 -0.666992 -190.334 -75.334 -209.001 -224.001l30 -153h-181l-30 152c13.333 252.667 143.333 385 390 397c246.667 -19.333 378.667 -161.333 396 -426
c-20 -160 -88.667 -272 -206 -336c128.667 -39.333 195.334 -147.666 200.001 -324.999v-80z" />
    <glyph glyph-name="uniE00C" unicode="&#xe00c;" horiz-adv-x="1018" 
d="M953 430c-17.333 -272.667 -155 -416 -413 -430c-260.667 14 -399 157.333 -415 430c16 228.667 119.667 363 311 403c-252 -8.66699 -389 105.666 -411 342.999c16.667 226 134 346 352 360c226.667 -10.667 347.667 -128.667 363 -354
c-9.33301 -160.667 -70.666 -269 -183.999 -325c247.333 -21.333 379.666 -163.666 396.999 -426.999zM568 1180c-11.333 123.333 -75.001 188.667 -191.001 196c-111.333 -7.33301 -172.666 -72.666 -183.999 -195.999c11.333 -122.667 76 -189.334 194 -200.001
c118 11.333 178.333 78 181 200zM767.999 430.001c-11.333 160 -88.333 244.667 -231 254c-140 -11.333 -217 -96 -231 -254c14 -160 92 -247.333 234 -262c138 14.667 214 102 228 262z" />
    <glyph glyph-name="uniE00D" unicode="&#xe00d;" horiz-adv-x="1148" 
d="M377 1536c226.667 -10.667 347.667 -135.334 363 -374.001c-13.333 -175.333 -82 -282.666 -206 -321.999c330 54 513 -82.667 549 -410c-17.333 -272.667 -155 -416 -413 -430c-260.667 14 -399 157.333 -415 430c17.333 200.667 94 328 230 382
c-278.667 -30.667 -432 84 -460 344c16.667 239.333 134 366 352 380zM377 1376c-111.333 -7.33301 -172.667 -79.332 -184 -215.999c11.333 -122.667 76 -189.334 194 -200.001c118 11.333 178.333 78 181 200c-11.333 136.667 -75 208.667 -191 216zM897.999 430.001
c-11.333 160 -88.333 244.667 -231 254c-140 -11.333 -217 -96 -231 -254c14 -160 92 -247.333 234 -262c138 14.667 214 102 228 262z" />
    <glyph glyph-name="uniE00E" unicode="&#xe00e;" horiz-adv-x="1423" 
d="M1358 430c-17.333 -272.667 -155 -416.001 -413 -430.001c-260.667 14 -399 157.333 -415 430c3.33301 228.667 5 385 5 469c-44.667 -58 -106 -87 -184 -87c-226.667 8 -343.667 129.333 -351 364c16.667 226 134 346 352 360c230 -17.333 350.667 -136 362 -356v-428
c42 70 121.667 105 239 105c252.667 -21.333 387.667 -163.666 405 -426.999zM543 1180c-11.333 123.333 -75.001 186 -191.001 188c-111.333 -2 -172.666 -64.667 -183.999 -188c9.33301 -124 70.666 -190.667 183.999 -200c124.667 11.333 188.334 78 191.001 200z
M1173 429.999c-11.333 160 -88.333 244.667 -231 254c-140 -11.333 -217 -96 -231 -254c14 -160 92 -247.333 234 -262c138 14.667 214 102 228 262z" />
    <glyph glyph-name="uniE00F" unicode="&#xe00f;" horiz-adv-x="1598" 
d="M1533 430c-28 -265.333 -176 -408.669 -444 -430.002v168c146.667 20.667 232.667 108 258 262c-15.333 150.667 -94.333 235.334 -237 254.001c-146 -19.333 -219 -104 -219 -254c-26.667 -261.333 -166 -404.666 -418 -429.999c-254.667 26.667 -390.667 170 -408 430
c22.667 258.667 160 400.667 412 426c160 -11.333 266.333 -68.666 319 -171.999c53.333 107.333 158 164.666 314 171.999c260.667 -37.333 401.667 -179.333 423 -426zM708 429.997c-1.33301 142.667 -78.334 227.335 -231.001 254.002
c-140.667 -10.667 -217.667 -95.334 -231 -254.001c12.667 -168 88.334 -255.333 227.001 -262c144 9.33301 222.333 96.666 235 261.999z" />
    <glyph glyph-name="uniE010" unicode="&#xe010;" horiz-adv-x="956" 
d="M891 430c-17.333 -248.667 -114.668 -398.666 -292.001 -449.999l-40 158c89.333 48 138.333 145.333 147 292c-12 160 -88 244.667 -228 254c-141.333 -11.333 -217.333 -96 -228 -254c8.66699 -148.667 58.334 -246 149.001 -292l-40 -158
c-184 51.333 -282 201.333 -294 450c13.333 257.333 151 399.666 413 426.999c259.333 -26.667 397 -169 413 -427z" />
    <glyph glyph-name="uniE011" unicode="&#xe011;" horiz-adv-x="946" 
d="M875 -311c-22 -257.333 -160.331 -393.333 -414.998 -408c-256.667 6.66699 -393.334 142.667 -410.001 408l30 154h184l-30 -154c11.333 -156 86.666 -236 225.999 -240c145.333 5.33301 222.666 85.333 231.999 240v80c-24 154 -101.333 231 -232 231h-103v168h103
c140.667 14.667 219.667 110.334 237 287.001c-27.333 154.667 -122.666 231 -285.999 229v172c275.333 0.666992 430.333 -133 465 -401c-13.333 -176.667 -88.333 -296.334 -225 -359.001c125.333 -44 200 -153 224 -327v-80z" />
    <glyph glyph-name="uniE012" unicode="&#xe012;" horiz-adv-x="2217" 
d="M2152 430c-22.667 -264 -160.664 -407.334 -413.997 -430.001v168c144 14.667 220.333 102 229 262c0 156.667 -76.667 241.334 -230 254.001c-149.333 -12.667 -224.333 -97.334 -225 -254.001v-174h-185v174c0 158 -73.667 242.667 -221 254
c-143.333 -11.333 -215.333 -96 -216 -254v-174h-183v174c-0.666992 159.333 -77.334 244 -230.001 254c-139.333 -17.333 -215 -126.666 -227 -327.999c0 -313.333 213.667 -480.666 641 -501.999c578.667 -23.333 868 -199.333 868 -528h-174
c8 207.333 -223.333 324.666 -694 351.999c-550.667 49.333 -826 275.333 -826 678c16 318 153.333 484.667 412 500c152.667 -5.33301 262 -62.333 328 -171c57.333 102 157.666 159 300.999 171c147.333 -6.66699 254.333 -63.667 321 -171
c57.333 107.333 160.666 164.333 309.999 171c260.667 -13.333 399 -155.333 415 -426z" />
    <glyph glyph-name="uniE013" unicode="&#xe013;" horiz-adv-x="956" 
d="M887 427c2.66699 -112 -38.001 -220.999 -122.001 -326.999l-138 68c52.667 79.333 79.667 166.666 81 261.999c-1.33301 170.667 -78.333 255.334 -231 254.001c-151.333 0 -227 -84.667 -227 -254c0 -309.333 93.833 -520.833 281.5 -634.5
s282.834 -284.834 285.501 -513.501h-174c1.33301 170 -94.667 321 -288 453s-290 339 -290 621v75c0 284 137.333 426 412 426c276 0 412.667 -143.333 410 -430z" />
    <glyph glyph-name="uniE014" unicode="&#xe014;" horiz-adv-x="2217" 
d="M220 -297c45.333 45.333 106.336 77.998 183.003 97.998l-1 11c-224.667 111.333 -337 292.666 -337 543.999c16 318 153.333 484.667 412 500c152.667 -5.33301 262 -62.333 328 -171c57.333 102 157.666 159 300.999 171c147.333 -6.66699 254.333 -63.667 321 -171
c57.333 107.333 160.666 164.333 309.999 171c260.667 -13.333 399 -155.333 415 -426c-22.667 -264 -160.667 -407.333 -414 -430v168c144 14.667 220.333 102 229 262c0 156.667 -76.667 241.334 -230 254.001c-149.333 -12.667 -224.333 -97.334 -225 -254.001v-174h-185
v174c0 158 -73.667 242.667 -221 254c-143.333 -11.333 -215.333 -96 -216 -254v-174h-183v174c-0.666992 159.333 -77.334 244 -230.001 254c-139.333 -17.333 -215 -126.666 -227 -327.999c0 -313.333 213.667 -480.666 641 -501.999
c578.667 -23.333 868 -199.333 868 -528h-174c-0.666992 214.667 -255 338.334 -763 371.001c-232 24 -397 -18.333 -495 -127z" />
    <glyph glyph-name="uniE015" unicode="&#xe015;" horiz-adv-x="971" 
d="M891 430c-17.333 -268 -155.668 -411.331 -415.001 -429.998c-254.667 18.667 -391.667 162 -411 430c10.667 273.333 148.334 415.666 413.001 426.999c98 0 174 -28.667 228 -86v342c0 168 -76 252 -228 252c-138.667 0 -208 -50.667 -208 -152
c4 -59.333 29.667 -104.333 77 -135l-97 -121c-99.333 43.333 -154.333 128.666 -165 255.999c18 201.333 149 309 393 323c258 -15.333 395.667 -156.333 413 -423v-683zM705.998 430.002c-6 163.333 -81.999 248 -227.999 254
c-142 -9.33301 -219.333 -93.666 -232 -252.999c19.333 -162 96.666 -249.667 231.999 -263c138.667 11.333 214.667 98.666 228 261.999z" />
    <glyph glyph-name="uniE016" unicode="&#xe016;" horiz-adv-x="971" 
d="M906 430c-18 -266.667 -156.333 -410 -415 -430c-259.333 14.667 -396.333 158 -411 430v694c13.333 264 150.333 401.333 411 412h408v-170h-408c-145.333 -6 -221 -87.333 -227 -244v-372c58 70.667 133.667 106 227 106c262 -10 400.333 -152 415 -426zM723 430
c-11.333 159.333 -90.667 244.001 -238 254.001c-136.667 -12.667 -210.334 -97.334 -221.001 -254.001c12.667 -161.333 88.334 -248.666 227.001 -261.999c140 13.333 217.333 100.666 232 261.999z" />
    <glyph glyph-name="uniE017" unicode="&#xe017;" horiz-adv-x="1598" 
d="M1533 430c-20.667 -264 -168.999 -407.334 -444.999 -430.001v168c159.333 14.667 245.666 102 258.999 262c-10 160 -86 244.667 -228 254c-152 -17.333 -228 -102 -228 -254v-125h-184v125c-0.666992 150 -77 234.667 -229 254
c-143.333 -9.33301 -219.333 -94 -228 -254c18.667 -152.667 104.667 -240 258 -262v-168c-276 28 -423.667 171.333 -443 430c19.333 267.333 157 409.333 413 426c152 0 259 -57.333 321 -172c61.333 114.667 168 172.334 320 173.001
c258.667 -14 396.667 -156.333 414 -427z" />
    <glyph glyph-name="uniE018" unicode="&#xe018;" horiz-adv-x="955" 
d="M335 859c0 -128 -13.667 -227.333 -41 -298s-42 -157.667 -44 -261c2 -88 53.667 -132 155 -132c70.667 0 139 17 205 51s159.333 51 280 51v-170c-120.667 0 -214 -16.667 -280 -50s-134.333 -50 -205 -50c-224.667 0 -338 100 -340 300
c2 103.333 15.167 190.333 39.5 261s37.833 170 40.5 298h190z" />
    <glyph glyph-name="uniE019" unicode="&#xe019;" horiz-adv-x="956" 
d="M891 430c-17.333 -268.667 -155.333 -412.002 -414 -430.002c-255.333 20 -392.666 156.667 -411.999 410v103h185v-101c12 -152.667 87.667 -234 227 -244c141.333 10.667 217.666 98 228.999 262c-13.333 126 -90.333 194.333 -231 205h-101v174h119
c142 13.333 213.667 87 215 221c-1.33301 111.333 -108.833 186.333 -322.5 225s-320.5 132.334 -320.5 281.001h179c4 -74 112.833 -132.5 326.5 -175.5s320.5 -154.167 320.5 -333.5c0 -127.333 -69 -228 -207 -302c125.333 -37.333 194.333 -135.666 207 -294.999z" />
    <glyph glyph-name="uniE01A" unicode="&#xe01a;" horiz-adv-x="1161" 
d="M1081 -313c-12.667 -250.667 -155.334 -386 -428.001 -406c-253.333 13.333 -389.666 149.333 -408.999 408l30 229h178l-30 -229c12.667 -156 88.334 -237.333 227.001 -244c150 10 233.333 91.333 250 244v995h-246c42 -68 64 -158.667 66 -272
c-8.66699 -211.333 -118 -326 -328 -344c-200.667 10 -309.334 121 -326.001 333v170l181 -40v-130c2.66699 -106 50.334 -163.333 143.001 -172c100 0.666992 150.333 61.667 151 183c7.33301 123.333 -36.334 235.333 -131.001 336v108h672v-1169z" />
    <glyph glyph-name="uniE01B" unicode="&#xe01b;" horiz-adv-x="1603" 
d="M1538 430c-13.333 -266 -161.338 -409.332 -444.005 -429.999v168c172 14.667 258 102 258 262c-10 156 -86 240.667 -228 254c-151.333 -16 -227.666 -100.667 -228.999 -254v-126h-183v126c-1.33301 153.333 -77.666 238 -228.999 254c-140 -10 -216 -94.667 -228 -254
c0 -158 86 -245.333 258 -262v-168c-283.333 20 -431 163.333 -443 430c0.666992 170 55.334 327.167 164.001 471.5s263.334 265.666 464.001 363.999s346.334 201.833 437.001 310.5l132 -112c-110.667 -136 -270.167 -252 -478.5 -348s-347.833 -193.333 -418.5 -292
l116 33c150 -1.33301 255.333 -59 316 -173c62.667 114 170 171.667 322 173c256 -18.667 394 -161 414 -427z" />
    <glyph glyph-name="uniE01C" unicode="&#xe01c;" horiz-adv-x="956" 
d="M891 425c0 -171.333 -42 -313 -126 -425h-200c94 112 141.667 253.667 143 425c-1.33301 172.667 -82.333 259 -243 259c-143.333 0 -215 -84.667 -215 -254c0 -174.667 18.333 -318 55 -430h-165c-50 112 -75 255.333 -75 430v285c0 208 106.833 372.667 320.5 494
s320.5 230.333 320.5 327h185c0 -157.333 -106.833 -286 -320.5 -386s-320.5 -230.667 -320.5 -392c76.667 66 151 99 223 99c278.667 0 418 -144 418 -432z" />
    <glyph glyph-name="uniE01D" unicode="&#xe01d;" horiz-adv-x="1603" 
d="M1538 430c-12.667 -265.333 -160.667 -408.669 -444 -430.002v168c172 15.333 258 102.666 258 261.999c-10 156.667 -86 241.334 -228 254.001c-152 -16 -228.333 -100.667 -229 -254v-126h-183v126c-0.666992 153.333 -77 238 -229 254
c-140 -10 -216 -94.667 -228 -254c0 -158 86 -245.333 258 -262v-168c-283.333 20 -431 163.333 -443 430c12 181.333 74.333 300.666 187 357.999c-124.667 69.333 -187 160.333 -187 273c0 202.667 136 317.334 408 344.001h528c144 4 215.667 48 215 132h176
c-14 -187.333 -150.333 -286.666 -409 -297.999h-510c-148.667 -8 -223 -67.333 -223 -178c0 -101.333 76 -169.333 228 -204c152 -0.666992 258.333 -58.334 319 -173.001c62.667 114.667 170 172.334 322 173.001c256 -19.333 394 -161.666 414 -426.999z" />
    <glyph glyph-name="uniE01E" unicode="&#xe01e;" horiz-adv-x="968" 
d="M903 430c-19.333 -270.667 -155.331 -413.998 -407.998 -429.998c-262 13.333 -400.333 156.666 -415 429.999v1106h182v-1106c17.333 -164.667 95 -252 233 -262c137.333 12 211.666 99.333 222.999 262c0 88.667 -33.333 168.667 -100 240s-53.334 165.333 39.999 282
l160 -60c-80 -68.667 -85.833 -141.334 -17.5 -218.001s102.5 -158 102.5 -244z" />
    <glyph glyph-name="uniE01F" unicode="&#xe01f;" horiz-adv-x="1306" 
d="M236 57c2.66699 -354 142.667 -558.001 420 -612.001c280 54 420 258 420 612c0 316 -110.667 512 -332 588v-480h-174v484c-220 -91.333 -331.333 -288.666 -334 -591.999zM50 56.999c18.667 455.333 191.999 706.667 519.999 754v355h174v-357
c328.667 -46 499.334 -298 512.001 -756c0 -477.333 -198.667 -735.333 -596 -774c-400 38.667 -603.333 298 -610 778z" />
    <glyph glyph-name="uniE020" unicode="&#xe020;" horiz-adv-x="1274" 
d="M554 814c0.666992 -100 38.334 -155.332 113.001 -165.999c77.333 11.333 116.333 66.666 117 165.999c-0.666992 101.333 -39.667 152 -117 152c-74.667 -1.33301 -112.334 -52 -113.001 -152zM1207 -10.999c-4.66699 -442.667 -190.997 -677.332 -558.997 -703.999
c-374 33.333 -573.333 298.333 -598 795c10 208 49.667 388.333 119 541l114 -20c-31.333 -144.667 -44 -316 -38 -514c0.666992 -401.333 135 -617.333 403 -648c251.333 25.333 379.666 209.666 384.999 552.999c-36.667 322 -158.667 490.333 -366 505
c-74.667 -10 -112 -75.667 -112 -197c0 -90.667 37.667 -147 113 -169v-144c-178.667 20 -268.334 124.667 -269.001 314c-1.33301 124 50.334 218 155.001 282c-106.667 43.333 -165 120.333 -175 231c0.666992 190.667 97 289.667 289 297
c193.333 -8.66699 290.333 -107.667 291 -297c-12.667 -110.667 -71.334 -187.667 -176.001 -231c269.333 -62 410.666 -260 423.999 -594z" />
    <glyph glyph-name="uniE021" unicode="&#xe021;" horiz-adv-x="1441" 
d="M610 727c9.33301 -117.333 64 -183.666 164 -198.999c107.333 15.333 164.333 81.666 171 198.999c-8.66699 100 -64.667 156 -168 168c-102 -8.66699 -157.667 -64.667 -167 -168zM1376 -108c-19.333 -394.667 -219.001 -597.997 -599.001 -609.997
c-448 30.667 -685.333 270 -712 718v686h185v-686c25.333 -346.667 200 -531 524 -553c274.667 29.333 416 177.666 424 444.999c-22 289.333 -161.333 450.333 -418 483c-102 -46.667 -160.667 -138.334 -176 -275.001c15.333 -114.667 81.666 -178 198.999 -190v-183
c-234.667 40.667 -360.667 165 -378 373c7.33301 136.667 62 257.667 164 363c-93.333 43.333 -145.666 131.333 -156.999 264c7.33301 216.667 122.333 328 345 334c214.667 -6.66699 329.667 -118 345 -334c-15.333 -132.667 -69.666 -218.334 -162.999 -257.001
c258.667 -39.333 397.667 -232 417 -578z" />
    <glyph glyph-name="uniE022" unicode="&#xe022;" horiz-adv-x="1306" 
d="M236 57c2.66699 -354 142.667 -558.001 420 -612.001c280 54 420 258 420 612c0 316 -110.667 512 -332 588v-480h-174v484c-220 -91.333 -331.333 -288.666 -334 -591.999zM50 56.999c18.667 455.333 191.999 706.667 519.999 754v355h174v-357
c328.667 -46 499.334 -298 512.001 -756c0 -477.333 -198.667 -735.333 -596 -774c-400 38.667 -603.333 298 -610 778z" />
    <glyph glyph-name="uniE023" unicode="&#xe023;" horiz-adv-x="995" 
d="M395 1016l158 -0.00195312v-257c248.667 -16 384.334 -223 407.001 -621l-1 -251c-22 -407.333 -172.333 -610 -451 -608c-295.333 0.666992 -453 201 -473 601v204c6.66699 258 38 444.333 94 559l141 -42c-28.667 -103.333 -46.334 -275.666 -53.001 -516.999l2 -197
c16.667 -294.667 111.667 -442 285 -442c163.333 0 253.333 147.333 270 442v247c-15.333 274.667 -89 428.334 -221 461.001v-299h-158v720z" />
    <glyph glyph-name="uniE024" unicode="&#xe024;" horiz-adv-x="1033" 
d="M953 -311c-21.333 -248.667 -157.001 -384.668 -407.001 -408.001c-253.333 14.667 -389.333 150.667 -408 408l30 227h174l-30 -227c8.66699 -151.333 86.334 -232 233.001 -242c144 14.667 221.333 95.334 232 242.001v762c-3.33301 142 -53 219.667 -149 233
c-99.333 0 -154 -77.667 -164 -233v-152h-170v152c2.66699 155.333 -70.333 233 -219 233h-50v172h47c166 0 267.333 -57.333 304 -172c54 114.667 138 172 252 172c210.667 -20 319 -155 325 -405v-762z" />
    <glyph glyph-name="uniE025" unicode="&#xe025;" horiz-adv-x="1251" 
d="M1181 -311c-21.333 -248.667 -157.001 -384.67 -407.001 -408.003c-253.333 14.667 -389.333 150.667 -408 408l30 227h174l-30 -227c8.66699 -151.333 86.334 -232 233.001 -242c144 14.667 221.333 95.334 232 242.001v762c-3.33301 155.333 -48 233 -134 233
c-92.667 0 -139 -77.667 -139 -233v-222h-162v222c0 161.333 -35 242 -105 242c-40.667 0.666992 -79.667 -20.333 -117 -63s-82.333 -63 -135 -61c-128 18 -194 94 -198 228v33h160v-33c0.666992 -47.333 16.667 -71.666 48 -72.999c44.667 0.666992 81 23 109 67
s75.667 66 143 66c84.667 0 141 -57.667 169 -173c40.667 114.667 114.667 172.334 222 173.001c207.333 0 312.333 -135.333 315 -406v-762z" />
    <glyph glyph-name="uniE026" unicode="&#xe026;" horiz-adv-x="1592" 
d="M1512 -311c-21.333 -248.667 -157.002 -384.668 -407.002 -408.001c-253.333 14.667 -389.333 150.667 -408 408l30 227h174l-30 -227c8.66699 -151.333 86.334 -232 233.001 -242c144 14.667 221.333 95.334 232 242.001v762c-3.33301 142 -56.333 219.667 -159 233
c-99.333 0 -154 -77.667 -164 -233v-222h-170v222c2.66699 155.333 -44.666 233 -141.999 233c-80.667 0 -136.167 -53 -166.5 -159s-104.5 -159 -222.5 -159c-191.333 0 -287 106 -287 318v103h170v-103c2.66699 -98.667 41 -148 115 -148c60 0 103 53.333 129 160
s107 160 243 160c125.333 0 206.333 -57.333 243 -172c54 114.667 138 172 252 172c217.333 -20 329 -155 335 -405v-762z" />
    <glyph glyph-name="uniE027" unicode="&#xe027;" horiz-adv-x="1033" 
d="M953 -311c-21.333 -248.667 -157.001 -384.668 -407.001 -408.001c-253.333 14.667 -389.333 150.667 -408 408l30 227h174l-30 -227c8.66699 -151.333 86.334 -232 233.001 -242c144 14.667 221.333 95.334 232 242.001v762c-3.33301 142 -53 219.667 -149 233
c-99.333 0 -154 -77.667 -164 -233v-152h-170v152c2.66699 155.333 -70.333 233 -219 233h-50v172h47c166 0 267.333 -57.333 304 -172c54 114.667 138 172 252 172c210.667 -20 319 -155 325 -405v-762z" />
    <glyph glyph-name="uniE028" unicode="&#xe028;" horiz-adv-x="1603" 
d="M1533 -312c-18.667 -252.667 -156.667 -387.999 -414 -405.999c-261.333 18 -398.666 153.667 -411.999 407l30 154h184l-30 -154c10 -149.333 86 -230 228 -242c142 12 218 92.333 228 241v400c-48 -58.667 -122.333 -88 -223 -88h-2c-154 6.66699 -261 82.667 -321 228
c-63.333 -145.333 -171 -221.333 -323 -228c-275.333 0 -413 143.333 -413 430c5.33301 204.667 38.666 360.667 99.999 468l173 -70c-61.333 -100.667 -91.333 -233.334 -90 -398.001c1.33301 -174.667 78 -262 230 -262c152 40 228 127.333 228 262v427h185v-427
c0 -134.667 77 -222 231 -262c150 0 225 87.333 225 262v427h186v-1169z" />
    <glyph glyph-name="uniE029" unicode="&#xe029;" horiz-adv-x="1603" 
d="M1533 -311c-20 -250.667 -158 -386.333 -414 -407c-258 18 -395.333 153.667 -412 407l30 158h183l-30 -158c12.667 -151.333 89 -232 229 -242c142 10 218 90.667 228 242v80c-17.333 138 -74 215 -170 231h-92v168h92c100 16.667 156.667 104 170 262
c0 140 -76 224.667 -228 254c-152 -16 -228 -100.667 -228 -254c-12.667 -266.667 -150.334 -410 -413.001 -430c-254 20 -391.667 163.333 -413 430c23.333 264 161 406 413 426c152 0 258 -57.333 318 -172c63.333 114.667 171 172 323 172
c259.333 -15.333 397.333 -157.333 414 -426c-13.333 -161.333 -85.666 -276 -216.999 -344c118 -47.333 190.333 -152 217 -314v-83zM706 430.001c0 154.667 -76 239.333 -228 254c-136.667 -18 -212.667 -102.667 -228 -254c16.667 -158 92.667 -245.333 228 -262
c143.333 16.667 219.333 104 228 262z" />
    <glyph glyph-name="uniE02A" unicode="&#xe02a;" horiz-adv-x="971" 
d="M891 -312c-24 -252 -162.333 -387.335 -415 -406.002c-256 18.667 -393 154 -411 406l30 228h185l-30 -228c10 -150.667 85.333 -231 226 -241c142 10 219 90.333 231 241v671c-15.333 207.333 -91.666 315.666 -228.999 324.999c-116.667 -8 -179.667 -74.667 -189 -200
c6 -85.333 41.333 -141.666 106 -168.999v-169c-182 26.667 -278.333 139.334 -289 338.001c14 228.667 138 353 372 373c99.333 -7.33301 175.666 -39.666 228.999 -96.999v776h184v-1848z" />
    <glyph glyph-name="uniE02B" unicode="&#xe02b;" horiz-adv-x="1598" 
d="M1020 -673c-0.666992 214 -105.331 330.999 -313.998 350.999c-427.333 101.333 -641 328.666 -641 681.999c21.333 310.667 157.333 476 408 496c155.333 0 264.666 -57.333 327.999 -172c60 114.667 163 172 309 172c266 -13.333 407 -155.333 423 -426
c-12 -250.667 -150 -394 -414 -430v168c142 0 218 87.333 228 262c0 148.667 -78.333 233.334 -235 254.001c-147.333 -20.667 -221 -105.334 -221 -254.001v-127h-185v127c0 144.667 -77.667 229.334 -233 254.001c-148.667 -29.333 -224.334 -137.333 -227.001 -324
c2.66699 -234.667 156 -406.667 460 -516c326 -29.333 489.667 -201.666 491 -516.999h-177z" />
    <glyph glyph-name="uniE02C" unicode="&#xe02c;" horiz-adv-x="1598" 
d="M216 -269c30 36 76.001 65.3311 138.001 87.998l1 8c-193.333 120.667 -290 298.334 -290 533.001c21.333 310.667 157.333 476 408 496c155.333 0 264.666 -57.333 327.999 -172c60 114.667 163 172 309 172c266 -13.333 407 -155.333 423 -426
c-12 -250.667 -150 -394 -414 -430v168c142 0 218 87.333 228 262c0 148.667 -78.333 233.334 -235 254.001c-147.333 -20.667 -221 -105.334 -221 -254.001v-127h-185v127c0 144.667 -77.667 229.334 -233 254.001c-148.667 -29.333 -224.334 -137.333 -227.001 -324
c18.667 -266 164.334 -435 437.001 -507c341.333 -35.333 512.666 -210.666 513.999 -525.999h-177c16.667 198 -96.666 322.667 -339.999 374c-112 16 -189 17.667 -231 5s-86.667 -48.334 -134 -107.001z" />
    <glyph glyph-name="uniE02D" unicode="&#xe02d;" horiz-adv-x="971" 
d="M891 -313c-19.333 -254 -157.998 -389.333 -415.998 -406c-253.333 16.667 -390 152.667 -410 408l30 155h183l-30 -155c0 -136 75.667 -217.333 227 -244c154 18 231.333 99.333 232 244v440c-38.667 -74.667 -115.334 -117.667 -230.001 -129h-2
c-240 20 -376.667 163.333 -410 430c2.66699 200 66 352.667 190 458l160 -70c-112.667 -68.667 -169 -198 -169 -388c16 -162.667 92.333 -250 229 -262c129.333 18.667 206.666 106 231.999 262v426h184v-1169z" />
    <glyph glyph-name="uniE02E" unicode="&#xe02e;" horiz-adv-x="982" 
d="M726 430c-6 153.333 -84.668 238 -236.001 254c-137.333 -16 -214.333 -100.667 -231 -254c18.667 -158 95.667 -245.333 231 -262c142.667 8 221.334 95.333 236.001 262zM901.999 430c-19.333 -266.667 -156.668 -409.999 -412.001 -429.999
c-252.667 27.333 -390 170.666 -412 429.999c20 262 157.333 404 412 426c124.667 -8.66699 200.334 -44.667 227.001 -108v376c0 144 -49.667 224.667 -149 242c-90.667 -10 -136.667 -74 -138 -192v-116h-174v116c0.666992 113.333 -58 177.333 -176 192h-55v170h66
c125.333 0 213 -56.667 263 -170c34.667 113.333 112 170 232 170c210.667 -26.667 316 -164 316 -412v-694z" />
    <glyph glyph-name="uniE02F" unicode="&#xe02f;" horiz-adv-x="982" 
d="M726 430c-6 153.333 -84.668 238 -236.001 254c-137.333 -16 -214.333 -100.667 -231 -254c18.667 -158 95.667 -245.333 231 -262c142.667 8 221.334 95.333 236.001 262zM901.999 430c-19.333 -266.667 -156.67 -409.999 -412.003 -429.999
c-252.667 27.333 -390 170.666 -412 429.999c20 262 157.333 404 412 426c124.667 -8.66699 200.334 -44.667 227.001 -108v376c0 144 -48 224.667 -144 242c-87.333 -10 -131.666 -74 -132.999 -192v-116h-174v116c0.666992 113.333 -61.333 177.333 -186 192h-55v170h66
c132 0 223 -56.667 273 -170c34.667 113.333 110.334 170 227.001 170c207.333 -26.667 311 -164 311 -412v-694z" />
    <glyph glyph-name="uniE030" unicode="&#xe030;" horiz-adv-x="1339" 
d="M1088 431c-9.33301 157.333 -85.333 241.668 -228 253.001c-146 -12.667 -222.667 -97 -230 -253c12 -164.667 88.667 -252.334 230 -263.001c136.667 12 212.667 99.667 228 263zM1274 430.002c-19.333 -269.333 -157.334 -412.667 -414.001 -430
c-254.667 18.667 -391.667 162.334 -411 431.001c19.333 268 155.333 410 408 426h3c89.333 0 165.333 -21.333 228 -64v332c-6 160 -62.333 240.667 -169 242c-106.667 -1.33301 -160 -85.666 -160 -252.999v-90h-183v90
c-1.33301 167.333 -54.666 251.666 -159.999 252.999c-102.667 -10 -158.667 -65.333 -168 -166c0.666992 -85.333 42.667 -144.333 126 -177v-177h-6c-184.667 26.667 -285.667 144.667 -303 354c12.667 199.333 129 310.333 349 333c106.667 1.33301 190.667 -48 252 -148
c62 100 146.667 149.333 254 148c228.667 1.33301 346.667 -133.334 354 -404.001v-700z" />
    <glyph glyph-name="uniE031" unicode="&#xe031;" horiz-adv-x="969" 
d="M904 430c-2 -254.667 -112.999 -408.67 -332.999 -462.003v188c105.333 34.667 154.666 126 147.999 274c0 124 -73.667 190.333 -221 199c-156.667 -17.333 -235 -89.666 -235 -216.999v-412h-183v1124c10.667 268 131.667 405.333 363 412
c211.333 -13.333 323.333 -114.666 336 -303.999c-24 -223.333 -196 -341.666 -516 -354.999v-182c16.667 48.667 95 82.667 235 102c256.667 -12 392 -134.333 406 -367zM599.001 1232c-0.666992 78.667 -52.667 123.332 -156 133.999c-120 -6 -180 -67.667 -180 -185v-146
c214 0.666992 326 66.334 336 197.001z" />
    <glyph glyph-name="uniE032" unicode="&#xe032;" horiz-adv-x="1058" 
d="M993 420c-8.66699 -168 -88.666 -279.332 -239.999 -333.999c151.333 -57.333 231.333 -163 240 -317c-36 -315.333 -201 -478 -495 -488c-262.667 21.333 -407 205 -433 551v315c0 17.333 3.33301 105.833 10 265.5s26.667 308.167 60 445.5h188
c-36 -116 -60.667 -332.333 -74 -649v-377c18 -242 100.333 -371 247 -387c192 1.33301 299 108.666 321 321.999c11.333 121.333 -55.667 199 -201 233h-111v174h104c143.333 26 213.333 106.667 210 242c-1.33301 74.667 -43.833 135.667 -127.5 183
s-120.834 133 -111.501 257h180c-6 -94 30.167 -163.667 108.5 -209s119.833 -121 124.5 -227z" />
    <glyph glyph-name="uniE033" unicode="&#xe033;" horiz-adv-x="1058" 
d="M1023 420c-8.66699 -168 -88.666 -279.333 -239.999 -334c151.333 -57.333 231.333 -163 240 -317c-9.33301 -315.333 -164.333 -478 -465 -488c-316 21.333 -487 205 -513 551v315c0 17.333 3.33301 105.833 10 265.5s30 308.167 70 445.5h188
c-42.667 -116 -70.667 -332.333 -84 -649v-377c18 -242 127 -371 327 -387c188 12 285 119.333 291 322c11.333 121.333 -55.667 199 -201 233h-111v174h104c143.333 26 213.333 106.667 210 242c-1.33301 74.667 -43.833 135.667 -127.5 183s-120.834 133 -111.501 257h180
c-6 -94 30.167 -163.667 108.5 -209s119.833 -121 124.5 -227z" />
    <glyph glyph-name="uniE034" unicode="&#xe034;" horiz-adv-x="958" 
d="M893 420c-8.66699 -168 -58.665 -279.333 -149.998 -334c91.333 -57.333 141.333 -163 150 -317c-14.667 -325.333 -146.334 -488 -395.001 -488c-248.667 -0.666992 -393 183 -433 551v315c8 377.333 28 614.333 60 711h188c-32.667 -98.667 -54 -315 -64 -649v-377
c27.333 -253.333 109.666 -382.333 246.999 -387c136.667 0 210.334 107.333 221.001 322c11.333 121.333 -29 199 -121 233h-91v174h84c90 26 133.333 106.667 130 242c-1.33301 74.667 -28.833 135.667 -82.5 183s-75.834 133 -66.501 257h180
c-6 -94 15.167 -163.667 63.5 -209s74.833 -121 79.5 -227z" />
    <glyph glyph-name="uniE035" unicode="&#xe035;" horiz-adv-x="972" 
d="M892 430c-26.667 -264 -165 -407.333 -415 -430c-255.333 16 -392.666 157.333 -411.999 424c19.333 262.667 156 406.667 410 432c109.333 0.666992 186.666 -31.333 231.999 -96v777h185v-1107zM707 430c0 155.333 -78.667 240 -236 254
c-134 -18 -209 -104.667 -225 -260c13.333 -154 90.333 -239.333 231 -256c136 16.667 212.667 104 230 262z" />
    <glyph glyph-name="uniE036" unicode="&#xe036;" horiz-adv-x="982" 
d="M256 430c14.667 -166.667 93.333 -254 236 -262c135.333 16.667 212.333 104 231 262c-16.667 153.333 -93.667 238 -231 254c-151.333 -16 -230 -100.667 -236 -254zM79.999 1124c0 248 105.331 385.332 315.998 411.999c120 0 197.333 -56.667 232 -170
c50 113.333 137.667 170 263 170h66v-170h-55c-118 -14.667 -176.667 -78.667 -176 -192v-116h-174v116c-1.33301 118 -47.333 182 -138 192c-99.333 -17.333 -149 -98 -149 -242v-376c26.667 63.333 102.334 99.333 227.001 108c254.667 -22 392 -164 412 -426
c-22 -259.333 -159.333 -402.666 -412 -429.999c-255.333 20 -392.666 163.333 -411.999 430v694z" />
    <glyph glyph-name="uniE037" unicode="&#xe037;" horiz-adv-x="954" 
d="M699 512c-12.667 114.667 -73.6689 171.999 -183.002 171.999c-141.333 13.333 -217.666 -44 -228.999 -172c11.333 -145.333 29.333 -288.666 54 -429.999s37 -284.333 37 -429h30c46.667 200 106.334 361.167 179.001 483.5s110 247.5 112 375.5zM928.998 1366
l-54.002 -0.000976562c-85.333 -17.333 -130.333 -74.666 -135 -171.999v-133h-181v133c-11.333 114 -68.333 171 -171 171c-76.667 0 -120 -80.333 -130 -241l10 -270l10 -91c44 63.333 127.667 95 251 95c204 -14 318 -129.333 342 -346
c-13.333 -175.333 -64.166 -330.5 -152.499 -465.5s-192.5 -375.833 -312.5 -722.5h-155l10 199c-11.333 160 -33.666 317.5 -66.999 472.5s-59.333 327.167 -78 516.5c-27.333 210 -40 414 -38 612c16.667 264 121 400.667 313 410c133.333 1.33301 218 -54.667 254 -168
c52 113.333 128.667 169.333 230 168h54v-168z" />
    <glyph glyph-name="uniE038" unicode="&#xe038;" horiz-adv-x="1338" 
d="M736 391c-8.66699 162 -94.6641 246.334 -257.997 253.001c-152 -10.667 -228.667 -68.334 -230 -173.001c1.33301 -162 29.166 -323.167 83.499 -483.5s95.166 -313.5 122.499 -459.5c68 170 130.667 314.5 188 433.5s88.666 260.833 93.999 425.5v4zM964.003 1024
c77.333 10.667 121.333 62.334 132 155.001c-4.66699 124 -61.667 186.667 -171 188c-114 -1.33301 -170.333 -82 -169 -242v-101h-180v101c-7.33301 160 -61 240 -161 240c-110 0 -165 -80 -165 -240v-385c63.333 50 139.333 75.667 228 77
c264.667 -11.333 408 -153.333 430 -426c-11.333 -216 -59 -401.333 -143 -556s-169.333 -339 -256 -553h-170c-1.33301 182 -47.333 377.333 -138 586s-136 436.667 -136 684v573c0 274 118 410.333 354 409c106 1.33301 187 -43.667 243 -135
c61.333 91.333 149 136.333 263 135c226.667 1.33301 342.667 -117 348 -355c-12 -196.667 -115 -307.334 -309 -332.001v177z" />
    <glyph glyph-name="uniE039" unicode="&#xe039;" horiz-adv-x="1339" 
d="M250 431c15.333 -163.333 91.333 -251.002 228 -263.002c141.333 10.667 218 98.334 230 263.001c-7.33301 156 -84 240.333 -230 253c-142.667 -11.333 -218.667 -95.666 -228 -252.999zM64 1130c7.33301 270.667 125.332 405.335 353.999 404.002
c107.333 1.33301 192 -48 254 -148c61.333 100 145.333 149.333 252 148c220 -22.667 336.333 -133.667 349 -333c-17.333 -209.333 -118.333 -327.333 -303 -354h-6v177c83.333 32.667 125.333 91.667 126 177c-9.33301 100.667 -65.333 156 -168 166
c-105.333 -1.33301 -158.666 -85.666 -159.999 -252.999v-90h-183v90c0 167.333 -53.333 251.666 -160 252.999c-106.667 -1.33301 -163 -82 -169 -242v-332c62.667 42.667 138.667 64 228 64h3c252.667 -16 388.667 -158 408 -426
c-19.333 -268.667 -156.333 -412.334 -411 -431.001c-256.667 17.333 -394.667 160.666 -414 429.999v700z" />
    <glyph glyph-name="uniE03A" unicode="&#xe03a;" horiz-adv-x="955" 
d="M887 -311c-16.667 -248.667 -153.001 -384.331 -409.001 -406.998c-254 14 -391.667 149.667 -413 407l30 155h184l-30 -157c18 -150 94.333 -230 229 -240c138.667 10 215.334 90.667 230.001 242c-1.33301 111.333 -40 205.666 -116 282.999s-121 182 -135 314l-86 -18
c-184.667 17.333 -286 119.666 -304 306.999c18 180.667 123.333 283.667 316 309l74 -8v660h167v-745c52.667 -31.333 80.667 -76 84 -134h182v-158h-186c-0.666992 -56.667 -28 -103 -82 -139v-76c16.667 -112.667 65.5 -210.5 146.5 -293.5s120.5 -183.5 118.5 -301.5z
M236.999 577.003c8.66699 -106.667 62.667 -160 162 -160c104.667 4 161.334 57.333 170.001 160c-8.66699 93.333 -62.667 143.666 -162 150.999c-104.667 -9.33301 -161.334 -59.666 -170.001 -150.999z" />
    <glyph glyph-name="uniE03B" unicode="&#xe03b;" horiz-adv-x="972" 
d="M907 430c-17.333 -270.667 -156.332 -414 -416.999 -430c-258.667 13.333 -395.334 156.666 -410.001 429.999v1106h182v-798c69.333 78.667 145.333 118.334 228 119.001c260.667 -16 399.667 -158.333 417 -427zM718.001 430
c-13.333 151.333 -89.333 236.001 -228 254.001c-152 -22.667 -228 -107.334 -228 -254.001c10.667 -162.667 86.667 -250 228 -262c140.667 12 216.667 99.333 228 262z" />
    <glyph glyph-name="uniE03C" unicode="&#xe03c;" horiz-adv-x="956" 
d="M891 -311c-30.667 -260 -170 -395.999 -418 -407.999c-255.333 16.667 -391.333 152.667 -408 408l30 155h183l-30 -155c14.667 -151.333 89.667 -232.666 225 -243.999c142 16 219.667 97 233 243c0 160 -48.167 284.667 -144.5 374s-154.5 221.666 -174.5 396.999v128
l-322 118v179l322 -128v369h174v-443l316 -146v-176l-316 153v-56c0 -112 50 -221.833 150 -329.5s160 -253.834 180 -438.501z" />
    <glyph glyph-name="uniE03D" unicode="&#xe03d;" horiz-adv-x="1236" 
d="M164 427l-109.003 106.999c106 186 262 213 468 81l114 -95l96 110c102.667 98.667 106.334 175.334 11.001 230.001l123 121c174 -128 166.667 -286.333 -22 -475l-76 -91l121 -98c98.667 -106.667 176.334 -99.334 233.001 21.999l126 -116
c-126 -175.333 -277.667 -184.666 -455 -27.999l-128 104l-167 -209c180 -50 278.667 -172.667 296 -368c-7.33301 -294.667 -186 -442 -536 -442v168c226.667 -1.33301 343.334 90 350.001 274c-36 158.667 -132 221 -288 187l-102 131l312 356l-106 88
c-98.667 87.333 -185.667 68.333 -261 -57z" />
    <glyph glyph-name="uniE03E" unicode="&#xe03e;" horiz-adv-x="956" 
d="M891 -311c-30.667 -260 -170 -395.999 -418 -407.999c-255.333 16.667 -391.333 152.667 -408 408l30 155h183l-30 -155c14.667 -151.333 89.667 -232.666 225 -243.999c142 16 219.667 97 233 243c0 160 -48.167 284.667 -144.5 374s-154.5 221.666 -174.5 396.999v128
l-322 118v179l322 -128v369h174v-443l316 -146v-176l-316 153v-56c0 -112 50 -221.833 150 -329.5s160 -253.834 180 -438.501z" />
    <glyph glyph-name="uniE03F" unicode="&#xe03f;" horiz-adv-x="1236" 
d="M164 427l-109.003 106.999c106 186 262 213 468 81l114 -95l96 110c102.667 98.667 106.334 175.334 11.001 230.001l123 121c174 -128 166.667 -286.333 -22 -475l-76 -91l121 -98c98.667 -106.667 176.334 -99.334 233.001 21.999l126 -116
c-126 -175.333 -277.667 -184.666 -455 -27.999l-128 104l-167 -209c180 -50 278.667 -172.667 296 -368c-7.33301 -294.667 -186 -442 -536 -442v168c226.667 -1.33301 343.334 90 350.001 274c-36 158.667 -132 221 -288 187l-102 131l312 356l-106 88
c-98.667 87.333 -185.667 68.333 -261 -57z" />
    <glyph glyph-name="uniE040" unicode="&#xe040;" horiz-adv-x="961" 
d="M891 356c-21.333 -221.333 -157.999 -340.002 -409.999 -356.002c-260.667 18 -399.334 155.333 -416.001 412v100h181v-100c11.333 -152.667 88.333 -234 231 -244c139.333 16.667 216.333 76.667 231 180c-1.33301 86 -37.333 140.667 -108 164h-158v168h158
c70.667 12.667 106 49.334 106 110.001c0 61.333 -35.333 96.333 -106 105h-158v170h166c65.333 8.66699 98 48.667 98 120c0 56 -76.667 95.333 -230 118s-230 100.334 -230 233.001h185c0 -62.667 76.667 -102.5 230 -119.5s230 -94.833 230 -233.5
c0 -92.667 -33.667 -158 -101 -196c67.333 -42 101 -108 101 -198c0 -84 -35.667 -148.333 -107 -193c71.333 -70 107 -150 107 -240z" />
    <glyph glyph-name="uniE041" unicode="&#xe041;" horiz-adv-x="1062" 
d="M979 -352c-20 -228 -181.329 -350.336 -483.996 -367.003c-244.667 21.333 -386.334 157 -425.001 407c2 320 19.667 594.833 53 824.5s16.666 429.834 -50.001 600.501h185c62 -170.667 77.5 -370.834 46.5 -600.501s-46.5 -504.5 -46.5 -824.5
c48 -171.333 127 -251.666 237 -240.999c169.333 0 271 67 305 201c-1.33301 144.667 -36 221 -104 229h-124v178h124c61.333 13.333 95.333 62.333 102 147c-4.66699 81.333 -37.334 128 -98.001 140h-128v176h126c60 8 93.333 60.333 100 157
c-4.66699 76.667 -38.667 120 -102 130h-124v180h124c68 5.33301 102 62.333 102 171c-6.66699 75.333 -57.834 129 -153.501 161s-144.167 105 -145.5 219h174c0.666992 -51.333 50.5 -95.666 149.5 -132.999s151.167 -119.666 156.5 -246.999
c-5.33301 -142 -50.333 -227.667 -135 -257c66 -28 105 -57.167 117 -87.5s18 -75.833 18 -136.5c-5.33301 -136.667 -53.666 -219 -144.999 -247c91.333 -30.667 139.666 -106 144.999 -226c-3.33301 -118.667 -49 -193 -137 -223c100 -54 145.667 -164.333 137 -331z" />
    <glyph glyph-name="uniE042" unicode="&#xe042;" horiz-adv-x="956" 
d="M65 -100c123.333 1.33301 202.667 34.333 238 99c-158.667 112.667 -238 264.667 -238 456c16.667 252 154.334 386 413.001 402c265.333 -14 403 -148 413 -402c0 -191.333 -81.333 -344 -244 -458c39.333 -64.667 120.666 -97 243.999 -97v-205
c-175.333 32.667 -313 113 -413 241c-102 -128 -239.667 -208.333 -413 -241v205zM250.001 455c0 -191.333 76 -313.666 228 -366.999c152 53.333 228 175.666 228 366.999c0 152.667 -76 229 -228 229s-228 -76.333 -228 -229z" />
    <glyph glyph-name="uniE043" unicode="&#xe043;" horiz-adv-x="961" 
d="M891 -311c-10.667 -252.667 -149.999 -388.666 -417.999 -407.999c-272 32.667 -408 168.667 -408 408l30 230h183l-30 -230c1.33301 -161.333 78 -242 230 -242s228 80.667 228 242v155c-26.667 174 -117.667 268.333 -273 283h-112v178h112
c175.333 63.333 255.666 189.666 240.999 378.999h-390v-173h-179v347h786c-6.66699 -314.667 -96.667 -525.667 -270 -633c153.333 -80 243.333 -207 270 -381v-155z" />
    <glyph glyph-name="uniE044" unicode="&#xe044;" horiz-adv-x="961" 
d="M891 -311c0 -253.333 -137.668 -389 -413.001 -407c-275.333 18 -413 153.667 -413 407l30 227h183l-30 -227c1.33301 -161.333 78 -242 230 -242s228 80.667 228 242v155c0 126.667 -77.667 221 -233 283h-152v178h152c155.333 70 232.333 193.667 231 371
c-72.667 -28.667 -147 -38.334 -223 -29.001c-277.333 24.667 -416 158.667 -416 402c14.667 210.667 153.334 346.334 416.001 407.001v-176c-154 -38.667 -233 -115.667 -237 -231c4 -128 82 -208 234 -240c129.333 -2 267 53.333 413 166v-260
c0 -226 -86.667 -391.333 -260 -496c173.333 -94 260 -219 260 -375v-155z" />
    <glyph glyph-name="uniE045" unicode="&#xe045;" horiz-adv-x="1074" 
d="M891 512v-178c0.666992 -222.667 -137.333 -334.667 -414 -336c-274.667 1.33301 -412 113.333 -412 336c0 233.333 135.333 351.333 406 354h236v160h-236c-270.667 6 -406 126 -406 360c0 218.667 137.667 328 413 328s413.333 -109.333 414 -328v-184h117v-176h-117
v-160h117v-176h-118zM250 1205c0 -120.667 73.667 -181 221 -181h236v184c-0.666992 104.667 -77 157 -229 157s-228 -53.333 -228 -160zM706 512h-235c-147.333 0 -221 -58 -221 -174c0 -113.333 76 -170 228 -170c152.667 0 228.667 60 228 180v164z" />
    <glyph glyph-name="uniE046" unicode="&#xe046;" horiz-adv-x="1598" 
d="M1533 430c-14.667 -269.333 -152.666 -412.666 -413.999 -429.999c-102.667 13.333 -178.667 53 -228 119v-430c0 -271.333 -137.667 -407 -413 -407v165c152 0 228 80 228 240v743c0 169.333 -76 254 -228 254c-138.667 -18 -214.667 -102.667 -228 -254
c13.333 -161.333 95.666 -245.333 246.999 -252v-178c-274.667 13.333 -418.667 156.666 -432 429.999c13.333 270.667 151 413 413 427c152 0 257.333 -57.667 316 -173c64.667 115.333 173 173 325 173c261.333 -12.667 399.333 -155 414 -427zM1347 430
c-13.333 156 -91.001 242 -233.001 258c-135.333 -20.667 -209.666 -106.667 -222.999 -258c5.33301 -137.333 81.333 -224.666 228 -261.999c138.667 13.333 214.667 100.666 228 261.999z" />
    <glyph glyph-name="uniE047" unicode="&#xe047;" horiz-adv-x="1083" 
d="M1033 -240c-22 -284.667 -185.668 -444.332 -491.001 -478.999c-304 26 -468 185.667 -492 479c1.33301 230 109.833 382.833 325.5 458.5s323.5 184.5 323.5 326.5c-9.33301 112.667 -61 169 -155 169c-98 0 -158.667 -43 -182 -129l10 -43l-166 -30l-10 63
c26 207.333 142 311 348 311c202 -22 314 -135.667 336 -341c-6 -203.333 -114 -341.666 -324 -414.999s-318.667 -194.333 -326 -363c18.667 -192 123.334 -298.667 314.001 -320c202 25.333 309 129.666 321 312.999c6 67.333 -13.667 123.666 -59 168.999l151 89
c48.667 -70.667 74 -156.667 76 -258z" />
    <glyph glyph-name="uniE048" unicode="&#xe048;" horiz-adv-x="963" 
d="M70 856l180 0.000976562v-500c14 -110.667 92.667 -173.334 236 -188.001c146 12 223 99.333 231 262c-14.667 162 -51.667 297.333 -111 406l170 60c64 -142.667 104.667 -298 122 -466c-16 -268.667 -153.333 -412 -412 -430h-2c-98.667 0 -176.667 28.667 -234 86
v-397c25.333 -151.333 104 -232.666 236 -243.999c143.333 13.333 220.333 94.666 231 243.999l-30 155h181l30 -155c-29.333 -246 -166.666 -382 -411.999 -408c-260.667 18.667 -399.334 154 -416.001 406v1169z" />
    <glyph glyph-name="uniE049" unicode="&#xe049;" horiz-adv-x="1083" 
d="M228 427c18 -235.333 123.333 -366.333 316 -393c190.667 34 293 165 307 393c-22.667 200 -125 305.667 -307 317c-188 -11.333 -293.333 -117 -316 -317zM50 427c34 304 198.666 467.33 493.999 489.997c296.667 -27.333 459.667 -190.666 489 -489.999
c-18 -284.667 -129.333 -467 -334 -547s-307 -172.333 -307 -277c12.667 -92 65.334 -142 158.001 -150c98.667 -4 162.667 32.333 192 109v73h177v-73c-18.667 -175.333 -141.667 -269 -369 -281c-214.667 28 -328 131.667 -340 311
c2.66699 152.667 82 259.334 238 320.001c-264 58.667 -396.667 230.334 -398 515.001z" />
    <glyph glyph-name="uniE04A" unicode="&#xe04a;" horiz-adv-x="953" 
d="M645 -163c1.33301 1.33301 -16 20.001 -52 56.001s-88.667 59 -158 69c-99.333 -6.66699 -164.666 -45.667 -195.999 -117l-128 76l32.5 49c21.667 32.667 70.834 58 147.501 76c-148 93.333 -222 218.666 -222 375.999c0 110.667 36.5 210.834 109.5 300.501
s175.833 134.5 308.5 134.5c107.333 0 200.666 -32.833 279.999 -98.5s120.666 -169.834 123.999 -312.501c0 -66.667 -16.333 -113.667 -49 -141l-145 57c7.33301 20.667 11 49.667 11 87c0 75.333 -19 133.333 -57 174s-92.667 61 -164 61
c-65.333 0 -119.5 -22.167 -162.5 -66.5s-64.5 -108.5 -64.5 -192.5c7.33301 -155.333 72 -259 194 -311c136.667 -53.333 236.667 -115 300 -185z" />
    <glyph glyph-name=".null" horiz-adv-x="0" 
 />
    <glyph glyph-name="nonmarkingreturn" horiz-adv-x="569" 
 />
    <glyph glyph-name="ring" horiz-adv-x="682" 
d="M162 1338c0 48.667 17.833 90.667 53.5 126s77.834 53 126.501 53c49.333 0 91.666 -17.833 126.999 -53.5s53 -78.834 53 -129.501c0 -51.333 -17.667 -94.666 -53 -129.999s-77.333 -53 -126 -53c-50 0 -92.667 17.833 -128 53.5s-53 80.167 -53 133.5zM238 1337
c0 -31.333 10.5 -57.667 31.5 -79s45.833 -32 74.5 -32s53.5 10.667 74.5 32s31.5 47 31.5 77s-10.333 55.667 -31 77s-45.667 32 -75 32c-28.667 0 -53.5 -10.5 -74.5 -31.5s-31.5 -46.167 -31.5 -75.5z" />
    </font>
</defs>
</svg>
